<?xml version="1.0" encoding="UTF-8"?>
<svg width="154px" height="154px" viewBox="0 0 154 154" version="1.1" xmlns="http://www.w3.org/2000/svg" xmlns:xlink="http://www.w3.org/1999/xlink">
    <!-- Generator: Sketch 48.2 (47327) - http://www.bohemiancoding.com/sketch -->
    <title>agreement_big</title>
    <desc>Created with Sketch.</desc>
    <defs>
        <linearGradient x1="50%" y1="0%" x2="50%" y2="100%" id="linearGradient-1">
            <stop stop-color="#ADC2FF" offset="0%"></stop>
            <stop stop-color="#4169E1" offset="77.2773282%"></stop>
            <stop stop-color="#314FA8" offset="100%"></stop>
        </linearGradient>
    </defs>
    <g id="assets" stroke="none" stroke-width="1" fill="none" fill-rule="evenodd">
        <g id="agreement_big" transform="translate(2.000000, 2.000000)">
            <circle id="Oval-2" stroke="#4169E1" stroke-width="3" cx="75" cy="75" r="75"></circle>
            <g id="customer-collaboration-deal-handshake-partnership" transform="translate(20.000000, 24.000000)" fill="url(#linearGradient-1)" fill-rule="nonzero">
                <path d="M14.1935484,37.2580645 C17.1280645,37.2580645 19.516129,34.87 19.516129,31.9354839 C19.516129,29.0009677 17.1280645,26.6129032 14.1935484,26.6129032 C11.2590323,26.6129032 8.87096774,29.0009677 8.87096774,31.9354839 C8.87096774,34.87 11.2590323,37.2580645 14.1935484,37.2580645 Z M14.1935484,30.1612903 C15.171129,30.1612903 15.9677419,30.9579032 15.9677419,31.9354839 C15.9677419,32.9130645 15.171129,33.7096774 14.1935484,33.7096774 C13.2159677,33.7096774 12.4193548,32.9130645 12.4193548,31.9354839 C12.4193548,30.9579032 13.2159677,30.1612903 14.1935484,30.1612903 Z" id="Shape"></path>
                <path d="M109.480161,42.0608065 L106.971452,39.5520968 L81.5827419,64.9408065 C81.4869355,64.8325806 81.4106452,64.7101613 81.3077419,64.6054839 L66.3796774,49.6774194 L68.6737097,47.3833871 L66.165,44.8746774 L60.8974194,50.1422581 C58.0746774,52.9632258 53.7048387,53.3535484 50.4527419,51.3114516 L63.3458065,38.5195161 L63.3493548,38.5141935 L97.0590323,4.80451613 L94.5503226,2.29580645 L62.0967742,34.7493548 L59.8027419,32.4553226 C59.4704261,32.1220765 59.0190106,31.9349977 58.5483871,31.9354839 L52.186129,31.9354839 L49.1575806,28.9069355 L24.318871,4.06822581 L21.8101613,6.57693548 L38.2977419,23.0645161 L15.6058065,45.7564516 L2.97354839,34.1762903 L0.57483871,36.7932258 L21.2903226,55.7806452 L21.2903226,60.3225806 C21.2903226,60.7927419 21.4766129,61.2451613 21.8101613,61.5769355 L29.4835484,69.2503226 C28.774374,70.19588 28.3897784,71.3453106 28.3870968,72.5272581 C28.3929819,75.5043298 30.7538693,77.9428418 33.7291935,78.045 C33.8325293,80.9406973 36.1560769,83.2642449 39.0517742,83.3675806 C39.1551099,86.263278 41.4786575,88.5868256 44.3743548,88.6901613 C44.4774199,91.6650827 46.9153984,94.0254535 49.8920968,94.0322581 C50.646129,94.0322581 51.3770968,93.8779032 52.0512903,93.5922581 L52.186129,93.7270968 C53.5256452,95.0683871 55.3087097,95.8064516 57.2053226,95.8064516 C59.1019355,95.8064516 60.8832258,95.0683871 62.2227419,93.7270968 L81.3077419,74.6420968 C82.978425,72.9816933 83.7093519,70.5965284 83.2558065,68.2851613 L109.480161,42.0608065 Z M40.8064516,25.5732258 L45.3945161,30.1612903 L23.0112903,52.5445161 L18.2245161,48.1569355 L40.8064516,25.5732258 Z M31.9354839,72.5272581 C31.9354839,71.995 32.1430645,71.4964516 32.5174194,71.1203226 L40.9590323,62.6787097 C41.7425921,61.9418395 42.9697886,61.9606775 43.730362,62.7212509 C44.4909354,63.4818243 44.5097735,64.7090208 43.7729032,65.4925806 L35.3312903,73.9341935 C34.761829,74.5016898 33.9069073,74.6709377 33.1641796,74.3632141 C32.4214519,74.0554904 31.9367334,73.3312087 31.9354839,72.5272581 Z M37.2580645,77.8498387 C37.2580645,77.3175806 37.4656452,76.8190323 37.84,76.4429032 L46.2816129,68.0012903 C47.0651728,67.2644201 48.2923692,67.2832581 49.0529426,68.0438316 C49.813516,68.804405 49.8323541,70.0316014 49.0954839,70.8151613 L40.653871,79.2567742 C40.0844096,79.8242704 39.2294879,79.9935183 38.4867602,79.6857947 C37.7440326,79.3780711 37.2593141,78.6537894 37.2580645,77.8498387 Z M42.5806452,83.1724194 C42.5806452,82.6401613 42.7882258,82.1416129 43.1625806,81.7654839 L51.6041935,73.323871 C52.3877534,72.5870007 53.6149499,72.6058388 54.3755233,73.3664122 C55.1360967,74.1269856 55.1549347,75.3541821 54.4180645,76.1377419 L45.9764516,84.5793548 C45.4069902,85.1468511 44.5520685,85.316099 43.8093409,85.0083753 C43.0666132,84.7006517 42.5818947,83.97637 42.5806452,83.1724194 Z M47.9032258,88.495 C47.9032258,87.9627419 48.1108065,87.4641935 48.4851613,87.0880645 L56.9267742,78.6464516 C57.7103341,77.9095814 58.9375305,77.9284194 59.6981039,78.6889928 C60.4586773,79.4495662 60.4775154,80.6767627 59.7406452,81.4603226 L51.2990323,89.9019355 C50.7295709,90.4694317 49.8746492,90.6386796 49.1319215,90.330956 C48.3891938,90.0232323 47.9044754,89.2989507 47.9032258,88.495 Z M78.7990323,72.1333871 L59.7140323,91.2183871 C58.4241935,92.5082258 56.2241935,92.5437097 54.8651613,91.355 L62.251129,83.9690323 C63.2917155,82.9321061 63.8748849,81.5224075 63.8709677,80.0533871 C63.8650826,77.0763154 61.5041952,74.6378033 58.528871,74.5356452 C58.4255352,71.6399478 56.1019876,69.3164002 53.2062903,69.2130645 C53.1029546,66.3173672 50.779407,63.9938196 47.8837097,63.8904839 C47.7806446,60.9155625 45.3426661,58.5551917 42.3659677,58.5483871 C40.8862903,58.5483871 39.4953226,59.125 38.4503226,60.17 L31.9354839,66.6848387 L24.8387097,59.5880645 L24.8387097,55.7345161 L47.9032258,32.67 L50.1972581,34.9640323 C50.5295739,35.2972783 50.9809894,35.4843571 51.4516129,35.483871 L57.813871,35.483871 L59.5827419,37.2527419 L46.5424194,50.1919355 C46.2061496,50.5259172 46.0174843,50.980557 46.0184842,51.4544981 C46.019484,51.9284391 46.210066,52.3822788 46.5477419,52.7148387 C51.2120968,57.31 58.7772581,57.2816129 63.406129,52.6491935 L63.8709677,52.186129 L78.7990323,67.1141935 C79.4696774,67.7848387 79.8387097,68.6754839 79.8387097,69.6246774 C79.8387097,70.573871 79.4696774,71.4627419 78.7990323,72.1333871 Z" id="Shape"></path>
                <path d="M12.9462903,74.4079032 L9.83258065,76.111129 C10.4162903,77.1774194 11.0479032,78.2401613 11.7096774,79.2674194 L14.693871,77.3477419 C14.0762107,76.3891114 13.4933054,75.4085286 12.9462903,74.4079032 Z" id="Shape"></path>
                <path d="M37.0185484,99.6724194 C38.1558065,100.098226 39.3285484,100.488548 40.5066129,100.832742 L41.5037097,97.4280645 C40.4105596,97.107738 39.3293673,96.7479324 38.2622581,96.3493548 L37.0185484,99.6724194 Z" id="Shape"></path>
                <path d="M24.1591935,92.6395161 C25.135,93.3722581 26.1516129,94.0783871 27.1770968,94.7383871 L29.0967742,91.7541935 C28.1382748,91.136614 27.2020893,90.4850715 26.29,89.8008065 L24.1591935,92.6395161 Z" id="Shape"></path>
                <path d="M30.3369355,96.6172581 C31.405,97.2009677 32.5103226,97.7562903 33.6227419,98.2654839 L35.1006452,95.04 C34.0631791,94.5637043 33.0424136,94.0518421 32.0401613,93.5053226 L30.3369355,96.6172581 Z" id="Shape"></path>
                <path d="M18.6112903,87.826129 C19.4735484,88.6901613 20.3783871,89.5329032 21.2991935,90.3312903 L23.6251613,87.6504839 C22.7635849,86.9030217 21.9286048,86.1254428 21.1217742,85.3191935 L18.6112903,87.826129 Z" id="Shape"></path>
                <path d="M16.6419355,80.1527419 L13.8032258,82.2817742 C14.5377419,83.261129 15.3130645,84.2227419 16.1079032,85.14 L18.7887097,82.8140323 C18.0434308,81.951299 17.3274332,81.0636986 16.6419355,80.1527419 Z" id="Shape"></path>
                <path d="M7.21741935,54.8775806 L3.67790323,55.1295161 C3.76306452,56.3448387 3.89435484,57.5725806 4.06645161,58.7808065 L7.57935484,58.2804839 C7.41967742,57.153871 7.29725806,56.0095161 7.21741935,54.8775806 Z" id="Shape"></path>
                <path d="M7.21741935,48.0380645 L3.67790323,47.786129 C3.59098538,49.006019 3.54778565,50.2286306 3.5483871,51.4516129 L3.5483809,51.4569355 L7.09677419,51.4516129 C7.09677419,50.3090323 7.13758065,49.1593548 7.21741935,48.0380645 Z" id="Shape"></path>
                <path d="M8.18258065,61.6425806 L4.71580645,62.3966129 C4.97483871,63.5906452 5.28,64.7882258 5.62241935,65.9556452 L9.02709677,64.9585484 C8.70771608,63.863219 8.42604471,62.7572446 8.18258065,61.6425806 Z" id="Shape"></path>
                <path d="M10.1058065,68.2 L6.78096774,69.4419355 C7.20677419,70.5809677 7.67870968,71.7217742 8.18612903,72.8306452 L11.4133871,71.3562903 C10.9404008,70.3199606 10.5042672,69.267204 10.1058065,68.2 Z" id="Shape"></path>
                <path d="M97.0501613,74.415 L100.163871,76.1182258 C100.747581,75.0501613 101.302903,73.9448387 101.812097,72.8324194 L98.5866129,71.3545161 C98.1104328,72.3923421 97.5979667,73.413132 97.0501613,74.415 Z" id="Shape"></path>
                <path d="M93.3474194,80.1651613 L96.186129,82.2959677 C96.9170968,81.3237097 97.6232258,80.3070968 98.2867742,79.2780645 L95.3025806,77.3566129 C94.6851613,78.3146774 94.0269355,79.2585484 93.3474194,80.1651613 Z" id="Shape"></path>
                <path d="M88.8658065,85.3298387 L91.3727419,87.8403226 C92.2367742,86.9780645 93.0795161,86.0732258 93.8779032,85.1524194 L91.1970968,82.8264516 C90.450566,83.6888648 89.6729566,84.5238776 88.8658065,85.3298387 Z" id="Shape"></path>
                <path d="M99.8977419,68.1929032 L103.220806,69.4348387 C103.648387,68.2940323 104.036935,67.1195161 104.381129,65.9467742 L100.976452,64.9496774 C100.655323,66.0408065 100.293387,67.1319355 99.8977419,68.1929032 Z" id="Shape"></path>
                <path d="M101.817419,61.6372581 L105.285968,62.3877419 C105.543226,61.2008065 105.761452,59.9854839 105.933548,58.7719355 L102.422419,58.2716129 C102.260636,59.4002992 102.058842,60.5228876 101.817419,61.6372581 Z" id="Shape"></path>
                <path d="M83.6975806,89.8114516 L85.8266129,92.6501613 C86.8061961,91.915832 87.7595326,91.1471268 88.6848387,90.3454839 L86.3606452,87.6629032 C85.5054839,88.4045161 84.6095161,89.1266129 83.6975806,89.8114516 Z" id="Shape"></path>
                <path d="M44.0674194,101.739355 C45.2543548,101.996613 46.4696774,102.214839 47.6832258,102.386935 L48.1835484,98.8758065 C47.055022,98.7137523 45.9324638,98.5125558 44.8179032,98.2725806 L44.0674194,101.739355 Z" id="Shape"></path>
                <path d="M102.784355,54.8704839 L106.323871,55.1206452 C106.409032,53.908871 106.451613,52.6740323 106.451613,51.4516129 L102.903226,51.4516129 C102.903226,52.5924194 102.864194,53.743871 102.784355,54.8704839 Z" id="Shape"></path>
                <path d="M58.4224194,99.2341935 L58.6743548,102.77371 C59.895679,102.687588 61.1135479,102.55799 62.3256452,102.385161 L61.8253226,98.8722581 C60.7004839,99.0319355 59.556129,99.1543548 58.4224194,99.2341935 Z" id="Shape"></path>
                <path d="M51.5846774,99.2359677 L51.3345161,102.775484 C52.5445161,102.860645 53.7793548,102.903226 55.0017742,102.903226 L55,99.3548387 C53.8591935,99.3548387 52.7112903,99.3158065 51.5846774,99.2359677 Z" id="Shape"></path>
                <path d="M77.9545161,93.5070968 L79.6577419,96.6208065 C80.7309915,96.0330213 81.7831523,95.4075241 82.8122581,94.7454839 L80.8925806,91.7612903 C79.9416129,92.3733871 78.9533871,92.9606452 77.9545161,93.5070968 Z" id="Shape"></path>
                <path d="M71.7466129,96.3458065 L72.9867742,99.6706452 C74.1258065,99.2448387 75.2666129,98.7729032 76.3754839,98.2654839 L74.901129,95.0382258 C73.8667742,95.5101613 72.8058065,95.9519355 71.7466129,96.3458065 Z" id="Shape"></path>
                <path d="M65.1874194,98.2708065 L65.9414516,101.737581 C67.1382025,101.477809 68.325302,101.175412 69.5004839,100.830968 L68.5033871,97.4262903 C67.4158065,97.743871 66.3016129,98.0277419 65.1874194,98.2708065 Z" id="Shape"></path>
                <path d="M78.9320968,6.23806452 C77.8742207,5.62052749 76.7948365,5.04059517 75.6959677,4.49935484 L74.1329032,7.68580645 C75.1175806,8.1683871 76.1306452,8.71306452 77.1437097,9.30387097 L78.9320968,6.23806452 Z" id="Shape"></path>
                <path d="M55,3.5483871 C55.9367742,3.5483871 56.8522581,3.56967742 57.7464516,3.61225806 L57.9132258,0.0674193548 C56.9428086,0.0222470635 55.971468,-0.000232196114 55,6.85719398e-15 L54.2583871,0.00532258065 L54.3098387,3.55370968 L55,3.5483871 Z" id="Shape"></path>
                <path d="M72.3143548,3.01080645 C71.1643777,2.56119648 69.9952448,2.16221138 68.8103226,1.815 L67.815,5.22145161 C68.8883871,5.53548387 69.9670968,5.90274194 71.0209677,6.31435484 L72.3143548,3.01080645 Z" id="Shape"></path>
                <path d="M65.2140323,0.935 C64.0073562,0.696327565 62.791664,0.505746811 61.5698387,0.363709677 L61.1582258,3.88725806 C62.3043548,4.02209677 63.4362903,4.19951613 64.5220968,4.41596774 L65.2140323,0.935 Z" id="Shape"></path>
                <path d="M37.611129,6.80048387 L36.3195161,3.49516129 C35.1822581,3.93870968 34.0485484,4.4283871 32.9485484,4.95177419 L34.4690323,8.15774194 C35.5001837,7.66867361 36.5481953,7.21597517 37.611129,6.80048387 Z" id="Shape"></path>
                <path d="M44.1383871,4.785 L43.3364516,1.32887097 C42.1459677,1.60564516 40.9519355,1.92677419 39.7898387,2.28693548 L40.8383871,5.67741935 C41.9272209,5.34009495 43.0279463,5.04242565 44.1383871,4.785 Z" id="Shape"></path>
                <path d="M50.8909677,3.72225806 L50.591129,0.186290323 C49.3722581,0.290967742 48.1445161,0.438225806 46.9433871,0.628064516 L47.4969355,4.13387097 C48.6228825,3.95533024 49.7549834,3.81803416 50.8909677,3.72225806 Z" id="Shape"></path>
            </g>
        </g>
    </g>
</svg>