<?xml version="1.0" encoding="UTF-8"?>
<svg width="154px" height="154px" viewBox="0 0 154 154" version="1.1" xmlns="http://www.w3.org/2000/svg" xmlns:xlink="http://www.w3.org/1999/xlink">
    <!-- Generator: Sketch 48.2 (47327) - http://www.bohemiancoding.com/sketch -->
    <title>feedback_big</title>
    <desc>Created with Sketch.</desc>
    <defs>
        <linearGradient x1="50%" y1="0%" x2="50%" y2="100%" id="linearGradient-1">
            <stop stop-color="#ADC2FF" offset="0%"></stop>
            <stop stop-color="#4169E1" offset="77.2773282%"></stop>
            <stop stop-color="#314FA8" offset="100%"></stop>
        </linearGradient>
    </defs>
    <g id="assets" stroke="none" stroke-width="1" fill="none" fill-rule="evenodd">
        <g id="feedback_big" transform="translate(2.000000, 2.000000)">
            <circle id="Oval-2" stroke="#4169E1" stroke-width="3" cx="75" cy="75" r="75"></circle>
            <g id="ic_feedback_48px" transform="translate(27.090909, 23.090909)" fill="url(#linearGradient-1)" fill-rule="nonzero">
                <g id="rating-feedback-bouce-rate" transform="translate(0.000000, -0.000000)">
                    <path d="M94.4,70.4 L72,70.4 C71.1163444,70.4 70.4,71.1163444 70.4,72 L70.4,75.2 L67.2,75.2 L67.2,73.6 C67.2005647,73.3713742 67.1514306,73.1453573 67.056,72.9376 L59.056,55.3376 C58.797001,54.7661741 58.2273816,54.3993642 57.6,54.4 L52.8,54.4 L52.8,41.6 L91.2,41.6 C92.0836556,41.6 92.8,40.8836556 92.8,40 L92.8,1.6 C92.8,0.7163444 92.0836556,5.41083001e-17 91.2,0 L1.6,0 C0.7163444,-5.41083001e-17 1.082166e-16,0.7163444 0,1.6 L0,40 C1.082166e-16,40.8836556 0.7163444,41.6 1.6,41.6 L38.4,41.6 L38.4,72 L35.2,72 C34.3163444,72 33.6,72.7163444 33.6,73.6 L33.6,100.8 C33.6,101.683656 34.3163444,102.4 35.2,102.4 L94.4,102.4 C95.2836556,102.4 96,101.683656 96,100.8 L96,72 C96,71.1163444 95.2836556,70.4 94.4,70.4 Z M3.2,3.2 L89.6,3.2 L89.6,38.4 L3.2,38.4 L3.2,3.2 Z M41.6,41.6 L49.6,41.6 L49.6,72 L41.6,72 L41.6,41.6 Z M36.8,75.2 L51.2,75.2 C52.0836556,75.2 52.8,74.4836556 52.8,73.6 L52.8,57.6 L56.5696,57.6 L64,73.9472 L64,99.2 L36.8,99.2 L36.8,75.2 Z M67.2,78.4016 L70.4,78.4016 L70.4,99.2 L67.2,99.2 L67.2,78.4016 Z M92.8,76.8 L89.6,76.8 L89.6,80 L92.8,80 L92.8,83.2 L89.6,83.2 L89.6,86.4 L92.8,86.4 L92.8,89.6 L89.6,89.6 L89.6,92.8 L92.8,92.8 L92.8,96 L89.6,96 L89.6,99.2 L86.4,99.2 L86.4,96 L83.2,96 L83.2,99.2 L80,99.2 L80,96 L76.8,96 L76.8,99.2 L73.6,99.2 L73.6,96 L76.8,96 L76.8,92.8 L73.6,92.8 L73.6,89.6 L76.8,89.6 L76.8,86.4 L73.6,86.4 L73.6,83.2 L76.8,83.2 L76.8,80 L73.6,80 L73.6,76.8 L76.8,76.8 L76.8,73.6 L73.6,73.6 L92.8,73.6 L92.8,76.8 Z" id="Shape"></path>
                    <path d="M28.4797051,15.9288 L23.0685051,15.9288 L20.3101051,10.4136 C19.7661051,9.3288 17.9917051,9.3288 17.4477051,10.4136 L14.6909051,15.9288 L9.27970508,15.9288 C8.63267164,15.9289382 8.0494106,16.318764 7.80182031,16.9165527 C7.55423003,17.5143414 7.69105241,18.2024092 8.14850508,18.66 L12.8157051,23.3272 L10.9405051,29.8888 C10.7512605,30.5636574 11.0223356,31.2832175 11.6098159,31.6654646 C12.1972962,32.0477116 12.9649811,32.0040258 13.5053051,31.5576 L18.8797051,27.0776 L24.2541051,31.5576 C24.7933885,32.0090542 25.5642457,32.0554167 26.1537506,31.6718524 C26.7432554,31.2882881 27.0131685,30.5647433 26.8189051,29.8888 L24.9437051,23.3272 L29.6109051,18.66 C30.0683577,18.2024092 30.2051801,17.5143414 29.9575898,16.9165527 C29.7099996,16.318764 29.1267385,15.9289382 28.4797051,15.9288 Z M22.0157051,21.7304 C21.6050097,22.1414894 21.4489094,22.7426285 21.6077051,23.3016 L22.3149051,25.7752 L19.9037051,23.7656 C19.310364,23.2683911 18.4458462,23.2683911 17.8525051,23.7656 L15.4413051,25.7752 L16.1485051,23.3016 C16.3080081,22.7426368 16.1518145,22.141138 15.7405051,21.7304 L13.1421051,19.1288 L15.6797051,19.1288 C16.2861051,19.1288 16.8397051,18.7864 17.1117051,18.244 L18.8797051,14.7064 L20.6477051,18.244 C20.9187844,18.7864826 21.4732635,19.1290826 22.0797051,19.1288 L24.6173051,19.1288 L22.0157051,21.7304 Z" id="Shape"></path>
                    <path d="M41.3453051,31.5576 L46.7197051,27.0776 L52.0941051,31.5576 C52.6333885,32.0090542 53.4042457,32.0554167 53.9937506,31.6718524 C54.5832554,31.2882881 54.8531685,30.5647433 54.6589051,29.8888 L52.7837051,23.3272 L57.4509051,18.66 C57.9083577,18.2024092 58.0451801,17.5143414 57.7975898,16.9165527 C57.5499996,16.318764 56.9667385,15.9289382 56.3197051,15.9288 L50.9085051,15.9288 L48.1501051,10.4136 C47.6061051,9.3288 45.8317051,9.3288 45.2877051,10.4136 L42.5309051,15.9288 L37.1197051,15.9288 C36.4726716,15.9289382 35.8894106,16.318764 35.6418203,16.9165527 C35.39423,17.5143414 35.5310524,18.2024092 35.9885051,18.66 L40.6557051,23.3272 L38.7805051,29.8888 C38.5912605,30.5636574 38.8623356,31.2832175 39.4498159,31.6654646 C40.0372962,32.0477116 40.8049811,32.0040258 41.3453051,31.5576 Z M43.5197051,19.1288 C44.1261051,19.1288 44.6797051,18.7864 44.9517051,18.244 L46.7197051,14.7064 L48.4877051,18.244 C48.7587844,18.7864826 49.3132635,19.1290826 49.9197051,19.1288 L52.4573051,19.1288 L49.8557051,21.7304 C49.4450097,22.1414894 49.2889094,22.7426285 49.4477051,23.3016 L50.1549051,25.7752 L47.7437051,23.7656 C47.150364,23.2683911 46.2858462,23.2683911 45.6925051,23.7656 L43.2813051,25.7752 L43.9885051,23.3016 C44.1480081,22.7426368 43.9918145,22.141138 43.5805051,21.7304 L40.9821051,19.1288 L43.5197051,19.1288 Z" id="Shape"></path>
                    <path d="M67.5357051,23.3288 L65.6605051,29.8904 C65.4712605,30.5652574 65.7423356,31.2848175 66.3298159,31.6670646 C66.9172962,32.0493116 67.6849811,32.0056258 68.2253051,31.5592 L73.5997051,27.0792 L78.9741051,31.5592 C79.5149724,32.0072074 80.284171,32.0519207 80.8733051,31.6696 C81.4605051,31.2872 81.7309051,30.5656 81.5389051,29.8888 L79.6637051,23.3272 L84.3309051,18.66 C84.7883577,18.2024092 84.9251801,17.5143414 84.6775898,16.9165527 C84.4299996,16.318764 83.8467385,15.9289382 83.1997051,15.9288 L77.7885051,15.9288 L75.0301051,10.4136 C74.4861051,9.3288 72.7117051,9.3288 72.1677051,10.4136 L69.4109051,15.9288 L63.9997051,15.9288 C63.3526716,15.9289382 62.7694106,16.318764 62.5218203,16.9165527 C62.27423,17.5143414 62.4110524,18.2024092 62.8685051,18.66 L67.5357051,23.3288 Z M70.3997051,19.1288 C71.0061051,19.1288 71.5597051,18.7864 71.8317051,18.244 L73.5997051,14.7064 L75.3677051,18.244 C75.6387844,18.7864826 76.1932635,19.1290826 76.7997051,19.1288 L79.3373051,19.1288 L76.7357051,21.7304 C76.3250097,22.1414894 76.1689094,22.7426285 76.3277051,23.3016 L77.0349051,25.7752 L74.6237051,23.7656 C74.030364,23.2683911 73.1658462,23.2683911 72.5725051,23.7656 L70.1613051,25.7752 L70.8685051,23.3016 C71.0280081,22.7426368 70.8718145,22.141138 70.4605051,21.7304 L67.8621051,19.1288 L70.3997051,19.1288 Z" id="Shape"></path>
                    <polygon id="Shape" points="4.8 46.08 8 46.08 8 58.88 4.8 58.88"></polygon>
                    <polygon id="Shape" points="11.52 52.8 14.72 52.8 14.72 65.6 11.52 65.6"></polygon>
                    <polygon id="Shape" points="21.12 48.96 24.32 48.96 24.32 61.76 21.12 61.76"></polygon>
                    <polygon id="Shape" points="79.68 72.96 82.88 72.96 82.88 76.16 79.68 76.16"></polygon>
                    <polygon id="Shape" points="86.4 72.96 89.6 72.96 89.6 76.16 86.4 76.16"></polygon>
                    <polygon id="Shape" points="76.8 76.8 80 76.8 80 80 76.8 80"></polygon>
                    <polygon id="Shape" points="83.52 76.8 86.72 76.8 86.72 80 83.52 80"></polygon>
                    <polygon id="Shape" points="79.68 79.68 82.88 79.68 82.88 82.88 79.68 82.88"></polygon>
                    <polygon id="Shape" points="86.4 79.68 89.6 79.68 89.6 82.88 86.4 82.88"></polygon>
                    <polygon id="Shape" points="76.8 82.56 80 82.56 80 85.76 76.8 85.76"></polygon>
                    <polygon id="Shape" points="83.52 82.56 86.72 82.56 86.72 85.76 83.52 85.76"></polygon>
                    <polygon id="Shape" points="79.68 86.4 82.88 86.4 82.88 89.6 79.68 89.6"></polygon>
                    <polygon id="Shape" points="86.4 86.4 89.6 86.4 89.6 89.6 86.4 89.6"></polygon>
                    <polygon id="Shape" points="76.8 89.28 80 89.28 80 92.48 76.8 92.48"></polygon>
                    <polygon id="Shape" points="83.52 89.28 86.72 89.28 86.72 92.48 83.52 92.48"></polygon>
                    <polygon id="Shape" points="79.68 92.16 82.88 92.16 82.88 95.36 79.68 95.36"></polygon>
                    <polygon id="Shape" points="86.4 92.16 89.6 92.16 89.6 95.36 86.4 95.36"></polygon>
                </g>
            </g>
        </g>
    </g>
</svg>