<?xml version="1.0" encoding="UTF-8"?>
<svg width="94px" height="94px" viewBox="0 0 94 94" version="1.1" xmlns="http://www.w3.org/2000/svg" xmlns:xlink="http://www.w3.org/1999/xlink">
    <!-- Generator: Sketch 48.2 (47327) - http://www.bohemiancoding.com/sketch -->
    <title>modal_welldone</title>
    <desc>Created with Sketch.</desc>
    <defs>
        <circle id="path-1" cx="45" cy="45" r="45"></circle>
    </defs>
    <g id="assets" stroke="none" stroke-width="1" fill="none" fill-rule="evenodd">
        <g id="modal_welldone" transform="translate(2.000000, 2.000000)">
            <g id="Oval">
                <use fill="#FFFFFF" fill-rule="evenodd" xlink:href="#path-1"></use>
                <circle stroke="#333333" stroke-width="2" cx="45" cy="45" r="46"></circle>
            </g>
            <g id="prize-award-win-trophies-goal" transform="translate(15.000000, 15.000000)" fill="#333333" fill-rule="nonzero">
                <path d="M61,34.5 L41.125,34.5 C40.6023019,34.5 40.1785714,34.9228422 40.1785714,35.4444444 L40.1785714,36.3888889 L38.2857143,36.3888889 L38.2857143,33.5555556 C38.2858209,33.4331463 38.2620327,33.3118884 38.2156786,33.1985556 L35.4331786,26.4117778 C39.6040893,23.2885 42.0714286,18.2593333 42.0714286,12.7777778 L42.0714286,9.94444444 C42.0714286,9.42284218 41.6476981,9 41.125,9 L8.94642857,9 C8.4237305,9 8,9.42284218 8,9.94444444 L8,12.7777778 C8,21.8331111 15.1370179,29.2356667 24.0892857,29.7296111 L24.0892857,32.6111111 L15.5714286,32.6111111 C15.0487305,32.6111111 14.625,33.0339533 14.625,33.5555556 L14.625,53.3888889 C14.625,53.9104912 15.0487305,54.3333333 15.5714286,54.3333333 L24.0892857,54.3333333 L24.0892857,58.1111111 L13.6785714,58.1111111 L13.6785714,60 L36.3928571,60 L36.3928571,58.1111111 L25.9821429,58.1111111 L25.9821429,54.3333333 L37.3392857,54.3333333 C37.8619838,54.3333333 38.2857143,53.9104912 38.2857143,53.3888889 L40.1785714,53.3888889 L40.1785714,54.3333333 C40.1785714,54.8549356 40.6023019,55.2777778 41.125,55.2777778 L61,55.2777778 L61,53.3888889 L55.3214286,53.3888889 L55.3214286,51.5 L53.4285714,51.5 L53.4285714,53.3888889 L51.5357143,53.3888889 L51.5357143,51.5 L49.6428571,51.5 L49.6428571,53.3888889 L47.75,53.3888889 L47.75,51.5 L45.8571429,51.5 L45.8571429,53.3888889 L43.9642857,53.3888889 L43.9642857,51.5 L42.0714286,51.5 L42.0714286,49.6111111 L43.9642857,49.6111111 L43.9642857,47.7222222 L42.0714286,47.7222222 L42.0714286,36.3888889 L61,36.3888889 L61,34.5 Z M18.4107143,10.8888889 L18.4107143,12.7777778 L20.3035714,12.7777778 L20.3035714,10.8888889 L22.1964286,10.8888889 L22.1964286,12.7777778 L20.3035714,12.7777778 L20.3035714,14.6666667 L22.1964286,14.6666667 L22.1964286,16.5555556 L20.3035714,16.5555556 L20.3035714,18.0534444 L20.0262679,17.7767222 C19.8491578,17.5989691 19.6083341,17.4990226 19.3571429,17.4990226 C19.1059516,17.4990226 18.8651279,17.5989691 18.6880179,17.7767222 L18.4107143,18.0534444 L18.4107143,16.5555556 L16.5178571,16.5555556 L16.5178571,14.6666667 L18.4107143,14.6666667 L18.4107143,12.7777778 L16.5178571,12.7777778 L16.5178571,10.8888889 L18.4107143,10.8888889 Z M22.1964286,18.4444444 L22.1964286,19.9423333 L20.6953929,18.4444444 L22.1964286,18.4444444 Z M16.5178571,18.4444444 L18.0188929,18.4444444 L16.5178571,19.9423333 L16.5178571,18.4444444 Z M9.89285714,12.7777778 L9.89285714,10.8888889 L14.625,10.8888889 L14.625,22.2222222 C14.6250817,22.6041517 14.8556707,22.9484377 15.2092734,23.0945848 C15.5628761,23.2407318 15.9698804,23.1599686 16.2405536,22.8899444 L19.3571429,19.7798889 L22.4737321,22.8899444 C22.7444053,23.1599686 23.1514097,23.2407318 23.5050123,23.0945848 C23.858615,22.9484377 24.089204,22.6041517 24.0892857,22.2222222 L24.0892857,10.8888889 L40.1785714,10.8888889 L40.1785714,12.7777778 C40.1785714,17.4867778 38.1465893,21.8132778 34.6892857,24.5975 L33.95675,22.8096667 C33.9378214,22.7633889 33.9065893,22.7256111 33.8819821,22.6840556 C33.8602143,22.6481667 33.844125,22.6094444 33.817625,22.5773333 C33.7835536,22.5348333 33.7400179,22.5017778 33.6993214,22.4658889 C33.6699821,22.4403889 33.645375,22.4101667 33.6131964,22.3875 C33.5630357,22.3535 33.5053036,22.3308333 33.4494643,22.3072222 C33.420125,22.2949444 33.393625,22.2751111 33.3623929,22.2656667 C33.2711656,22.2368558 33.176044,22.2222034 33.0803571,22.2222222 L28.8214286,22.2222222 C28.2987305,22.2222222 27.875,22.6450644 27.875,23.1666667 L27.875,27.6291667 C27.0676964,27.7897222 26.0143214,27.8888889 25.0357143,27.8888889 C16.6863214,27.8888889 9.89285714,21.1096667 9.89285714,12.7777778 Z M25.9821429,29.7503889 C26.6163206,29.7170353 27.2482082,29.6492498 27.875,29.5473333 L27.875,32.6111111 L25.9821429,32.6111111 L25.9821429,29.7503889 Z M16.5178571,52.4444444 L16.5178571,49.6111111 L19.3571429,49.6111111 L19.3571429,47.7222222 L16.5178571,47.7222222 L16.5178571,44.8888889 L19.3571429,44.8888889 L19.3571429,43 L16.5178571,43 L16.5178571,40.1666667 L19.3571429,40.1666667 L19.3571429,38.2777778 L16.5178571,38.2777778 L16.5178571,34.5 L28.8214286,34.5 C29.3441266,34.5 29.7678571,34.0771578 29.7678571,33.5555556 L29.7678571,24.1111111 L32.4244821,24.1111111 L33.3103393,26.4665556 C33.3637823,26.6051533 33.4494127,26.7291218 33.5601964,26.8282778 L36.3928571,33.7416111 L36.3928571,52.4444444 L16.5178571,52.4444444 Z M38.2857143,51.5 L38.2857143,38.2777778 L40.1785714,38.2777778 L40.1785714,51.5 L38.2857143,51.5 Z" id="Shape"></path>
                <path d="M42,41 C42,42.654 43.346,44 45,44 C46.654,44 48,42.654 48,41 C48,39.346 46.654,38 45,38 C43.346,38 42,39.346 42,41 Z M46,41 C45.9760723,41.534907 45.5354419,41.9562675 45,41.9562675 C44.4645581,41.9562675 44.0239277,41.534907 44,41 C44.0239277,40.465093 44.4645581,40.0437325 45,40.0437325 C45.5354419,40.0437325 45.9760723,40.465093 46,41 Z" id="Shape"></path>
                <polygon id="Shape" points="49 0 51 0 51 4 49 4"></polygon>
                <polygon id="Shape" points="49 6 51 6 51 10 49 10"></polygon>
                <polygon id="Shape" points="51 4 55 4 55 6 51 6"></polygon>
                <polygon id="Shape" points="45 4 49 4 49 6 45 6"></polygon>
                <polygon id="Shape" points="7 25 9 25 9 29 7 29"></polygon>
                <polygon id="Shape" points="7 31 9 31 9 35 7 35"></polygon>
                <polygon id="Shape" points="8 29 12 29 12 31 8 31"></polygon>
                <polygon id="Shape" points="3 29 7 29 7 31 3 31"></polygon>
                <path d="M6,5 C6,3.346 4.654,2 3,2 C1.346,2 0,3.346 0,5 C0,6.654 1.346,8 3,8 C4.654,8 6,6.654 6,5 Z M2,5 C1.99959556,4.59495158 2.24333302,4.22958066 2.61747172,4.07438845 C2.99161043,3.91919624 3.42240076,4.00477398 3.70881339,4.29118661 C3.99522602,4.57759924 4.08080376,5.00838957 3.92561155,5.38252828 C3.77041934,5.75666698 3.40504842,6.00040444 3,6 C2.448,6 2,5.551 2,5 Z" id="Shape"></path>
                <path d="M39,27 C39,28.654 40.346,30 42,30 C43.654,30 45,28.654 45,27 C45,25.346 43.654,24 42,24 C40.346,24 39,25.346 39,27 Z M42,26 C42.4050484,25.9995956 42.7704193,26.243333 42.9256116,26.6174717 C43.0808038,26.9916104 42.995226,27.4224008 42.7088134,27.7088134 C42.4224008,27.995226 41.9916104,28.0808038 41.6174717,27.9256116 C41.243333,27.7704193 40.9995956,27.4050484 41,27 C41,26.449 41.448,26 42,26 Z" id="Shape"></path>
                <polygon id="Shape" points="43 46 45 46 45 48 43 48"></polygon>
                <polygon id="Shape" points="47 46 49 46 49 48 47 48"></polygon>
                <polygon id="Shape" points="51 46 53 46 53 48 51 48"></polygon>
                <polygon id="Shape" points="45 48 47 48 47 50 45 50"></polygon>
                <polygon id="Shape" points="49 48 51 48 51 50 49 50"></polygon>
                <polygon id="Shape" points="53 48 55 48 55 50 53 50"></polygon>
                <polygon id="Shape" points="43 50 45 50 45 52 43 52"></polygon>
                <polygon id="Shape" points="47 50 49 50 49 52 47 52"></polygon>
                <polygon id="Shape" points="51 50 53 50 53 52 51 52"></polygon>
                <polygon id="Shape" points="18 15 20 15 20 17 18 17"></polygon>
            </g>
        </g>
    </g>
</svg>