<?xml version="1.0" encoding="UTF-8"?>
<svg width="154px" height="154px" viewBox="0 0 154 154" version="1.1" xmlns="http://www.w3.org/2000/svg" xmlns:xlink="http://www.w3.org/1999/xlink">
    <!-- Generator: Sketch 48.2 (47327) - http://www.bohemiancoding.com/sketch -->
    <title>prepare_big</title>
    <desc>Created with Sketch.</desc>
    <defs>
        <linearGradient x1="50%" y1="0%" x2="50%" y2="100%" id="linearGradient-1">
            <stop stop-color="#ADC2FF" offset="0%"></stop>
            <stop stop-color="#4169E1" offset="77.2773282%"></stop>
            <stop stop-color="#314FA8" offset="100%"></stop>
        </linearGradient>
    </defs>
    <g id="assets" stroke="none" stroke-width="1" fill="none" fill-rule="evenodd">
        <g id="prepare_big" transform="translate(2.000000, 2.000000)">
            <circle id="Oval-2" stroke="#4169E1" stroke-width="3" cx="75" cy="75" r="75"></circle>
            <g id="leadership-boss-mentor-help-team" transform="translate(25.000000, 24.000000)" fill="url(#linearGradient-1)" fill-rule="nonzero">
                <path d="M68.4210526,24.5614035 C74.2263158,24.5614035 78.9473684,19.8403509 78.9473684,14.0350877 C78.9473684,8.22982456 74.2263158,3.50877193 68.4210526,3.50877193 C62.6157895,3.50877193 57.8947368,8.22982456 57.8947368,14.0350877 C57.8947368,19.8403509 62.6157895,24.5614035 68.4210526,24.5614035 Z M68.4210526,7.01754386 C72.2912281,7.01754386 75.4385965,10.1649123 75.4385965,14.0350877 C75.4385965,17.9052632 72.2912281,21.0526316 68.4210526,21.0526316 C68.2157895,21.0526316 68.0245614,21.0087719 67.8245614,20.9929825 C69.3143509,19.6730714 70.1696828,17.7798518 70.1754386,15.7894737 L66.6666667,15.7894737 C66.6625,17.4939247 65.434033,18.948844 63.754386,19.2385965 C62.2645964,17.9186854 61.4092646,16.0254658 61.4035088,14.0350877 C61.4035088,10.1649123 64.5508772,7.01754386 68.4210526,7.01754386 Z" id="Shape"></path>
                <path d="M14.0350877,45.6140351 C19.8403509,45.6140351 24.5614035,40.8929825 24.5614035,35.0877193 C24.5614035,29.2824561 19.8403509,24.5614035 14.0350877,24.5614035 C8.22982456,24.5614035 3.50877193,29.2824561 3.50877193,35.0877193 C3.50877193,40.8929825 8.22982456,45.6140351 14.0350877,45.6140351 Z M14.0350877,28.0701754 C17.9052632,28.0701754 21.0526316,31.2175439 21.0526316,35.0877193 C21.0468758,37.0780974 20.1915439,38.971317 18.7017544,40.2912281 C17.0221074,40.0014756 15.7936404,38.5465563 15.7894737,36.8421053 L12.2807018,36.8421053 C12.2807018,38.9140351 13.2,40.7596491 14.6315789,42.045614 C14.4315789,42.0614035 14.2403509,42.1052632 14.0350877,42.1052632 C10.1649123,42.1052632 7.01754386,38.9578947 7.01754386,35.0877193 C7.01754386,31.2175439 10.1649123,28.0701754 14.0350877,28.0701754 Z" id="Shape"></path>
                <path d="M98.8,5.35438596 L88.2736842,1.84561404 C87.7392389,1.66443312 87.1501391,1.75335385 86.6929825,2.08421053 C86.2359803,2.41491212 85.9652312,2.94466693 85.9649123,3.50877193 L85.9649123,26.3157895 L61.4035088,26.3157895 C60.9929825,26.3157895 60.5947368,26.4596491 60.2789474,26.7210526 L49.7526316,35.4929825 C49.5679126,35.6489984 49.4163828,35.8404987 49.3070175,36.0561404 L44.3315789,46.0087719 L33.254386,50.754386 L23.3614035,47.4578947 C23.1823998,47.3993629 22.9953463,47.3691739 22.8070175,47.3684211 L8.77192982,47.3684211 C3.93508772,47.3684211 0,51.3035088 0,56.1403509 L0,75.4385965 C0,76.4075171 0.785465351,77.1929825 1.75438596,77.1929825 L7.01754386,77.1929825 L7.01754386,98.245614 L0,98.245614 L0,101.754386 L24.5614035,101.754386 C25.5303241,101.754386 26.3157895,100.968921 26.3157895,100 L26.3157895,91.2280702 L50.877193,91.2280702 C51.8461136,91.2280702 52.6315789,90.4426048 52.6315789,89.4736842 L52.6315789,80.7017544 L71.9298246,80.7017544 C72.8987452,80.7017544 73.6842105,79.916289 73.6842105,78.9473684 L73.6842105,70.1754386 L98.245614,70.1754386 L98.245614,66.6666667 L94.7368421,66.6666667 L94.7368421,52.6315789 C94.7368421,47.7947368 90.8017544,43.8596491 85.9649123,43.8596491 L78.9473684,43.8596491 L78.9473684,36.8421053 L87.7192982,36.8421053 C92.5561404,36.8421053 96.4912281,32.9070175 96.4912281,28.0701754 L96.4912281,17.5438596 C96.4912281,16.574939 95.7057627,15.7894737 94.7368421,15.7894737 L89.4736842,15.7894737 L89.4736842,11.7912281 L98.8,8.68245614 C99.5158966,8.44336318 99.9986366,7.77318817 99.9986366,7.01842105 C99.9986366,6.26365394 99.5158966,5.59347892 98.8,5.35438596 Z M71.0929825,29.8245614 L70.1754386,32.1192982 L69.2578947,29.8245614 L71.0929825,29.8245614 Z M24.5614035,87.7192982 C23.5924829,87.7192982 22.8070175,88.5047636 22.8070175,89.4736842 L22.8070175,98.245614 L19.2982456,98.245614 L19.2982456,77.1929825 L28.0701754,77.1929825 L28.0701754,87.7192982 L24.5614035,87.7192982 Z M31.5789474,87.7192982 L31.5789474,75.4385965 C31.5789474,74.4696759 30.793482,73.6842105 29.8245614,73.6842105 L17.5438596,73.6842105 C16.574939,73.6842105 15.7894737,74.4696759 15.7894737,75.4385965 L15.7894737,98.245614 L10.5263158,98.245614 L10.5263158,57.8947368 L7.01754386,57.8947368 L7.01754386,73.6842105 L3.50877193,73.6842105 L3.50877193,56.1403509 C3.50877193,53.2385965 5.87017544,50.877193 8.77192982,50.877193 L14.0350877,50.877193 L14.0350877,63.1578947 L17.5438596,63.1578947 L17.5438596,50.877193 L22.522807,50.877193 L32.7789474,54.2947368 C33.1863554,54.4310097 33.6296241,54.4129043 34.0245614,54.2438596 L44.9631579,49.5561404 L46.0280702,51.1526316 L46.5596491,51.9508772 L34.7912281,57.8333333 L23.054386,56.1561404 C22.5507142,56.0844057 22.0407067,56.2348465 21.6566021,56.5684553 C21.2724976,56.902064 21.0521277,57.3859826 21.0526316,57.8947368 L21.0526316,66.6666667 C21.0526316,67.6355873 21.8380969,68.4210526 22.8070175,68.4210526 L31.5789474,68.4210526 C34.4807018,68.4210526 36.8421053,70.7824561 36.8421053,73.6842105 L36.8421053,87.7192982 L31.5789474,87.7192982 Z M50.877193,77.1929825 C49.9082724,77.1929825 49.122807,77.9784478 49.122807,78.9473684 L49.122807,87.7192982 L40.3508772,87.7192982 L40.3508772,73.6842105 C40.3508772,68.8473684 36.4157895,64.9122807 31.5789474,64.9122807 L24.5614035,64.9122807 L24.5614035,59.9175439 L34.8385965,61.3859649 C35.1921545,61.4363061 35.5526557,61.3775487 35.8719298,61.2175439 L49.9070175,54.2 C50.1557256,54.0703553 50.3689408,53.8818345 50.5280702,53.6508772 C50.5421053,53.6315789 50.5684211,53.6245614 50.5824561,53.6052632 L57.4333333,43.3298246 L61.4035088,40.3508772 L61.4035088,77.1929825 L50.877193,77.1929825 Z M82.4561404,66.6666667 L73.6842105,66.6666667 L73.6842105,56.1403509 L82.4561404,56.1403509 L82.4561404,66.6666667 Z M92.9824561,28.0701754 C92.9824561,30.9719298 90.6210526,33.3333333 87.7192982,33.3333333 L77.1929825,33.3333333 C76.2240618,33.3333333 75.4385965,34.1187987 75.4385965,35.0877193 L75.4385965,45.6140351 C75.4385965,46.5829557 76.2240618,47.3684211 77.1929825,47.3684211 L85.9649123,47.3684211 C88.8666667,47.3684211 91.2280702,49.7298246 91.2280702,52.6315789 L91.2280702,66.6666667 L85.9649123,66.6666667 L85.9649123,54.3859649 C85.9649123,53.4170443 85.1794469,52.6315789 84.2105263,52.6315789 L71.9298246,52.6315789 C70.9609039,52.6315789 70.1754386,53.4170443 70.1754386,54.3859649 L70.1754386,77.1929825 L64.9122807,77.1929825 L64.9122807,36.8421053 C64.9109568,36.178191 64.5353379,35.5717795 63.9415137,35.2748674 C63.3476895,34.9779553 62.6371889,35.041307 62.1052632,35.4385965 L55.0877193,40.7017544 C54.927461,40.8195663 54.78961,40.9651417 54.6807018,41.1315789 L49.122807,49.4684211 L47.6385965,47.2403509 L52.2807018,37.954386 L62.0385965,29.8245614 L65.4789474,29.8245614 L68.545614,37.4929825 C68.8140965,38.1573051 69.458914,38.5921923 70.1754386,38.5921923 C70.8919632,38.5921923 71.5367807,38.1573051 71.8052632,37.4929825 L74.8719298,29.8245614 L87.7192982,29.8245614 C88.6882189,29.8245614 89.4736842,29.0390961 89.4736842,28.0701754 L89.4736842,19.2982456 L92.9824561,19.2982456 L92.9824561,28.0701754 Z M89.4736842,8.09122807 L89.4736842,5.94385965 L92.6982456,7.01754386 L89.4736842,8.09122807 Z" id="Shape"></path>
                <polygon id="Shape" points="42.1052632 10.5263158 45.6140351 10.5263158 45.6140351 14.0350877 42.1052632 14.0350877"></polygon>
                <polygon id="Shape" points="35.0877193 10.5263158 38.5964912 10.5263158 38.5964912 14.0350877 35.0877193 14.0350877"></polygon>
                <polygon id="Shape" points="28.0701754 10.5263158 31.5789474 10.5263158 31.5789474 14.0350877 28.0701754 14.0350877"></polygon>
            </g>
        </g>
    </g>
</svg>