<?xml version="1.0" encoding="UTF-8"?>
<svg width="154px" height="154px" viewBox="0 0 154 154" version="1.1" xmlns="http://www.w3.org/2000/svg" xmlns:xlink="http://www.w3.org/1999/xlink">
    <!-- Generator: Sketch 48.2 (47327) - http://www.bohemiancoding.com/sketch -->
    <title>prep_email_big</title>
    <desc>Created with Sketch.</desc>
    <defs>
        <linearGradient x1="50%" y1="0%" x2="50%" y2="100%" id="linearGradient-1">
            <stop stop-color="#ADC2FF" offset="0%"></stop>
            <stop stop-color="#4169E1" offset="77.2773282%"></stop>
            <stop stop-color="#314FA8" offset="100%"></stop>
        </linearGradient>
    </defs>
    <g id="assets" stroke="none" stroke-width="1" fill="none" fill-rule="evenodd">
        <g id="prep_email_big" transform="translate(2.000000, 2.000000)">
            <circle id="Oval-2" stroke="#4169E1" stroke-width="3" cx="75" cy="75" r="75"></circle>
            <g id="online-work-email-employee-tech" transform="translate(23.000000, 23.000000)" fill="url(#linearGradient-1)" fill-rule="nonzero">
                <path d="M3.385,91.6666667 L3.33333333,91.6666667 L3.33333333,100 L6.66666667,100 L6.66666667,93.165 C7.205,93.275 7.76333333,93.3333333 8.33333333,93.3333333 L15,93.3333333 L15,95 C15,97.7566667 17.2433333,100 20,100 L90.3616667,100 C92.9014275,100.000575 95.0378572,98.0964284 95.3283333,95.5733333 L99.5583333,58.9083333 C99.7212137,57.4921177 99.2722512,56.0736698 98.3241594,55.0090954 C97.3760676,53.944521 96.0188838,53.3349195 94.5933333,53.3333333 L59.135,53.3333333 L48.3033333,39.7933333 C46.7806056,37.8863397 44.4944561,36.7478384 42.055,36.6816667 C42.87,34.6083333 43.3333333,32.3583333 43.3333333,30 L43.3333333,14.85 C48.055,14.0533333 51.6666667,9.94666667 51.6666667,5 L51.6666667,1.66666667 C51.6666667,0.746192084 50.9204746,0 50,0 L18.3333333,0 C11.9,0 6.66666667,5.235 6.66666667,11.6666667 L6.66666667,30 C6.66666667,32.3683333 7.13333333,34.625 7.95333333,36.705 C3.53833333,36.9083333 0,40.535 0,45 L0,85 C0,87.735 1.34333333,90.1466667 3.385,91.6666667 Z M95.8366667,57.225 C96.1566667,57.585 96.3033333,58.045 96.2483333,58.525 L92.0166667,95.1916667 C91.9200831,96.0325155 91.2080442,96.6671121 90.3616667,96.6666667 L20,96.6666667 C19.0816667,96.6666667 18.3333333,95.92 18.3333333,95 L18.3333333,93.3333333 L40.7683333,93.3333333 C41.6149904,93.3329263 42.3268145,92.6978043 42.4233333,91.8566667 L46.3133333,58.1416667 C46.4133333,57.3016667 47.1233333,56.6666667 47.9716667,56.6666667 L94.5933333,56.6666667 C95.075,56.6666667 95.5166667,56.865 95.8366667,57.225 Z M36.94,39.0433333 L36.815,39.21 C36.0401322,40.201603 35.1442915,41.0924047 34.1483333,41.8616667 C34.1066667,41.895 34.0633333,41.925 34.02,41.9566667 C33.535,42.3233333 33.0316667,42.6616667 32.5066667,42.9666667 L32.4666667,42.9916667 C31.380862,43.6157818 30.2213233,44.1017691 29.015,44.4383333 C28.9166667,44.4666667 28.8166667,44.49 28.7166667,44.515 C28.2333333,44.64 27.74,44.7366667 27.2433333,44.8133333 C27.1033333,44.835 26.965,44.86 26.825,44.8766667 C26.2216667,44.9516667 25.6133333,45 25,45 C24.3866667,45 23.7783333,44.9516667 23.1766667,44.8783333 C23.035,44.8616667 22.8983333,44.835 22.7583333,44.815 C22.2625646,44.7401297 21.7708418,44.6405613 21.285,44.5166667 L20.9866667,44.44 C19.7805944,44.102714 18.6211433,43.6167634 17.535,42.9933333 L17.495,42.9683333 C16.9708619,42.6621526 16.4655144,42.3248832 15.9816667,41.9583333 L15.8533333,41.8633333 C14.8569934,41.0945067 13.9611013,40.2036539 13.1866667,39.2116667 L13.0616667,39.045 C12.7059271,38.5784908 12.3786655,38.0909379 12.0816667,37.585 C10.7200124,35.2891443 10.0010032,32.6692798 10,30 L10,28.2 C15.645,27.3866667 20,22.5316667 20,16.6666667 L20,15 L40,15 L40,30 C39.9990387,32.6685371 39.2806304,35.2877341 37.92,37.5833333 C37.6214378,38.0882872 37.2942367,38.57575 36.94,39.0433333 Z M10,11.6666667 C10,7.07166667 13.7383333,3.33333333 18.3333333,3.33333333 L48.3333333,3.33333333 L48.3333333,5 C48.3333333,8.67666667 45.3433333,11.6666667 41.6666667,11.6666667 L18.3333333,11.6666667 C17.4128588,11.6666667 16.6666667,12.4128588 16.6666667,13.3333333 L16.6666667,16.6666667 C16.661523,20.6247716 13.8771029,24.0349901 10,24.8316667 L10,11.6666667 Z M3.33333333,45 C3.33333333,42.2433333 5.57666667,40 8.33333333,40 L9.65166667,40 L9.66833333,40.0233333 C10.08,40.6516667 10.53,41.2533333 11.0133333,41.8266667 L11.0716667,41.89 C11.5946493,42.496814 12.1563803,43.0691227 12.7533333,43.6033333 C13.235,44.0383333 13.7383333,44.4483333 14.265,44.83 C14.3133333,44.865 14.36,44.9033333 14.41,44.9383333 C15.6,45.785 16.8916667,46.49 18.2683333,47.0366667 L18.435,47.0983333 C19.0266667,47.3266667 19.6333333,47.5233333 20.2533333,47.69 C20.3983333,47.7283333 20.5416667,47.7666667 20.6883333,47.8016667 C21.2366667,47.935 21.7933333,48.04 22.3583333,48.1216667 C22.525,48.1466667 22.6883333,48.1783333 22.8566667,48.1983333 C23.56,48.28 24.2733333,48.3333333 25,48.3333333 C25.7266667,48.3333333 26.44,48.28 27.145,48.1966667 C27.3133333,48.1766667 27.4766667,48.145 27.6433333,48.12 C28.2083333,48.0383333 28.765,47.9316667 29.3133333,47.8 C29.4583333,47.765 29.6033333,47.7266667 29.7483333,47.6883333 C30.3683333,47.5216667 30.975,47.325 31.5666667,47.0966667 L31.7333333,47.035 C33.0990393,46.4930292 34.3944828,45.7885093 35.5916667,44.9366667 C35.64,44.9016667 35.6866667,44.8633333 35.7366667,44.8283333 C36.3581586,44.3785865 36.9504617,43.8898251 37.51,43.365 C38.0083333,42.8983333 38.485,42.4083333 38.93,41.8883333 L38.9883333,41.825 C39.4733333,41.2533333 39.9216667,40.6516667 40.3333333,40.0216667 L40.35,39.9983333 L41.7966667,39.9983333 C43.3233333,39.9983333 44.7466667,40.6816667 45.7016667,41.875 L54.865,53.3333333 L47.97,53.3333333 C45.4302392,53.3327581 43.2938094,55.2369049 43.0033333,57.76 L39.2833333,90 L36.55,90 C35.725,83.4333333 30.1183333,78.3333333 23.3316667,78.3333333 L14.9983333,78.3333333 L14.9983333,60 L11.6666667,60 L11.6666667,80 C11.6666667,80.9204746 12.4128588,81.6666667 13.3333333,81.6666667 L23.3333333,81.6666667 C28.2111002,81.6727749 32.3752786,85.1916007 33.195,90 L8.33333333,90 C5.57666667,90 3.33333333,87.7566667 3.33333333,85 L3.33333333,45 Z" id="Shape"></path>
                <path d="M70,81.6666667 C73.6766667,81.6666667 76.6666667,78.6766667 76.6666667,75 C76.6666667,71.3233333 73.6766667,68.3333333 70,68.3333333 C66.3233333,68.3333333 63.3333333,71.3233333 63.3333333,75 C63.3333333,78.6766667 66.3233333,81.6666667 70,81.6666667 Z M70,71.6666667 C71.8383333,71.6666667 73.3333333,73.1616667 73.3333333,75 C73.3333333,76.8383333 71.8383333,78.3333333 70,78.3333333 C68.1616667,78.3333333 66.6666667,76.8383333 66.6666667,75 C66.6666667,73.1616667 68.1616667,71.6666667 70,71.6666667 Z" id="Shape"></path>
                <path d="M80.8583333,0.238333333 C80.330019,-0.0765196987 79.6716476,-0.0765196987 79.1433333,0.238333333 L62.4766667,10.2383333 L62.4816667,10.2483333 C61.9792537,10.5446673 61.6696996,11.0833799 61.6666667,11.6666667 L61.6666667,35 C61.6666667,35.9204746 62.4128588,36.6666667 63.3333333,36.6666667 L96.6666667,36.6666667 C97.5871412,36.6666667 98.3333333,35.9204746 98.3333333,35 L98.3333333,11.6666667 C98.3298897,11.0830528 98.0205208,10.5440296 97.5183333,10.2466667 L97.5233333,10.2366667 L80.8583333,0.238333333 Z M95,31.7983333 L82.9066667,23.3333333 L95,14.8683333 L95,31.7983333 Z M80,25.3683333 L91.38,33.3333333 L68.62,33.3333333 L80,25.3683333 Z M65,31.7983333 L65,14.8683333 L77.0933333,23.3333333 L65,31.7983333 Z M80,3.61 L93.6066667,11.775 L80,21.2983333 L66.3933333,11.7733333 L80,3.61 Z" id="Shape"></path>
                <polygon id="Shape" points="78.3333333 40 81.6666667 40 81.6666667 43.3333333 78.3333333 43.3333333"></polygon>
                <polygon id="Shape" points="78.3333333 46.6666667 81.6666667 46.6666667 81.6666667 50 78.3333333 50"></polygon>
                <polygon id="Shape" points="85 46.6666667 88.3333333 46.6666667 88.3333333 50 85 50"></polygon>
                <polygon id="Shape" points="71.6666667 46.6666667 75 46.6666667 75 50 71.6666667 50"></polygon>
                <path d="M16.6666667,30 L13.3333333,30 C13.3333333,36.4316667 18.5666667,41.6666667 25,41.6666667 L25,38.3333333 C20.405,38.3333333 16.6666667,34.595 16.6666667,30 Z" id="Shape"></path>
            </g>
        </g>
    </g>
</svg>