<?xml version="1.0" encoding="UTF-8"?>
<svg width="154px" height="154px" viewBox="0 0 154 154" version="1.1" xmlns="http://www.w3.org/2000/svg" xmlns:xlink="http://www.w3.org/1999/xlink">
    <!-- Generator: Sketch 48.2 (47327) - http://www.bohemiancoding.com/sketch -->
    <title>role_desc_big</title>
    <desc>Created with Sketch.</desc>
    <defs>
        <linearGradient x1="50%" y1="0%" x2="50%" y2="100%" id="linearGradient-1">
            <stop stop-color="#ADC2FF" offset="0%"></stop>
            <stop stop-color="#4169E1" offset="77.2773282%"></stop>
            <stop stop-color="#314FA8" offset="100%"></stop>
        </linearGradient>
    </defs>
    <g id="assets" stroke="none" stroke-width="1" fill="none" fill-rule="evenodd">
        <g id="role_desc_big" transform="translate(2.000000, 2.000000)">
            <circle id="Oval-2" stroke="#4169E1" stroke-width="3" cx="75" cy="75" r="75"></circle>
            <g id="contract-sign-business-startup-docuement" transform="translate(25.000000, 23.000000)" fill="url(#linearGradient-1)" fill-rule="nonzero">
                <path d="M90.3225806,88.7096774 C90.3225806,94.933871 85.2564516,100 79.0322581,100 C72.8080645,100 67.7419355,94.933871 67.7419355,88.7096774 C67.7419355,87.8188956 67.0198141,87.0967742 66.1290323,87.0967742 L12.9032258,87.0967742 L12.9032258,3.22580645 L90.3225806,3.22580645 L90.3225806,12.9032258 L93.5483871,12.9032258 L93.5483871,1.61290323 C93.5483871,0.722121371 92.8262657,5.45446573e-17 91.9354839,0 L11.2903226,0 C10.3995407,-5.45446573e-17 9.67741935,0.722121371 9.67741935,1.61290323 L9.67741935,87.0967742 L1.61290323,87.0967742 C0.722121371,87.0967742 1.09089315e-16,87.8188956 0,88.7096774 C0,96.7145161 6.51129032,103.225806 14.516129,103.225806 L79.0322581,103.225806 C87.0370968,103.225806 93.5483871,96.7145161 93.5483871,88.7096774 L93.5483871,45.1612903 L90.3225806,45.1612903 L90.3225806,88.7096774 Z M14.516129,100 C8.83709677,100 4.12580645,95.7870968 3.34032258,90.3225806 L64.6064516,90.3225806 C65.0375621,94.1259057 66.9548708,97.6045427 69.9403226,100 L14.516129,100 Z" id="Shape"></path>
                <path d="M59.6774194,17.7419355 C59.6774194,13.2951613 56.0596774,9.67741935 51.6129032,9.67741935 C47.166129,9.67741935 43.5483871,13.2951613 43.5483871,17.7419355 C43.5483871,22.1887097 47.166129,25.8064516 51.6129032,25.8064516 C56.0596774,25.8064516 59.6774194,22.1887097 59.6774194,17.7419355 Z M46.7741935,17.7419355 C46.7741935,15.0741935 48.9451613,12.9032258 51.6129032,12.9032258 C54.2806452,12.9032258 56.4516129,15.0741935 56.4516129,17.7419355 C56.4516129,20.4096774 54.2806452,22.5806452 51.6129032,22.5806452 C48.9451613,22.5806452 46.7741935,20.4096774 46.7741935,17.7419355 Z" id="Shape"></path>
                <polygon id="Shape" points="17.7419355 11.2903226 38.7096774 11.2903226 38.7096774 14.516129 17.7419355 14.516129"></polygon>
                <polygon id="Shape" points="17.7419355 17.7419355 38.7096774 17.7419355 38.7096774 20.9677419 17.7419355 20.9677419"></polygon>
                <polygon id="Shape" points="17.7419355 24.1935484 38.7096774 24.1935484 38.7096774 27.4193548 17.7419355 27.4193548"></polygon>
                <path d="M94.6887097,16.6016129 C94.3864557,16.2988446 93.9762026,16.1287078 93.5483871,16.1287078 C93.1205716,16.1287078 92.7103184,16.2988446 92.4080645,16.6016129 L53.6983871,55.3112903 C53.3952848,55.6132943 53.2251859,56.0237379 53.2258065,56.4516129 L53.2258065,65.4612903 L47.7193548,70.9677419 L19.3548387,70.9677419 L19.3548387,74.1935484 L54.8387097,74.1935484 L54.8387097,70.9677419 L52.2806452,70.9677419 L55.5064516,67.7419355 L64.516129,67.7419355 C64.9451613,67.7419355 65.3548387,67.5725806 65.6564516,67.2693548 L94.6887097,38.2370968 C100.653226,32.2725806 100.653226,22.566129 94.6887097,16.6016129 Z M92.4080645,35.9564516 L63.8483871,64.516129 L58.7322581,64.516129 L91.4629032,31.7854839 L89.1822581,29.5048387 L56.4516129,62.2354839 L56.4516129,57.1193548 L93.4725806,20.0983871 C97.0822581,24.8290323 96.7290323,31.6354839 92.4080645,35.9564516 Z" id="Shape"></path>
                <polygon id="Shape" points="25.8064516 33.8709677 66.1290323 33.8709677 66.1290323 37.0967742 25.8064516 37.0967742"></polygon>
                <polygon id="Shape" points="19.3548387 40.3225806 59.6774194 40.3225806 59.6774194 43.5483871 19.3548387 43.5483871"></polygon>
                <polygon id="Shape" points="19.3548387 46.7741935 33.8709677 46.7741935 33.8709677 50 19.3548387 50"></polygon>
                <polygon id="Shape" points="37.0967742 46.7741935 54.8387097 46.7741935 54.8387097 50 37.0967742 50"></polygon>
                <polygon id="Shape" points="19.3548387 53.2258065 50 53.2258065 50 56.4516129 19.3548387 56.4516129"></polygon>
                <polygon id="Shape" points="58.0645161 77.4193548 82.2580645 77.4193548 82.2580645 80.6451613 58.0645161 80.6451613"></polygon>
            </g>
        </g>
    </g>
</svg>