<?xml version="1.0" encoding="UTF-8"?>
<svg width="60px" height="57px" viewBox="0 0 60 57" version="1.1" xmlns="http://www.w3.org/2000/svg" xmlns:xlink="http://www.w3.org/1999/xlink">
    <!-- Generator: Sketch 48.2 (47327) - http://www.bohemiancoding.com/sketch -->
    <title>agreement</title>
    <desc>Created with Sketch.</desc>
    <defs>
        <linearGradient x1="50%" y1="0%" x2="50%" y2="100%" id="linearGradient-1">
            <stop stop-color="#ADC2FF" offset="0%"></stop>
            <stop stop-color="#4169E1" offset="77.2773282%"></stop>
            <stop stop-color="#314FA8" offset="100%"></stop>
        </linearGradient>
    </defs>
    <g id="assets" stroke="none" stroke-width="1" fill="none" fill-rule="evenodd">
        <g id="customer-collaboration-deal-handshake-partnership" fill="url(#linearGradient-1)" fill-rule="nonzero">
            <path d="M7.74193548,20.3225806 C9.34258065,20.3225806 10.6451613,19.02 10.6451613,17.4193548 C10.6451613,15.8187097 9.34258065,14.516129 7.74193548,14.516129 C6.14129032,14.516129 4.83870968,15.8187097 4.83870968,17.4193548 C4.83870968,19.02 6.14129032,20.3225806 7.74193548,20.3225806 Z M7.74193548,16.4516129 C8.27516129,16.4516129 8.70967742,16.886129 8.70967742,17.4193548 C8.70967742,17.9525806 8.27516129,18.3870968 7.74193548,18.3870968 C7.20870968,18.3870968 6.77419355,17.9525806 6.77419355,17.4193548 C6.77419355,16.886129 7.20870968,16.4516129 7.74193548,16.4516129 Z" id="Shape"></path>
            <path d="M59.7164516,22.9422581 L58.3480645,21.573871 L44.4996774,35.4222581 C44.4474194,35.3632258 44.4058065,35.2964516 44.3496774,35.2393548 L36.2070968,27.0967742 L37.4583871,25.8454839 L36.09,24.4770968 L33.2167742,27.3503226 C31.6770968,28.8890323 29.2935484,29.1019355 27.5196774,27.9880645 L34.5522581,21.0106452 L34.5541935,21.0077419 L52.9412903,2.62064516 L51.5729032,1.25225806 L33.8709677,18.9541935 L32.6196774,17.7029032 C32.4384142,17.5211326 32.1921876,17.4190897 31.9354839,17.4193548 L28.4651613,17.4193548 L26.8132258,15.7674194 L13.2648387,2.21903226 L11.8964516,3.58741935 L20.8896774,12.5806452 L8.51225806,24.9580645 L1.62193548,18.6416129 L0.313548387,20.0690323 L11.6129032,30.4258065 L11.6129032,32.9032258 C11.6129032,33.1596774 11.7145161,33.4064516 11.8964516,33.5874194 L16.0819355,37.7729032 C15.6951131,38.2886618 15.4853337,38.9156239 15.483871,39.5603226 C15.487081,41.1841799 16.7748378,42.5142774 18.3977419,42.57 C18.4541069,44.1494713 19.7214965,45.4168609 21.3009677,45.4732258 C21.3573327,47.0526971 22.6247223,48.3200867 24.2041935,48.3764516 C24.2604109,49.999136 25.5902173,51.286611 27.213871,51.2903226 C27.6251613,51.2903226 28.023871,51.206129 28.3916129,51.0503226 L28.4651613,51.123871 C29.1958065,51.8554839 30.1683871,52.2580645 31.2029032,52.2580645 C32.2374194,52.2580645 33.2090323,51.8554839 33.9396774,51.123871 L44.3496774,40.713871 C45.2609591,39.8081964 45.6596465,38.5071973 45.4122581,37.2464516 L59.7164516,22.9422581 Z M22.2580645,13.9490323 L24.7606452,16.4516129 L12.5516129,28.6606452 L9.94064516,26.2674194 L22.2580645,13.9490323 Z M17.4193548,39.5603226 C17.4193548,39.27 17.5325806,38.9980645 17.7367742,38.7929032 L22.3412903,34.1883871 C22.7686866,33.7864579 23.4380665,33.7967332 23.8529247,34.2115914 C24.2677829,34.6264496 24.2780582,35.2958295 23.876129,35.7232258 L19.2716129,40.3277419 C18.9609976,40.6372853 18.4946767,40.7296024 18.0895525,40.5617531 C17.6844283,40.3939039 17.4200364,39.9988411 17.4193548,39.5603226 Z M20.3225806,42.4635484 C20.3225806,42.1732258 20.4358065,41.9012903 20.64,41.696129 L25.2445161,37.0916129 C25.6719124,36.6896837 26.3412923,36.699959 26.7561505,37.1148172 C27.1710088,37.5296754 27.1812841,38.1990553 26.7793548,38.6264516 L22.1748387,43.2309677 C21.8642234,43.5405111 21.3979025,43.6328282 20.9927783,43.4649789 C20.5876541,43.2971297 20.3232622,42.9020669 20.3225806,42.4635484 Z M23.2258065,45.3667742 C23.2258065,45.0764516 23.3390323,44.8045161 23.5432258,44.5993548 L28.1477419,39.9948387 C28.5751382,39.5929095 29.2445181,39.6031848 29.6593763,40.018043 C30.0742346,40.4329012 30.0845099,41.1022811 29.6825806,41.5296774 L25.0780645,46.1341935 C24.7674492,46.443737 24.3011283,46.536054 23.8960041,46.3682047 C23.4908799,46.2003555 23.226488,45.8052927 23.2258065,45.3667742 Z M26.1290323,48.27 C26.1290323,47.9796774 26.2422581,47.7077419 26.4464516,47.5025806 L31.0509677,42.8980645 C31.478364,42.4961353 32.1477439,42.5064106 32.5626021,42.9212688 C32.9774604,43.336127 32.9877357,44.0055069 32.5858065,44.4329032 L27.9812903,49.0374194 C27.670675,49.3469628 27.2043541,49.4392798 26.7992299,49.2714305 C26.3941057,49.1035813 26.1297138,48.7085185 26.1290323,48.27 Z M42.9812903,39.3454839 L32.5712903,49.7554839 C31.8677419,50.4590323 30.6677419,50.4783871 29.9264516,49.83 L33.9551613,45.8012903 C34.5227539,45.2356942 34.8408463,44.4667677 34.8387097,43.6654839 C34.8354996,42.0416266 33.5477428,40.7115291 31.9248387,40.6558065 C31.8684738,39.0763352 30.6010842,37.8089456 29.0216129,37.7525806 C28.965248,36.1731094 27.6978584,34.9057198 26.1183871,34.8493548 C26.0621698,33.2266704 24.7323633,31.9391955 23.1087097,31.9354839 C22.3016129,31.9354839 21.5429032,32.25 20.9729032,32.82 L17.4193548,36.3735484 L13.5483871,32.5025806 L13.5483871,30.4006452 L26.1290323,17.82 L27.3803226,19.0712903 C27.5615858,19.2530609 27.8078124,19.3551039 28.0645161,19.3548387 L31.5348387,19.3548387 L32.4996774,20.3196774 L25.3867742,27.3774194 C25.2033544,27.5595912 25.100446,27.8075766 25.1009914,28.0660899 C25.1015367,28.3246031 25.2054906,28.5721521 25.3896774,28.7535484 C27.933871,31.26 32.0603226,31.2445161 34.5851613,28.7177419 L34.8387097,28.4651613 L42.9812903,36.6077419 C43.3470968,36.9735484 43.5483871,37.4593548 43.5483871,37.9770968 C43.5483871,38.4948387 43.3470968,38.9796774 42.9812903,39.3454839 Z" id="Shape"></path>
            <path d="M7.0616129,40.586129 L5.36322581,41.5151613 C5.6816129,42.0967742 6.02612903,42.6764516 6.38709677,43.2367742 L8.01483871,42.1896774 C7.67793312,41.6667881 7.35998477,41.1319247 7.0616129,40.586129 Z" id="Shape"></path>
            <path d="M20.1919355,54.3667742 C20.8122581,54.5990323 21.4519355,54.8119355 22.0945161,54.9996774 L22.6383871,53.1425806 C22.0421234,52.9678571 21.4523822,52.7715995 20.8703226,52.5541935 L20.1919355,54.3667742 Z" id="Shape"></path>
            <path d="M13.1777419,50.5306452 C13.71,50.9303226 14.2645161,51.3154839 14.823871,51.6754839 L15.8709677,50.0477419 C15.3481499,49.7108804 14.8375032,49.3554936 14.34,48.9822581 L13.1777419,50.5306452 Z" id="Shape"></path>
            <path d="M16.5474194,52.7003226 C17.13,53.0187097 17.7329032,53.3216129 18.3396774,53.5993548 L19.1458065,51.84 C18.5799159,51.5802023 18.0231347,51.3010048 17.4764516,51.0029032 L16.5474194,52.7003226 Z" id="Shape"></path>
            <path d="M10.1516129,47.9051613 C10.6219355,48.3764516 11.1154839,48.836129 11.6177419,49.2716129 L12.8864516,47.8093548 C12.4165009,47.4016482 11.9610572,46.9775143 11.5209677,46.5377419 L10.1516129,47.9051613 Z" id="Shape"></path>
            <path d="M9.07741935,43.7196774 L7.52903226,44.8809677 C7.92967742,45.4151613 8.35258065,45.9396774 8.78612903,46.44 L10.2483871,45.1712903 C9.84187137,44.7007085 9.45132721,44.2165629 9.07741935,43.7196774 Z" id="Shape"></path>
            <path d="M3.93677419,29.9332258 L2.00612903,30.0706452 C2.05258065,30.7335484 2.12419355,31.4032258 2.21806452,32.0622581 L4.13419355,31.7893548 C4.04709677,31.1748387 3.98032258,30.5506452 3.93677419,29.9332258 Z" id="Shape"></path>
            <path d="M3.93677419,26.2025806 L2.00612903,26.0651613 C1.9587193,26.7305558 1.93515581,27.3974348 1.93548387,28.0645161 L1.93548049,28.0674194 L3.87096774,28.0645161 C3.87096774,27.4412903 3.89322581,26.8141935 3.93677419,26.2025806 Z" id="Shape"></path>
            <path d="M4.46322581,33.6232258 L2.57225806,34.0345161 C2.71354839,34.6858065 2.88,35.3390323 3.06677419,35.9758065 L4.92387097,35.4319355 C4.74966332,34.8344831 4.59602439,34.2312243 4.46322581,33.6232258 Z" id="Shape"></path>
            <path d="M5.51225806,37.2 L3.69870968,37.8774194 C3.93096774,38.4987097 4.1883871,39.1209677 4.46516129,39.7258065 L6.22548387,38.9216129 C5.96749134,38.3563422 5.72960029,37.7821113 5.51225806,37.2 Z" id="Shape"></path>
            <path d="M52.9364516,40.59 L54.6348387,41.5190323 C54.9532258,40.9364516 55.256129,40.3335484 55.533871,39.7267742 L53.7745161,38.9206452 C53.5147816,39.4867321 53.2352546,40.0435266 52.9364516,40.59 Z" id="Shape"></path>
            <path d="M50.9167742,43.7264516 L52.4651613,44.8887097 C52.863871,44.3583871 53.2490323,43.803871 53.6109677,43.2425806 L51.9832258,42.1945161 C51.6464516,42.7170968 51.2874194,43.2319355 50.9167742,43.7264516 Z" id="Shape"></path>
            <path d="M48.4722581,46.5435484 L49.8396774,47.9129032 C50.3109677,47.4425806 50.7706452,46.9490323 51.206129,46.4467742 L49.743871,45.1780645 C49.3366724,45.6484717 48.9125218,46.1039333 48.4722581,46.5435484 Z" id="Shape"></path>
            <path d="M54.4896774,37.196129 L56.3022581,37.8735484 C56.5354839,37.2512903 56.7474194,36.6106452 56.9351613,35.9709677 L55.0780645,35.4270968 C54.9029032,36.0222581 54.7054839,36.6174194 54.4896774,37.196129 Z" id="Shape"></path>
            <path d="M55.5367742,33.6203226 L57.4287097,34.0296774 C57.5690323,33.3822581 57.6880645,32.7193548 57.7819355,32.0574194 L55.8667742,31.7845161 C55.7785286,32.4001632 55.6684593,33.0124841 55.5367742,33.6203226 Z" id="Shape"></path>
            <path d="M45.6532258,48.9880645 L46.8145161,50.5364516 C47.3488343,50.1359084 47.8688359,49.7166146 48.3735484,49.2793548 L47.1058065,47.816129 C46.6393548,48.2206452 46.1506452,48.6145161 45.6532258,48.9880645 Z" id="Shape"></path>
            <path d="M24.0367742,55.4941935 C24.6841935,55.6345161 25.3470968,55.7535484 26.0090323,55.8474194 L26.2819355,53.9322581 C25.6663756,53.8438649 25.0540712,53.7341213 24.446129,53.6032258 L24.0367742,55.4941935 Z" id="Shape"></path>
            <path d="M56.0641935,29.9293548 L57.9948387,30.0658065 C58.0412903,29.4048387 58.0645161,28.7312903 58.0645161,28.0645161 L56.1290323,28.0645161 C56.1290323,28.6867742 56.1077419,29.3148387 56.0641935,29.9293548 Z" id="Shape"></path>
            <path d="M31.8667742,54.1277419 L32.0041935,56.0583871 C32.6703704,56.0114119 33.3346625,55.9407219 33.9958065,55.8464516 L33.7229032,53.9303226 C33.1093548,54.0174194 32.4851613,54.0841935 31.8667742,54.1277419 Z" id="Shape"></path>
            <path d="M28.1370968,54.1287097 L28.0006452,56.0593548 C28.6606452,56.1058065 29.3341935,56.1290323 30.0009677,56.1290323 L30,54.1935484 C29.3777419,54.1935484 28.7516129,54.1722581 28.1370968,54.1287097 Z" id="Shape"></path>
            <path d="M42.5206452,51.003871 L43.4496774,52.7022581 C44.0350863,52.381648 44.6089922,52.0404677 45.1703226,51.6793548 L44.1232258,50.0516129 C43.6045161,50.3854839 43.0654839,50.7058065 42.5206452,51.003871 Z" id="Shape"></path>
            <path d="M39.1345161,52.5522581 L39.8109677,54.3658065 C40.4322581,54.1335484 41.0545161,53.876129 41.6593548,53.5993548 L40.8551613,51.8390323 C40.2909677,52.0964516 39.7122581,52.3374194 39.1345161,52.5522581 Z" id="Shape"></path>
            <path d="M35.5567742,53.6022581 L35.9680645,55.4932258 C36.6208377,55.3515319 37.2683465,55.1865883 37.9093548,54.9987097 L37.3654839,53.1416129 C36.7722581,53.3148387 36.1645161,53.4696774 35.5567742,53.6022581 Z" id="Shape"></path>
            <path d="M43.053871,3.40258065 C42.4768477,3.06574227 41.8880926,2.74941555 41.2887097,2.45419355 L40.436129,4.19225806 C40.9732258,4.45548387 41.5258065,4.75258065 42.0783871,5.07483871 L43.053871,3.40258065 Z" id="Shape"></path>
            <path d="M30,1.93548387 C30.5109677,1.93548387 31.0103226,1.94709677 31.4980645,1.97032258 L31.5890323,0.0367741935 C31.0597138,0.0121347619 30.5298916,-0.000126652426 30,3.74028785e-15 L29.5954839,0.00290322581 L29.6235484,1.9383871 L30,1.93548387 Z" id="Shape"></path>
            <path d="M39.4441935,1.64225806 C38.8169333,1.39701626 38.1792245,1.17938803 37.5329032,0.99 L36.99,2.84806452 C37.5754839,3.01935484 38.163871,3.21967742 38.7387097,3.44419355 L39.4441935,1.64225806 Z" id="Shape"></path>
            <path d="M35.5712903,0.51 C34.9131034,0.379815035 34.2499986,0.275861897 33.5835484,0.198387097 L33.3590323,2.12032258 C33.9841935,2.19387097 34.6016129,2.29064516 35.193871,2.40870968 L35.5712903,0.51 Z" id="Shape"></path>
            <path d="M20.5151613,3.70935484 L19.8106452,1.90645161 C19.1903226,2.1483871 18.5719355,2.41548387 17.9719355,2.70096774 L18.8012903,4.44967742 C19.3637365,4.18291288 19.9353793,3.93598645 20.5151613,3.70935484 Z" id="Shape"></path>
            <path d="M24.0754839,2.61 L23.6380645,0.72483871 C22.9887097,0.875806452 22.3374194,1.05096774 21.7035484,1.24741935 L22.2754839,3.09677419 C22.8693932,2.91277906 23.4697889,2.75041399 24.0754839,2.61 Z" id="Shape"></path>
            <path d="M27.7587097,2.03032258 L27.5951613,0.101612903 C26.9303226,0.158709677 26.2606452,0.239032258 25.6054839,0.342580645 L25.9074194,2.25483871 C26.5215723,2.15745286 27.1390819,2.08256409 27.7587097,2.03032258 Z" id="Shape"></path>
        </g>
    </g>
</svg>