<?xml version="1.0" encoding="UTF-8"?>
<svg width="154px" height="154px" viewBox="0 0 154 154" version="1.1" xmlns="http://www.w3.org/2000/svg" xmlns:xlink="http://www.w3.org/1999/xlink">
    <!-- Generator: Sketch 48.2 (47327) - http://www.bohemiancoding.com/sketch -->
    <title>checklist_big</title>
    <desc>Created with Sketch.</desc>
    <defs>
        <linearGradient x1="50%" y1="0%" x2="50%" y2="100%" id="linearGradient-1">
            <stop stop-color="#ADC2FF" offset="0%"></stop>
            <stop stop-color="#4169E1" offset="77.2773282%"></stop>
            <stop stop-color="#314FA8" offset="100%"></stop>
        </linearGradient>
    </defs>
    <g id="assets" stroke="none" stroke-width="1" fill="none" fill-rule="evenodd">
        <g id="checklist_big" transform="translate(2.000000, 2.000000)">
            <circle id="Oval-2" stroke="#4169E1" stroke-width="3" cx="75" cy="75" r="75"></circle>
            <g id="check-list-skill-note" transform="translate(35.000000, 23.000000)" fill="url(#linearGradient-1)" fill-rule="nonzero">
                <path d="M79.4886957,16.16 L63.84,0.511304348 C63.5144431,0.183086258 63.070987,-0.00106073713 62.6086957,-2.02736319e-15 L8.69565217,-2.02736319e-15 C3.90086957,-2.02736319e-15 0,3.90086957 0,8.69565217 L0,95.6521739 C0,100.446957 3.90086957,104.347826 8.69565217,104.347826 L71.3043478,104.347826 C76.0991304,104.347826 80,100.446957 80,95.6521739 L80,17.3913043 C80.0010607,16.929013 79.8169137,16.4855569 79.4886957,16.16 Z M64.3478261,5.9373913 L74.0626087,15.6521739 L64.3478261,15.6521739 L64.3478261,5.9373913 Z M76.5217391,95.6521739 C76.5217391,98.5286957 74.1808696,100.869565 71.3043478,100.869565 L8.69565217,100.869565 C5.81913043,100.869565 3.47826087,98.5286957 3.47826087,95.6521739 L3.47826087,8.69565217 C3.47826087,5.81913043 5.81913043,3.47826087 8.69565217,3.47826087 L60.8695652,3.47826087 L60.8695652,17.3913043 C60.8695652,18.3517996 61.6482004,19.1304348 62.6086957,19.1304348 L76.5217391,19.1304348 L76.5217391,95.6521739 Z" id="Shape"></path>
                <path d="M15.6521739,24.3478261 C11.8156522,24.3478261 8.69565217,27.4678261 8.69565217,31.3043478 C8.69565217,35.1408696 11.8156522,38.2608696 15.6521739,38.2608696 C19.4886957,38.2608696 22.6086957,35.1408696 22.6086957,31.3043478 C22.6086957,27.4678261 19.4886957,24.3478261 15.6521739,24.3478261 Z M15.6521739,34.7826087 C13.733913,34.7826087 12.173913,33.2226087 12.173913,31.3043478 C12.173913,29.386087 13.733913,27.826087 15.6521739,27.826087 C17.5704348,27.826087 19.1304348,29.386087 19.1304348,31.3043478 C19.1304348,33.2226087 17.5704348,34.7826087 15.6521739,34.7826087 Z" id="Shape"></path>
                <path d="M15.6521739,43.4782609 C11.8156522,43.4782609 8.69565217,46.5982609 8.69565217,50.4347826 C8.69565217,54.2713043 11.8156522,57.3913043 15.6521739,57.3913043 C19.4886957,57.3913043 22.6086957,54.2713043 22.6086957,50.4347826 C22.6086957,46.5982609 19.4886957,43.4782609 15.6521739,43.4782609 Z M15.6521739,53.9130435 C13.733913,53.9130435 12.173913,52.3530435 12.173913,50.4347826 C12.173913,48.5165217 13.733913,46.9565217 15.6521739,46.9565217 C17.5704348,46.9565217 19.1304348,48.5165217 19.1304348,50.4347826 C19.1304348,52.3530435 17.5704348,53.9130435 15.6521739,53.9130435 Z" id="Shape"></path>
                <path d="M15.6521739,62.6086957 C11.8156522,62.6086957 8.69565217,65.7286957 8.69565217,69.5652174 C8.69565217,73.4017391 11.8156522,76.5217391 15.6521739,76.5217391 C19.4886957,76.5217391 22.6086957,73.4017391 22.6086957,69.5652174 C22.6086957,65.7286957 19.4886957,62.6086957 15.6521739,62.6086957 Z M15.6521739,73.0434783 C13.733913,73.0434783 12.173913,71.4834783 12.173913,69.5652174 C12.173913,67.6469565 13.733913,66.0869565 15.6521739,66.0869565 C17.5704348,66.0869565 19.1304348,67.6469565 19.1304348,69.5652174 C19.1304348,71.4834783 17.5704348,73.0434783 15.6521739,73.0434783 Z" id="Shape"></path>
                <path d="M15.6521739,81.7391304 C11.8156522,81.7391304 8.69565217,84.8591304 8.69565217,88.6956522 C8.69565217,92.5321739 11.8156522,95.6521739 15.6521739,95.6521739 C19.4886957,95.6521739 22.6086957,92.5321739 22.6086957,88.6956522 C22.6086957,84.8591304 19.4886957,81.7391304 15.6521739,81.7391304 Z M15.6521739,92.173913 C13.733913,92.173913 12.173913,90.613913 12.173913,88.6956522 C12.173913,86.7773913 13.733913,85.2173913 15.6521739,85.2173913 C17.5704348,85.2173913 19.1304348,86.7773913 19.1304348,88.6956522 C19.1304348,90.613913 17.5704348,92.173913 15.6521739,92.173913 Z" id="Shape"></path>
                <polygon id="Shape" points="26.0869565 33.0434783 71.3043478 33.0434783 71.3043478 36.5217391 26.0869565 36.5217391"></polygon>
                <polygon id="Shape" points="27.826087 8.69565217 52.173913 8.69565217 52.173913 12.173913 27.826087 12.173913"></polygon>
                <polygon id="Shape" points="22.6086957 15.6521739 57.3913043 15.6521739 57.3913043 19.1304348 22.6086957 19.1304348"></polygon>
                <polygon id="Shape" points="26.0869565 52.173913 71.3043478 52.173913 71.3043478 55.6521739 26.0869565 55.6521739"></polygon>
                <polygon id="Shape" points="26.0869565 71.3043478 71.3043478 71.3043478 71.3043478 74.7826087 26.0869565 74.7826087"></polygon>
                <polygon id="Shape" points="26.0869565 90.4347826 71.3043478 90.4347826 71.3043478 93.9130435 26.0869565 93.9130435"></polygon>
                <polygon id="Shape" points="40 26.0869565 43.4782609 26.0869565 43.4782609 29.5652174 40 29.5652174"></polygon>
                <polygon id="Shape" points="33.0434783 26.0869565 36.5217391 26.0869565 36.5217391 29.5652174 33.0434783 29.5652174"></polygon>
                <polygon id="Shape" points="26.0869565 26.0869565 29.5652174 26.0869565 29.5652174 29.5652174 26.0869565 29.5652174"></polygon>
            </g>
        </g>
    </g>
</svg>