<?xml version="1.0" encoding="UTF-8"?>
<svg width="46px" height="60px" viewBox="0 0 46 60" version="1.1" xmlns="http://www.w3.org/2000/svg" xmlns:xlink="http://www.w3.org/1999/xlink">
    <!-- Generator: Sketch 48.2 (47327) - http://www.bohemiancoding.com/sketch -->
    <title>checklist_small</title>
    <desc>Created with Sketch.</desc>
    <defs>
        <linearGradient x1="50%" y1="0%" x2="50%" y2="100%" id="linearGradient-1">
            <stop stop-color="#ADC2FF" offset="0%"></stop>
            <stop stop-color="#4169E1" offset="77.2773282%"></stop>
            <stop stop-color="#314FA8" offset="100%"></stop>
        </linearGradient>
    </defs>
    <g id="assets" stroke="none" stroke-width="1" fill="none" fill-rule="evenodd">
        <g id="checklist_small" fill="url(#linearGradient-1)" fill-rule="nonzero">
            <path d="M45.4702284,9.2440678 L36.5186441,0.292483419 C36.3324145,0.104731546 36.0787426,-0.000606777594 35.8142962,-1.15971982e-15 L4.97420781,-1.15971982e-15 C2.23142962,-1.15971982e-15 0,2.23142962 0,4.97420781 L0,54.7162859 C0,57.4590641 2.23142962,59.6904937 4.97420781,59.6904937 L40.7885041,59.6904937 C43.5312822,59.6904937 45.7627119,57.4590641 45.7627119,54.7162859 L45.7627119,9.94841562 C45.7633186,9.68396929 45.6579803,9.43029741 45.4702284,9.2440678 Z M36.8091378,3.39638909 L42.3663228,8.95357406 L36.8091378,8.95357406 L36.8091378,3.39638909 Z M43.7730287,54.7162859 C43.7730287,56.3617539 42.433972,57.7008106 40.7885041,57.7008106 L4.97420781,57.7008106 C3.32873987,57.7008106 1.98968312,56.3617539 1.98968312,54.7162859 L1.98968312,4.97420781 C1.98968312,3.32873987 3.32873987,1.98968312 4.97420781,1.98968312 L34.8194547,1.98968312 L34.8194547,9.94841562 C34.8194547,10.4978514 35.2648604,10.9432572 35.8142962,10.9432572 L43.7730287,10.9432572 L43.7730287,54.7162859 Z" id="Shape"></path>
            <path d="M8.95357406,13.9277819 C6.75895357,13.9277819 4.97420781,15.7125276 4.97420781,17.9071481 C4.97420781,20.1017686 6.75895357,21.8865144 8.95357406,21.8865144 C11.1481945,21.8865144 12.9329403,20.1017686 12.9329403,17.9071481 C12.9329403,15.7125276 11.1481945,13.9277819 8.95357406,13.9277819 Z M8.95357406,19.8968312 C7.85626382,19.8968312 6.96389094,19.0044584 6.96389094,17.9071481 C6.96389094,16.8098379 7.85626382,15.917465 8.95357406,15.917465 C10.0508843,15.917465 10.9432572,16.8098379 10.9432572,17.9071481 C10.9432572,19.0044584 10.0508843,19.8968312 8.95357406,19.8968312 Z" id="Shape"></path>
            <path d="M8.95357406,24.8710391 C6.75895357,24.8710391 4.97420781,26.6557848 4.97420781,28.8504053 C4.97420781,31.0450258 6.75895357,32.8297716 8.95357406,32.8297716 C11.1481945,32.8297716 12.9329403,31.0450258 12.9329403,28.8504053 C12.9329403,26.6557848 11.1481945,24.8710391 8.95357406,24.8710391 Z M8.95357406,30.8400884 C7.85626382,30.8400884 6.96389094,29.9477155 6.96389094,28.8504053 C6.96389094,27.7530951 7.85626382,26.8607222 8.95357406,26.8607222 C10.0508843,26.8607222 10.9432572,27.7530951 10.9432572,28.8504053 C10.9432572,29.9477155 10.0508843,30.8400884 8.95357406,30.8400884 Z" id="Shape"></path>
            <path d="M8.95357406,35.8142962 C6.75895357,35.8142962 4.97420781,37.599042 4.97420781,39.7936625 C4.97420781,41.988283 6.75895357,43.7730287 8.95357406,43.7730287 C11.1481945,43.7730287 12.9329403,41.988283 12.9329403,39.7936625 C12.9329403,37.599042 11.1481945,35.8142962 8.95357406,35.8142962 Z M8.95357406,41.7833456 C7.85626382,41.7833456 6.96389094,40.8909727 6.96389094,39.7936625 C6.96389094,38.6963522 7.85626382,37.8039794 8.95357406,37.8039794 C10.0508843,37.8039794 10.9432572,38.6963522 10.9432572,39.7936625 C10.9432572,40.8909727 10.0508843,41.7833456 8.95357406,41.7833456 Z" id="Shape"></path>
            <path d="M8.95357406,46.7575534 C6.75895357,46.7575534 4.97420781,48.5422992 4.97420781,50.7369197 C4.97420781,52.9315402 6.75895357,54.7162859 8.95357406,54.7162859 C11.1481945,54.7162859 12.9329403,52.9315402 12.9329403,50.7369197 C12.9329403,48.5422992 11.1481945,46.7575534 8.95357406,46.7575534 Z M8.95357406,52.7266028 C7.85626382,52.7266028 6.96389094,51.8342299 6.96389094,50.7369197 C6.96389094,49.6396094 7.85626382,48.7472366 8.95357406,48.7472366 C10.0508843,48.7472366 10.9432572,49.6396094 10.9432572,50.7369197 C10.9432572,51.8342299 10.0508843,52.7266028 8.95357406,52.7266028 Z" id="Shape"></path>
            <polygon id="Shape" points="14.9226234 18.9019897 40.7885041 18.9019897 40.7885041 20.8916728 14.9226234 20.8916728"></polygon>
            <polygon id="Shape" points="15.917465 4.97420781 29.8452469 4.97420781 29.8452469 6.96389094 15.917465 6.96389094"></polygon>
            <polygon id="Shape" points="12.9329403 8.95357406 32.8297716 8.95357406 32.8297716 10.9432572 12.9329403 10.9432572"></polygon>
            <polygon id="Shape" points="14.9226234 29.8452469 40.7885041 29.8452469 40.7885041 31.83493 14.9226234 31.83493"></polygon>
            <polygon id="Shape" points="14.9226234 40.7885041 40.7885041 40.7885041 40.7885041 42.7781872 14.9226234 42.7781872"></polygon>
            <polygon id="Shape" points="14.9226234 51.7317612 40.7885041 51.7317612 40.7885041 53.7214444 14.9226234 53.7214444"></polygon>
            <polygon id="Shape" points="22.8813559 14.9226234 24.8710391 14.9226234 24.8710391 16.9123066 22.8813559 16.9123066"></polygon>
            <polygon id="Shape" points="18.9019897 14.9226234 20.8916728 14.9226234 20.8916728 16.9123066 18.9019897 16.9123066"></polygon>
            <polygon id="Shape" points="14.9226234 14.9226234 16.9123066 14.9226234 16.9123066 16.9123066 14.9226234 16.9123066"></polygon>
        </g>
    </g>
</svg>