<?xml version="1.0" encoding="UTF-8"?>
<svg width="60px" height="64px" viewBox="0 0 60 64" version="1.1" xmlns="http://www.w3.org/2000/svg" xmlns:xlink="http://www.w3.org/1999/xlink">
    <!-- Generator: Sketch 48.2 (47327) - http://www.bohemiancoding.com/sketch -->
    <title>feedback_small</title>
    <desc>Created with Sketch.</desc>
    <defs>
        <linearGradient x1="50%" y1="0%" x2="50%" y2="100%" id="linearGradient-1">
            <stop stop-color="#ADC2FF" offset="0%"></stop>
            <stop stop-color="#4169E1" offset="77.2773282%"></stop>
            <stop stop-color="#314FA8" offset="100%"></stop>
        </linearGradient>
    </defs>
    <g id="assets" stroke="none" stroke-width="1" fill="none" fill-rule="evenodd">
        <g id="feedback_small" fill="url(#linearGradient-1)" fill-rule="nonzero">
            <g id="rating-feedback-bouce-rate">
                <path d="M59,44 L45,44 C44.4477153,44 44,44.4477153 44,45 L44,47 L42,47 L42,46 C42.0003529,45.8571089 41.9696441,45.7158483 41.91,45.586 L36.91,34.586 C36.7481256,34.2288588 36.3921135,33.9996027 36,34 L33,34 L33,26 L57,26 C57.5522847,26 58,25.5522847 58,25 L58,1 C58,0.44771525 57.5522847,3.38176876e-17 57,0 L1,0 C0.44771525,-3.38176876e-17 6.76353751e-17,0.44771525 0,1 L0,25 C6.76353751e-17,25.5522847 0.44771525,26 1,26 L24,26 L24,45 L22,45 C21.4477153,45 21,45.4477153 21,46 L21,63 C21,63.5522847 21.4477153,64 22,64 L59,64 C59.5522847,64 60,63.5522847 60,63 L60,45 C60,44.4477153 59.5522847,44 59,44 Z M2,2 L56,2 L56,24 L2,24 L2,2 Z M26,26 L31,26 L31,45 L26,45 L26,26 Z M23,47 L32,47 C32.5522847,47 33,46.5522847 33,46 L33,36 L35.356,36 L40,46.217 L40,62 L23,62 L23,47 Z M42,49.001 L44,49.001 L44,62 L42,62 L42,49.001 Z M58,48 L56,48 L56,50 L58,50 L58,52 L56,52 L56,54 L58,54 L58,56 L56,56 L56,58 L58,58 L58,60 L56,60 L56,62 L54,62 L54,60 L52,60 L52,62 L50,62 L50,60 L48,60 L48,62 L46,62 L46,60 L48,60 L48,58 L46,58 L46,56 L48,56 L48,54 L46,54 L46,52 L48,52 L48,50 L46,50 L46,48 L48,48 L48,46 L46,46 L58,46 L58,48 Z" id="Shape"></path>
                <path d="M17.7998157,9.9555 L14.4178157,9.9555 L12.6938157,6.5085 C12.3538157,5.8305 11.2448157,5.8305 10.9048157,6.5085 L9.18181567,9.9555 L5.79981567,9.9555 C5.39541977,9.95558635 5.03088162,10.1992275 4.87613769,10.5728454 C4.72139377,10.9464634 4.80690776,11.3765057 5.09281567,11.6625 L8.00981567,14.5795 L6.83781567,18.6805 C6.71953782,19.1022858 6.88895972,19.552011 7.25613494,19.7909154 C7.62331015,20.0298198 8.10311321,20.0025161 8.44081567,19.7235 L11.7998157,16.9235 L15.1588157,19.7235 C15.4958678,20.0056589 15.9776535,20.0346355 16.3460941,19.7949078 C16.7145346,19.5551801 16.8832303,19.1029645 16.7618157,18.6805 L15.5898157,14.5795 L18.5068157,11.6625 C18.7927236,11.3765057 18.8782376,10.9464634 18.7234937,10.5728454 C18.5687497,10.1992275 18.2042116,9.95558635 17.7998157,9.9555 Z M13.7598157,13.5815 C13.5031311,13.8384309 13.4055684,14.2141428 13.5048157,14.5635 L13.9468157,16.1095 L12.4398157,14.8535 C12.0689775,14.5427444 11.5286539,14.5427444 11.1578157,14.8535 L9.65081567,16.1095 L10.0928157,14.5635 C10.1925051,14.214148 10.094884,13.8382112 9.83781567,13.5815 L8.21381567,11.9555 L9.79981567,11.9555 C10.1788157,11.9555 10.5248157,11.7415 10.6948157,11.4025 L11.7998157,9.1915 L12.9048157,11.4025 C13.0742403,11.7415516 13.4207897,11.9556766 13.7998157,11.9555 L15.3858157,11.9555 L13.7598157,13.5815 Z" id="Shape"></path>
                <path d="M25.8408157,19.7235 L29.1998157,16.9235 L32.5588157,19.7235 C32.8958678,20.0056589 33.3776535,20.0346355 33.7460941,19.7949078 C34.1145346,19.5551801 34.2832303,19.1029645 34.1618157,18.6805 L32.9898157,14.5795 L35.9068157,11.6625 C36.1927236,11.3765057 36.2782376,10.9464634 36.1234937,10.5728454 C35.9687497,10.1992275 35.6042116,9.95558635 35.1998157,9.9555 L31.8178157,9.9555 L30.0938157,6.5085 C29.7538157,5.8305 28.6448157,5.8305 28.3048157,6.5085 L26.5818157,9.9555 L23.1998157,9.9555 C22.7954198,9.95558635 22.4308816,10.1992275 22.2761377,10.5728454 C22.1213938,10.9464634 22.2069078,11.3765057 22.4928157,11.6625 L25.4098157,14.5795 L24.2378157,18.6805 C24.1195378,19.1022858 24.2889597,19.552011 24.6561349,19.7909154 C25.0233102,20.0298198 25.5031132,20.0025161 25.8408157,19.7235 Z M27.1998157,11.9555 C27.5788157,11.9555 27.9248157,11.7415 28.0948157,11.4025 L29.1998157,9.1915 L30.3048157,11.4025 C30.4742403,11.7415516 30.8207897,11.9556766 31.1998157,11.9555 L32.7858157,11.9555 L31.1598157,13.5815 C30.9031311,13.8384309 30.8055684,14.2141428 30.9048157,14.5635 L31.3468157,16.1095 L29.8398157,14.8535 C29.4689775,14.5427444 28.9286539,14.5427444 28.5578157,14.8535 L27.0508157,16.1095 L27.4928157,14.5635 C27.5925051,14.214148 27.494884,13.8382112 27.2378157,13.5815 L25.6138157,11.9555 L27.1998157,11.9555 Z" id="Shape"></path>
                <path d="M42.2098157,14.5805 L41.0378157,18.6815 C40.9195378,19.1032858 41.0889597,19.553011 41.4561349,19.7919154 C41.8233102,20.0308198 42.3031132,20.0035161 42.6408157,19.7245 L45.9998157,16.9245 L49.3588157,19.7245 C49.6968578,20.0045046 50.1776069,20.0324504 50.5458157,19.7935 C50.9128157,19.5545 51.0818157,19.1035 50.9618157,18.6805 L49.7898157,14.5795 L52.7068157,11.6625 C52.9927236,11.3765057 53.0782376,10.9464634 52.9234937,10.5728454 C52.7687497,10.1992275 52.4042116,9.95558635 51.9998157,9.9555 L48.6178157,9.9555 L46.8938157,6.5085 C46.5538157,5.8305 45.4448157,5.8305 45.1048157,6.5085 L43.3818157,9.9555 L39.9998157,9.9555 C39.5954198,9.95558635 39.2308816,10.1992275 39.0761377,10.5728454 C38.9213938,10.9464634 39.0069078,11.3765057 39.2928157,11.6625 L42.2098157,14.5805 Z M43.9998157,11.9555 C44.3788157,11.9555 44.7248157,11.7415 44.8948157,11.4025 L45.9998157,9.1915 L47.1048157,11.4025 C47.2742403,11.7415516 47.6207897,11.9556766 47.9998157,11.9555 L49.5858157,11.9555 L47.9598157,13.5815 C47.7031311,13.8384309 47.6055684,14.2141428 47.7048157,14.5635 L48.1468157,16.1095 L46.6398157,14.8535 C46.2689775,14.5427444 45.7286539,14.5427444 45.3578157,14.8535 L43.8508157,16.1095 L44.2928157,14.5635 C44.3925051,14.214148 44.294884,13.8382112 44.0378157,13.5815 L42.4138157,11.9555 L43.9998157,11.9555 Z" id="Shape"></path>
                <polygon id="Shape" points="3 28.8 5 28.8 5 36.8 3 36.8"></polygon>
                <polygon id="Shape" points="7.2 33 9.2 33 9.2 41 7.2 41"></polygon>
                <polygon id="Shape" points="13.2 30.6 15.2 30.6 15.2 38.6 13.2 38.6"></polygon>
                <polygon id="Shape" points="49.8 45.6 51.8 45.6 51.8 47.6 49.8 47.6"></polygon>
                <polygon id="Shape" points="54 45.6 56 45.6 56 47.6 54 47.6"></polygon>
                <polygon id="Shape" points="48 48 50 48 50 50 48 50"></polygon>
                <polygon id="Shape" points="52.2 48 54.2 48 54.2 50 52.2 50"></polygon>
                <polygon id="Shape" points="49.8 49.8 51.8 49.8 51.8 51.8 49.8 51.8"></polygon>
                <polygon id="Shape" points="54 49.8 56 49.8 56 51.8 54 51.8"></polygon>
                <polygon id="Shape" points="48 51.6 50 51.6 50 53.6 48 53.6"></polygon>
                <polygon id="Shape" points="52.2 51.6 54.2 51.6 54.2 53.6 52.2 53.6"></polygon>
                <polygon id="Shape" points="49.8 54 51.8 54 51.8 56 49.8 56"></polygon>
                <polygon id="Shape" points="54 54 56 54 56 56 54 56"></polygon>
                <polygon id="Shape" points="48 55.8 50 55.8 50 57.8 48 57.8"></polygon>
                <polygon id="Shape" points="52.2 55.8 54.2 55.8 54.2 57.8 52.2 57.8"></polygon>
                <polygon id="Shape" points="49.8 57.6 51.8 57.6 51.8 59.6 49.8 59.6"></polygon>
                <polygon id="Shape" points="54 57.6 56 57.6 56 59.6 54 59.6"></polygon>
            </g>
        </g>
    </g>
</svg>