<?xml version="1.0" encoding="UTF-8"?>
<svg width="100px" height="103px" viewBox="0 0 100 103" version="1.1" xmlns="http://www.w3.org/2000/svg" xmlns:xlink="http://www.w3.org/1999/xlink">
    <!-- Generator: Sketch 48.2 (47327) - http://www.bohemiancoding.com/sketch -->
    <title>first_days_header</title>
    <desc>Created with Sketch.</desc>
    <defs>
        <linearGradient x1="50%" y1="-42.1313654%" x2="50%" y2="100%" id="linearGradient-1">
            <stop stop-color="#ADC2FF" offset="0%"></stop>
            <stop stop-color="#4169E1" offset="60.1407293%"></stop>
            <stop stop-color="#314FA8" offset="100%"></stop>
        </linearGradient>
    </defs>
    <g id="assets" stroke="none" stroke-width="1" fill="none" fill-rule="evenodd">
        <g id="first_days_header" fill="url(#linearGradient-1)" fill-rule="nonzero">
            <path d="M86.0214286,68.7089286 L50.6071429,74.8678571 L40.5482143,64.8089286 C40.2138527,64.4733511 39.7594331,64.2850272 39.2857143,64.2857143 L21.4285714,64.2857143 C21.4285714,63.2994915 20.6290799,62.5 19.6428571,62.5 L0,62.5 L0,66.0714286 L10.7142857,66.0714286 L10.7142857,91.0714286 L0,91.0714286 L0,94.6428571 L19.6428571,94.6428571 C20.6290799,94.6428571 21.4285714,93.8433656 21.4285714,92.8571429 L26.3642857,92.8571429 L45.4553571,102.403571 C47.2162971,103.286615 49.3041856,103.220109 51.0053571,102.226786 L89.9625,79.5 C91.7522363,78.4519053 92.8534768,76.5347551 92.8571429,74.4607143 C92.8571429,72.7339286 92.0982143,71.1053571 90.7767857,69.9928571 C89.4596153,68.8825508 87.7184291,68.4124371 86.0214286,68.7089286 Z M17.8571429,91.0714286 L14.2857143,91.0714286 L14.2857143,66.0714286 L17.8571429,66.0714286 L17.8571429,91.0714286 Z M88.1625,76.4142857 L49.2071429,99.1410714 C48.5464286,99.5267857 47.7410714,99.5517857 47.0535714,99.2089286 L27.5857143,89.475 C27.337466,89.3503584 27.0634961,89.2855352 26.7857143,89.2857143 L21.4285714,89.2857143 L21.4285714,67.8571429 L38.5464286,67.8571429 L52.6160714,81.9267857 C53.8069527,83.2154689 53.7675416,85.2146205 52.5267954,86.4553668 C51.2860491,87.6961131 49.2868975,87.7355242 47.9982143,86.5446429 L38.7625,77.3089286 L36.2375,79.8339286 L45.4732143,89.0696429 C46.752387,90.355902 48.4931095,91.0767553 50.3071429,91.0714286 C54.0803643,91.0665098 57.1379383,88.0089357 57.1428571,84.2357143 C57.1477854,82.4217595 56.4269932,80.6811845 55.1410714,79.4017857 L53.6946429,77.9553571 L86.6303571,72.2267857 C87.2928571,72.1071429 87.9642857,72.2928571 88.4767857,72.725 C89.0424383,73.1978458 89.3419903,73.9168093 89.279411,74.6514043 C89.2168318,75.3859993 88.7999835,76.0439336 88.1625,76.4142857 Z" id="Shape"></path>
            <path d="M100,12.5 L100,8.92857143 L88.7839286,8.92857143 C88.4589286,8.59107143 88.0071429,8.92857143 87.5,8.92857143 L80.3571429,8.92857143 C79.3696429,8.92857143 78.5714286,8.92857143 78.5714286,10.7142857 L73.6357143,10.7142857 L54.5428571,0.892857143 C52.7732143,0.00714285714 50.6982143,-0.0625 48.9946429,0.932142857 L10.0375,23.5892857 C8.249931,24.6230296 7.14728931,26.529695 7.14285714,28.5946429 C7.14536421,30.3142251 7.90845568,31.9446093 9.22727149,33.0481012 C10.5460873,34.1515931 12.2855094,34.6151356 13.9785714,34.3142857 L49.3910714,28.1535714 L59.45,38.4875 C59.7857143,38.8214286 60.2392857,39.2857143 60.7142857,39.2857143 L78.5714286,39.2857143 C78.5714286,39.2857143 79.3696429,41.0714286 80.3571429,41.0714286 L100,41.0714286 L100,37.5 L89.2857143,37.5 L89.2857143,12.5 L100,12.5 Z M61.4535714,35.7142857 L47.3857143,21.3714286 C46.7678571,20.7535714 46.4285714,19.7946429 46.4285714,18.9232143 C46.4285714,17.1214286 47.8928571,15.5875 49.6928571,15.5875 C50.5642857,15.5875 51.3839286,15.8928571 52.0017857,16.5107143 L61.2375,25.7267857 L63.7625,23.1928571 L54.5285714,13.9571429 C53.250075,12.6681389 51.5083629,11.9452127 49.6928571,11.95 C45.9196357,11.9549188 42.8620617,15.0124929 42.8571429,18.7857143 C42.8571429,20.6089286 43.5660714,22.325 44.8589286,23.6196429 L46.3035714,25.0642857 L13.3678571,30.7928571 C12.7086141,30.9098324 12.0314467,30.7283337 11.5190752,30.2973348 C11.0067038,29.8663359 10.7119274,29.2302507 10.7142857,28.5607143 C10.7142857,27.7571429 11.1446429,27.0071429 11.8375,26.6035714 L50.7928571,3.87857143 C51.4535714,3.49464286 52.2589286,3.46785714 52.9464286,3.81071429 L72.4142857,13.8214286 C72.6625,13.9446429 72.9375,14.2857143 73.2142857,14.2857143 L78.5714286,14.2857143 L78.5714286,35.7142857 L61.4535714,35.7142857 Z M82.1428571,12.5 L85.7142857,12.5 L85.7142857,37.5 L82.1428571,37.5 L82.1428571,12.5 Z" id="Shape"></path>
            <path d="M50,42.9428571 C47.0910714,40.3964286 42.5446429,40.4625 39.7196429,43.15 C38.3024575,44.4762553 37.4981824,46.3304578 37.4981824,48.2714286 C37.4981824,50.2123993 38.3024575,52.0666018 39.7196429,53.3928571 L48.7678571,62.0071429 C49.4569626,62.6641058 50.5402996,62.6648914 51.2303571,62.0089286 L60.2785714,53.3946429 C61.6960825,52.0683184 62.5007129,50.2139645 62.5010513,48.2727087 C62.5013897,46.3314529 61.6974057,44.4768186 60.2803571,43.15 L60.2803571,43.1482143 C57.4535714,40.4607143 52.9071429,40.3982143 50,42.9428571 Z M57.8178571,50.8053571 L50,58.2482143 L42.1821429,50.8053571 C41.4678571,50.1232143 41.0714286,49.2232143 41.0714286,48.2714286 C41.0714286,47.3196429 41.4660714,46.4178571 42.1821429,45.7357143 C42.9517857,45.0035714 43.9625,44.6375 44.9714286,44.6375 C45.9821429,44.6375 46.9928571,45.0035714 47.7607143,45.7357143 L48.7660714,46.6928571 C49.4571429,47.3482143 50.5375,47.3482143 51.2285714,46.6928571 L52.2339286,45.7357143 C53.7714286,44.2714286 56.2732143,44.2732143 57.8142857,45.7339286 C58.5339286,46.4178571 58.9285714,47.3196429 58.9285714,48.2714286 C58.9285714,49.2232143 58.5321429,50.1232143 57.8178571,50.8053571 Z" id="Shape"></path>
            <path d="M29.2785714,37.7946429 L26.3178571,35.7964286 C25.6071429,36.85 24.9607143,37.9571429 24.4017857,39.0839286 L27.6,40.675 C28.0875,39.6875 28.6535714,38.7196429 29.2785714,37.7946429 Z" id="Shape"></path>
            <path d="M22.0267857,57.6339286 C22.2875,58.8803571 22.6321429,60.1160714 23.0517857,61.3 L26.4178571,60.1107143 C26.048201,59.0621392 25.7487299,57.9901282 25.5214286,56.9017857 L22.0267857,57.6339286 Z" id="Shape"></path>
            <path d="M21.9589286,46.2821429 L25.4642857,46.9660714 C25.6767857,45.8767857 25.9642857,44.7946429 26.3196429,43.7482143 L22.9357143,42.6 C22.5303571,43.7964286 22.2035714,45.0357143 21.9589286,46.2821429 Z" id="Shape"></path>
            <path d="M21.4285714,51.7910714 C21.4303571,52.4857143 21.4553571,53.175 21.5035714,53.8589286 L25.0642857,53.6071429 C24.9836406,52.4975053 24.9770784,51.383725 25.0446429,50.2732143 L21.4803571,50.0535714 C21.4459903,50.6321018 21.4287209,51.2115212 21.4285714,51.7910714 Z" id="Shape"></path>
            <path d="M73.5785714,43.4535714 C73.95,44.5053571 74.25,45.5839286 74.4732143,46.6607143 L77.9714286,45.9357143 C77.7108668,44.6920512 77.3690626,43.4668054 76.9482143,42.2678571 L73.5785714,43.4535714 Z" id="Shape"></path>
            <path d="M70.7232143,65.7696429 L73.6803571,67.7714286 C74.3929528,66.719085 75.0342689,65.6201974 75.6,64.4821429 L72.4017857,62.8910714 C71.9084285,63.8876802 71.3476004,64.8494406 70.7232143,65.7696429 Z" id="Shape"></path>
            <path d="M73.6821429,59.8196429 L77.0660714,60.9678571 C77.4732143,59.7714286 77.8,58.5339286 78.0446429,57.2857143 L74.5392857,56.6017857 C74.3253029,57.6922389 74.0389554,58.7672353 73.6821429,59.8196429 Z" id="Shape"></path>
            <path d="M78.5714286,51.7910714 C78.5732143,51.0892857 78.5464286,50.3928571 78.4964286,49.7017857 L74.9357143,49.9625 C75.0167277,51.0709308 75.0232901,52.1835479 74.9553571,53.2928571 L78.5196429,53.5125 C78.5535714,52.9392857 78.5714286,52.3642857 78.5714286,51.7910714 Z" id="Shape"></path>
        </g>
    </g>
</svg>