<?xml version="1.0" encoding="UTF-8"?>
<svg width="148px" height="148px" viewBox="0 0 148 148" version="1.1" xmlns="http://www.w3.org/2000/svg" xmlns:xlink="http://www.w3.org/1999/xlink">
    <!-- Generator: Sketch 48.2 (47327) - http://www.bohemiancoding.com/sketch -->
    <title>modal_hurray</title>
    <desc>Created with Sketch.</desc>
    <defs></defs>
    <g id="assets" stroke="none" stroke-width="1" fill="none" fill-rule="evenodd">
        <g id="modal_hurray" transform="translate(0.000000, -2.000000)" fill="#00836A" fill-rule="nonzero">
            <path d="M147.540984,58.6229508 C147.24648,57.7480517 146.486776,57.1117997 145.57377,56.9754098 L97.5983607,49.5983607 L76.0081967,3.8852459 C75.6087219,3.00846148 74.7339912,2.44575799 73.7704918,2.44575799 C72.8069924,2.44575799 71.9322617,3.00846148 71.5327869,3.8852459 L50.0655738,49.6229508 L2.09016393,57 C1.18384307,57.1395947 0.430491283,57.7718971 0.135859875,58.6402844 C-0.158771533,59.5086717 0.0542715449,60.4688581 0.68852459,61.1311475 L35.4836066,96.7868852 L27.2704918,147.147541 C27.1588071,148.061431 27.5669955,148.961148 28.328241,149.479002 C29.0894865,149.996856 30.076242,150.04608 30.8852459,149.606557 L73.7704918,125.97541 L116.655738,149.704918 C117.018252,149.900595 117.424117,150.002061 117.836066,150 C118.562503,150.009369 119.255903,149.697034 119.730262,149.146777 C120.204621,148.596521 120.411382,147.864669 120.295082,147.147541 L112.057377,96.7622951 L146.852459,61.1065574 C147.532175,60.4749027 147.798448,59.514418 147.540984,58.6229508 Z M107.655738,94.2295082 C107.111258,94.7890554 106.864849,95.573916 106.991803,96.3442623 L114.590164,143.065574 L74.9508197,121.032787 C74.1899974,120.593526 73.2526256,120.593526 72.4918033,121.032787 L32.9508197,142.942623 L40.5491803,96.2213115 C40.6761351,95.4509652 40.4297253,94.6661046 39.8852459,94.1065574 L7.57377049,61.1065574 L52.1065574,54.295082 C52.9114459,54.1698622 53.6020908,53.6541807 53.9508197,52.9180328 L73.7704918,10.6967213 L93.5901639,52.9180328 C93.9388928,53.6541807 94.6295377,54.1698622 95.4344262,54.295082 L139.967213,61.1065574 L107.655738,94.2295082 Z" id="Shape"></path>
            <path d="M84.2459016,54.0983607 C83.608005,53.0372449 82.2806755,52.6158704 81.147541,53.1147541 L73.7704918,56.2868852 L66.3934426,53.1147541 C65.2603081,52.6158704 63.9329786,53.0372449 63.295082,54.0983607 L59.1885246,61.0327869 L51.3442623,62.8032787 C50.1427167,63.0697196 49.3231986,64.1834238 49.4262295,65.4098361 L50.1639344,73.4262295 L44.8770492,79.4754098 C44.0615266,80.4037039 44.0615266,81.7930174 44.8770492,82.7213115 L50.1639344,88.7704918 L49.4262295,96.7868852 C49.3793364,97.5154827 49.6586348,98.2272433 50.1885246,98.7295082 L42.5163934,106.401639 C41.8186609,107.108756 41.6149261,108.166237 42,109.081967 C42.3616845,110.019537 43.2574653,110.642689 44.2622951,110.655738 L51.6393443,110.655738 L51.6393443,118.032787 C51.6442995,119.025496 52.245675,119.91786 53.1639344,120.295082 C53.455769,120.432741 53.7757954,120.500115 54.0983607,120.491803 C54.7519746,120.495582 55.3801996,120.238983 55.8442623,119.778689 L66.5409836,109.081967 L73.7704918,105.959016 L81,109.081967 L91.6967213,119.778689 C92.160784,120.238983 92.7890091,120.495582 93.442623,120.491803 C93.7651882,120.500115 94.0852146,120.432741 94.3770492,120.295082 C95.2953086,119.91786 95.8966841,119.025496 95.9016393,118.032787 L95.9016393,110.655738 L103.278689,110.655738 C104.271398,110.650782 105.163762,110.049407 105.540984,109.131148 C105.926058,108.215417 105.722323,107.157936 105.02459,106.45082 L97.352459,98.7786885 C97.8823488,98.2764236 98.1616472,97.564663 98.1147541,96.8360656 L97.3770492,88.8196721 L102.663934,82.7704918 C103.479457,81.8421977 103.479457,80.4528842 102.663934,79.5245902 L97.3770492,73.4754098 L98.1147541,65.4590164 C98.217785,64.2326041 97.3982669,63.1189 96.1967213,62.852459 L88.352459,61.0819672 L84.2459016,54.0983607 Z M54.0983607,105.737705 L50.1885246,105.737705 L55.5491803,100.401639 L59.1885246,101.213115 L62.2622951,106.401639 L56.557377,112.106557 L56.557377,108.196721 C56.557377,106.838644 55.4564379,105.737705 54.0983607,105.737705 Z M93.442623,105.737705 C92.0845457,105.737705 90.9836066,106.838644 90.9836066,108.196721 L90.9836066,112.106557 L85.2786885,106.401639 L88.352459,101.213115 L91.9918033,100.401639 L97.352459,105.737705 L93.442623,105.737705 Z M92.9754098,75.9344262 L97.5491803,81.147541 L92.9754098,86.3606557 C92.5347324,86.8688212 92.3214522,87.5353218 92.3852459,88.204918 L93,95.1147541 L86.2377049,96.6639344 C85.5803822,96.8096354 85.0115497,97.2184837 84.6639344,97.795082 L81.147541,103.770492 L74.7540984,101.016393 C74.1269251,100.742673 73.4140585,100.742673 72.7868852,101.016393 L66.3934426,103.770492 L62.852459,97.795082 C62.5048437,97.2184837 61.9360113,96.8096354 61.2786885,96.6639344 L54.5163934,95.1147541 L55.1311475,88.204918 C55.1949413,87.5353218 54.9816611,86.8688212 54.5409836,86.3606557 L49.9918033,81.147541 L54.5655738,75.9344262 C55.0062512,75.4262608 55.2195314,74.7597602 55.1557377,74.0901639 L54.5409836,67.1803279 L61.3032787,65.6311475 C61.9606014,65.4854466 62.5294339,65.0765983 62.8770492,64.5 L66.3934426,58.5245902 L72.7622951,61.2786885 C73.3894684,61.5524094 74.1023349,61.5524094 74.7295082,61.2786885 L81.147541,58.5245902 L84.6885246,64.5 C85.0361399,65.0765983 85.6049723,65.4854466 86.2622951,65.6311475 L93.0245902,67.1803279 L92.4098361,74.0901639 C92.3392973,74.7562909 92.5435601,75.4223651 92.9754098,75.9344262 Z" id="Shape"></path>
            <path d="M73.7704918,66.3934426 C65.6220283,66.3934426 59.0163934,72.9990775 59.0163934,81.147541 C59.0163934,89.2960045 65.6220283,95.9016393 73.7704918,95.9016393 C81.9189553,95.9016393 88.5245902,89.2960045 88.5245902,81.147541 C88.5245902,72.9990775 81.9189553,66.3934426 73.7704918,66.3934426 Z M73.7704918,90.9836066 C68.3381828,90.9836066 63.9344262,86.57985 63.9344262,81.147541 C63.9344262,75.715232 68.3381828,71.3114754 73.7704918,71.3114754 C79.2028008,71.3114754 83.6065574,75.715232 83.6065574,81.147541 C83.6065574,86.57985 79.2028008,90.9836066 73.7704918,90.9836066 Z" id="Shape"></path>
            <path d="M145.081967,22.1311475 C135.575426,22.1311475 127.868852,14.4245736 127.868852,4.91803279 C127.868852,3.55995553 126.767913,2.45901639 125.409836,2.45901639 C124.051759,2.45901639 122.95082,3.55995553 122.95082,4.91803279 C122.95082,14.4245736 115.244246,22.1311475 105.737705,22.1311475 C104.379628,22.1311475 103.278689,23.2320867 103.278689,24.5901639 C103.278689,25.9482412 104.379628,27.0491803 105.737705,27.0491803 C115.244246,27.0491803 122.95082,34.7557543 122.95082,44.2622951 C122.95082,45.6203723 124.051759,46.7213115 125.409836,46.7213115 C126.767913,46.7213115 127.868852,45.6203723 127.868852,44.2622951 C127.868852,34.7557543 135.575426,27.0491803 145.081967,27.0491803 C146.440044,27.0491803 147.540984,25.9482412 147.540984,24.5901639 C147.540984,23.2320867 146.440044,22.1311475 145.081967,22.1311475 Z M125.409836,34.1311475 C123.289563,30.0429748 119.957025,26.7104366 115.868852,24.5901639 C119.957025,22.4698912 123.289563,19.137353 125.409836,15.0491803 C127.530109,19.137353 130.862647,22.4698912 134.95082,24.5901639 C130.862647,26.7104366 127.530109,30.0429748 125.409836,34.1311475 Z" id="Shape"></path>
            <path d="M2.45901639,113.114754 C7.89132541,113.114754 12.295082,117.518511 12.295082,122.95082 C12.295082,124.308897 13.3960211,125.409836 14.7540984,125.409836 C16.1121756,125.409836 17.2131148,124.308897 17.2131148,122.95082 C17.2131148,117.518511 21.6168713,113.114754 27.0491803,113.114754 C28.4072576,113.114754 29.5081967,112.013815 29.5081967,110.655738 C29.5081967,109.29766 28.4072576,108.196721 27.0491803,108.196721 C21.6168713,108.196721 17.2131148,103.792965 17.2131148,98.3606557 C17.2131148,97.0025785 16.1121756,95.9016393 14.7540984,95.9016393 C13.3960211,95.9016393 12.295082,97.0025785 12.295082,98.3606557 C12.295082,103.792965 7.89132541,108.196721 2.45901639,108.196721 C1.10093914,108.196721 0,109.29766 0,110.655738 C0,112.013815 1.10093914,113.114754 2.45901639,113.114754 Z M14.7540984,106.5 C15.8418663,108.153812 17.2560246,109.56797 18.9098361,110.655738 C17.2560246,111.743506 15.8418663,113.157664 14.7540984,114.811475 C13.6663304,113.157664 12.2521722,111.743506 10.5983607,110.655738 C12.2521722,109.56797 13.6663304,108.153812 14.7540984,106.5 Z" id="Shape"></path>
            <path d="M44.2622951,44.2622951 C44.2622951,27.965368 31.0510254,14.7540984 14.7540984,14.7540984 L14.7540984,19.6721311 C28.3348709,19.6721311 39.3442623,30.6815225 39.3442623,44.2622951 L44.2622951,44.2622951 Z" id="Shape"></path>
            <polygon id="Shape" points="4.91803279 14.7540984 9.83606557 14.7540984 9.83606557 19.6721311 4.91803279 19.6721311"></polygon>
            <path d="M130.327869,108.196721 C130.327869,101.406335 135.832565,95.9016393 142.622951,95.9016393 L142.622951,90.9836066 C133.11641,90.9836066 125.409836,98.6901805 125.409836,108.196721 L130.327869,108.196721 Z" id="Shape"></path>
            <path d="M63.9344262,150 C63.9344262,145.925768 67.2372436,142.622951 71.3114754,142.622951 L71.3114754,137.704918 C64.5210891,137.704918 59.0163934,143.209614 59.0163934,150 L63.9344262,150 Z" id="Shape"></path>
            <polygon id="Shape" points="76.2295082 137.704918 81.147541 137.704918 81.147541 142.622951 76.2295082 142.622951"></polygon>
        </g>
    </g>
</svg>