<?xml version="1.0" encoding="UTF-8"?>
<svg width="60px" height="60px" viewBox="0 0 60 60" version="1.1" xmlns="http://www.w3.org/2000/svg" xmlns:xlink="http://www.w3.org/1999/xlink">
    <!-- Generator: Sketch 48.2 (47327) - http://www.bohemiancoding.com/sketch -->
    <title>prep_email_small</title>
    <desc>Created with Sketch.</desc>
    <defs>
        <linearGradient x1="50%" y1="0%" x2="50%" y2="100%" id="linearGradient-1">
            <stop stop-color="#ADC2FF" offset="0%"></stop>
            <stop stop-color="#4169E1" offset="77.2773282%"></stop>
            <stop stop-color="#314FA8" offset="100%"></stop>
        </linearGradient>
    </defs>
    <g id="assets" stroke="none" stroke-width="1" fill="none" fill-rule="evenodd">
        <g id="prep_email_small" fill="url(#linearGradient-1)" fill-rule="nonzero">
            <path d="M2.031,55 L2,55 L2,60 L4,60 L4,55.899 C4.323,55.965 4.658,56 5,56 L9,56 L9,57 C9,58.654 10.346,60 12,60 L54.217,60 C55.7408565,60.0003451 57.0227143,58.8578571 57.197,57.344 L59.735,35.345 C59.8327282,34.4952706 59.5633507,33.6442019 58.9944956,33.0054572 C58.4256406,32.3667126 57.6113303,32.0009517 56.756,32 L35.481,32 L28.982,23.876 C28.0683634,22.7318038 26.6966736,22.0487031 25.233,22.009 C25.722,20.765 26,19.415 26,18 L26,8.91 C28.833,8.432 31,5.968 31,3 L31,1 C31,0.44771525 30.5522847,0 30,0 L11,0 C7.14,0 4,3.141 4,7 L4,18 C4,19.421 4.28,20.775 4.772,22.023 C2.123,22.145 0,24.321 0,27 L0,51 C0,52.641 0.806,54.088 2.031,55 Z M57.502,34.335 C57.694,34.551 57.782,34.827 57.749,35.115 L55.21,57.115 C55.1520499,57.6195093 54.7248265,58.0002673 54.217,58 L12,58 C11.449,58 11,57.552 11,57 L11,56 L24.461,56 C24.9689943,55.9997558 25.3960887,55.6186826 25.454,55.114 L27.788,34.885 C27.848,34.381 28.274,34 28.783,34 L56.756,34 C57.045,34 57.31,34.119 57.502,34.335 Z M22.164,23.426 L22.089,23.526 C21.6240793,24.1209618 21.0865749,24.6554428 20.489,25.117 C20.464,25.137 20.438,25.155 20.412,25.174 C20.121,25.394 19.819,25.597 19.504,25.78 L19.48,25.795 C18.8285172,26.1694691 18.132794,26.4610614 17.409,26.663 C17.35,26.68 17.29,26.694 17.23,26.709 C16.94,26.784 16.644,26.842 16.346,26.888 C16.262,26.901 16.179,26.916 16.095,26.926 C15.733,26.971 15.368,27 15,27 C14.632,27 14.267,26.971 13.906,26.927 C13.821,26.917 13.739,26.901 13.655,26.889 C13.3575388,26.8440778 13.0625051,26.7843368 12.771,26.71 L12.592,26.664 C11.8683566,26.4616284 11.172686,26.1700581 10.521,25.796 L10.497,25.781 C10.1825171,25.5972915 9.87930863,25.3949299 9.589,25.175 L9.512,25.118 C8.91419604,24.656704 8.37666077,24.1221924 7.912,23.527 L7.837,23.427 C7.62355624,23.1470945 7.42719931,22.8545627 7.249,22.551 C6.43200742,21.1734866 6.00060191,19.6015679 6,18 L6,16.92 C9.387,16.432 12,13.519 12,10 L12,9 L24,9 L24,18 C23.9994232,19.6011222 23.5683782,21.1726404 22.752,22.55 C22.5728627,22.8529723 22.376542,23.14545 22.164,23.426 Z M6,7 C6,4.243 8.243,2 11,2 L29,2 L29,3 C29,5.206 27.206,7 25,7 L11,7 C10.4477153,7 10,7.44771525 10,8 L10,10 C9.99691382,12.3748629 8.32626176,14.420994 6,14.899 L6,7 Z M2,27 C2,25.346 3.346,24 5,24 L5.791,24 L5.801,24.014 C6.048,24.391 6.318,24.752 6.608,25.096 L6.643,25.134 C6.95678955,25.4980884 7.29382816,25.8414736 7.652,26.162 C7.941,26.423 8.243,26.669 8.559,26.898 C8.588,26.919 8.616,26.942 8.646,26.963 C9.36,27.471 10.135,27.894 10.961,28.222 L11.061,28.259 C11.416,28.396 11.78,28.514 12.152,28.614 C12.239,28.637 12.325,28.66 12.413,28.681 C12.742,28.761 13.076,28.824 13.415,28.873 C13.515,28.888 13.613,28.907 13.714,28.919 C14.136,28.968 14.564,29 15,29 C15.436,29 15.864,28.968 16.287,28.918 C16.388,28.906 16.486,28.887 16.586,28.872 C16.925,28.823 17.259,28.759 17.588,28.68 C17.675,28.659 17.762,28.636 17.849,28.613 C18.221,28.513 18.585,28.395 18.94,28.258 L19.04,28.221 C19.8594236,27.8958175 20.6366897,27.4731056 21.355,26.962 C21.384,26.941 21.412,26.918 21.442,26.897 C21.8148952,26.6271519 22.170277,26.3338951 22.506,26.019 C22.805,25.739 23.091,25.445 23.358,25.133 L23.393,25.095 C23.684,24.752 23.953,24.391 24.2,24.013 L24.21,23.999 L25.078,23.999 C25.994,23.999 26.848,24.409 27.421,25.125 L32.919,32 L28.782,32 C27.2581435,31.9996549 25.9762857,33.1421429 25.802,34.656 L23.57,54 L21.93,54 C21.435,50.06 18.071,47 13.999,47 L8.999,47 L8.999,36 L7,36 L7,48 C7,48.5522847 7.44771525,49 8,49 L14,49 C16.9266601,49.003665 19.4251672,51.1149604 19.917,54 L5,54 C3.346,54 2,52.654 2,51 L2,27 Z" id="Shape"></path>
            <path d="M42,49 C44.206,49 46,47.206 46,45 C46,42.794 44.206,41 42,41 C39.794,41 38,42.794 38,45 C38,47.206 39.794,49 42,49 Z M42,43 C43.103,43 44,43.897 44,45 C44,46.103 43.103,47 42,47 C40.897,47 40,46.103 40,45 C40,43.897 40.897,43 42,43 Z" id="Shape"></path>
            <path d="M48.515,0.143 C48.1980114,-0.0459118192 47.8029886,-0.0459118192 47.486,0.143 L37.486,6.143 L37.489,6.149 C37.1875522,6.32680037 37.0018198,6.65002796 37,7 L37,21 C37,21.5522847 37.4477153,22 38,22 L58,22 C58.5522847,22 59,21.5522847 59,21 L59,7 C58.9979338,6.64983168 58.8123125,6.32641778 58.511,6.148 L58.514,6.142 L48.515,0.143 Z M57,19.079 L49.744,14 L57,8.921 L57,19.079 Z M48,15.221 L54.828,20 L41.172,20 L48,15.221 Z M39,19.079 L39,8.921 L46.256,14 L39,19.079 Z M48,2.166 L56.164,7.065 L48,12.779 L39.836,7.064 L48,2.166 Z" id="Shape"></path>
            <polygon id="Shape" points="47 24 49 24 49 26 47 26"></polygon>
            <polygon id="Shape" points="47 28 49 28 49 30 47 30"></polygon>
            <polygon id="Shape" points="51 28 53 28 53 30 51 30"></polygon>
            <polygon id="Shape" points="43 28 45 28 45 30 43 30"></polygon>
            <path d="M10,18 L8,18 C8,21.859 11.14,25 15,25 L15,23 C12.243,23 10,20.757 10,18 Z" id="Shape"></path>
        </g>
    </g>
</svg>