<?xml version="1.0" encoding="UTF-8"?>
<svg width="60px" height="60px" viewBox="0 0 60 60" version="1.1" xmlns="http://www.w3.org/2000/svg" xmlns:xlink="http://www.w3.org/1999/xlink">
    <!-- Generator: Sketch 48.2 (47327) - http://www.bohemiancoding.com/sketch -->
    <title>prepare_small</title>
    <desc>Created with Sketch.</desc>
    <defs>
        <linearGradient x1="50%" y1="0%" x2="50%" y2="100%" id="linearGradient-1">
            <stop stop-color="#ADC2FF" offset="0%"></stop>
            <stop stop-color="#4169E1" offset="77.2773282%"></stop>
            <stop stop-color="#314FA8" offset="100%"></stop>
        </linearGradient>
    </defs>
    <g id="assets" stroke="none" stroke-width="1" fill="none" fill-rule="evenodd">
        <g id="prepare_small" fill="url(#linearGradient-1)" fill-rule="nonzero">
            <path d="M59.38,9.07007505 L37.38,0.0700750477 C37.2590887,0.0222592965 37.1300129,-0.00151781658 37,7.50477107e-05 L33,7.50477107e-05 C32.4477153,7.50477107e-05 32,0.447790298 32,1.00007505 L32,29.000075 L28,29.000075 L28,24.000075 C28,20.1340818 24.8659932,17.000075 21,17.000075 L19.27,17.000075 C21.7771657,14.8048611 22.6609632,11.2854166 21.488363,8.16614534 C20.3157628,5.04687411 17.3323932,2.9811798 14,2.9811798 C10.6676068,2.9811798 7.68423716,5.04687411 6.51163696,8.16614534 C5.33903676,11.2854166 6.22283433,14.8048611 8.73,17.000075 L7,17.000075 C3.13400675,17.000075 4.4408921e-16,20.1340818 0,24.000075 L0,38.000075 C0,38.5523598 0.44771525,39.000075 1,39.000075 L6,39.000075 L6,59.000075 C6,59.5523598 6.44771525,60.000075 7,60.000075 L21,60.000075 C21.5522847,60.000075 22,59.5523598 22,59.000075 L22,36.000075 C22.8627124,36.6544521 23.9172039,37.0059493 25,37.000075 L32,37.000075 L32,59.000075 C32,59.5523598 32.4477153,60.000075 33,60.000075 L37,60.000075 C37.5522847,60.000075 38,59.5523598 38,59.000075 L38,19.670075 L59.38,10.930075 C59.76168,10.7792255 60.0124405,10.4104837 60.0124405,10.000075 C60.0124405,9.58966643 59.76168,9.22092464 59.38,9.07007505 Z M15.56,19.000075 L14,23.150075 L12.44,19.000075 L15.56,19.000075 Z M8,11.000075 C8,7.68636655 10.6862915,5.00007505 14,5.00007505 C17.3137085,5.00007505 20,7.68636655 20,11.000075 C20,14.3137835 17.3137085,17.000075 14,17.000075 C10.6862915,17.000075 8,14.3137835 8,11.000075 Z M25,35.000075 C23.3431458,35.000075 22,33.6569293 22,32.000075 L22,24.000075 L20,24.000075 L20,58.000075 L15,58.000075 L15,37.000075 L13,37.000075 L13,58.000075 L8,58.000075 L8,24.000075 L6,24.000075 L6,37.000075 L2,37.000075 L2,24.000075 C2,21.2386513 4.23857625,19.000075 7,19.000075 L10.31,19.000075 L13.06,26.350075 C13.2035417,26.7455595 13.5792718,27.0089006 14,27.0089006 C14.4207282,27.0089006 14.7964583,26.7455595 14.94,26.350075 L17.69,19.000075 L21,19.000075 C23.7614237,19.000075 26,21.2386513 26,24.000075 L26,30.000075 C26,30.5523598 26.4477153,31.000075 27,31.000075 L32,31.000075 L32,35.000075 L25,35.000075 Z M36,58.000075 L34,58.000075 L34,2.00007505 L36,2.00007505 L36,58.000075 Z M38,17.510075 L38,2.51007505 L56.36,10.000075 L38,17.510075 Z" id="Shape"></path>
            <polygon id="Shape" points="13 29 15 29 15 31 13 31"></polygon>
        </g>
    </g>
</svg>