<?xml version="1.0" encoding="UTF-8"?>
<svg width="883px" height="78px" viewBox="0 0 883 78" version="1.1" xmlns="http://www.w3.org/2000/svg" xmlns:xlink="http://www.w3.org/1999/xlink">
    <!-- Generator: Sketch 48.2 (47327) - http://www.bohemiancoding.com/sketch -->
    <title>progress_bar3</title>
    <desc>Created with Sketch.</desc>
    <defs>
        <rect id="path-1" x="0" y="0" width="979" height="655" rx="2"></rect>
        <filter x="-1.4%" y="-1.5%" width="102.9%" height="104.3%" filterUnits="objectBoundingBox" id="filter-2">
            <feOffset dx="0" dy="4" in="SourceAlpha" result="shadowOffsetOuter1"></feOffset>
            <feGaussianBlur stdDeviation="4" in="shadowOffsetOuter1" result="shadowBlurOuter1"></feGaussianBlur>
            <feColorMatrix values="0 0 0 0 0.0470588235   0 0 0 0 0   0 0 0 0 0.2  0 0 0 0.1 0" type="matrix" in="shadowBlurOuter1"></feColorMatrix>
        </filter>
    </defs>
    <g id="GET_THEM_READY_2/3" stroke="none" stroke-width="1" fill="none" fill-rule="evenodd" transform="translate(-76.000000, -147.000000)">
        <g id="card" transform="translate(30.000000, 114.000000)">
            <g id="Rectangle-2">
                <use fill="black" fill-opacity="1" filter="url(#filter-2)" xlink:href="#path-1"></use>
                <use fill="#FFFFFF" fill-rule="evenodd" xlink:href="#path-1"></use>
            </g>
        </g>
        <g id="Group-4" transform="translate(76.000000, 147.000000)">
            <g id="PROG_BAR">
                <rect id="Rectangle-3" fill="#4169E1" x="45" y="15" width="382" height="6" rx="3"></rect>
                <g id="item">
                    <g id="done" transform="translate(27.000000, 0.000000)">
                        <circle id="Oval-3" fill="#4169E1" cx="18" cy="18" r="18"></circle>
                        <path d="M27.6470588,11.3461538 C27.1764706,10.8846154 26.4705882,10.8846154 26,11.3461538 L13.8823529,23.2307692 L10,19.4230769 C9.52941176,18.9615385 8.82352941,18.9615385 8.35294118,19.4230769 C7.88235294,19.8846154 7.88235294,20.5769231 8.35294118,21.0384615 L13.0588235,25.6538462 C13.2941176,25.8846154 13.6470588,26 13.8823529,26 C14.1176471,26 14.4705882,25.8846154 14.7058824,25.6538462 L27.6470588,12.9615385 C28.1176471,12.5 28.1176471,11.8076923 27.6470588,11.3461538 Z" id="Shape" fill="#FFFFFF" fill-rule="nonzero"></path>
                    </g>
                    <path d="M4.359375,48.2861328 L5.67871094,48.2861328 L9.13085938,58 L7.95507812,58 L6.97070312,55.1767578 L2.96484375,55.1767578 L1.98046875,58 L0.907226562,58 L4.359375,48.2861328 Z M4.96777344,49.4208984 L3.31347656,54.1582031 L6.61523438,54.1582031 L4.96777344,49.4208984 Z M15.7548828,48.2109375 C16.8486383,48.2109375 17.889969,48.4866509 18.8789062,49.0380859 L18.4208984,49.90625 C18.0745425,49.7239574 17.6712263,49.5667324 17.2109375,49.4345703 C16.7506487,49.3024082 16.2858096,49.2363281 15.8164062,49.2363281 C15.3378882,49.2363281 14.8764671,49.3251944 14.4321289,49.5029297 C13.9877907,49.680665 13.5924496,49.9301742 13.2460938,50.2514648 C12.8997379,50.5727555 12.6228852,50.9783504 12.4155273,51.4682617 C12.2081695,51.958173 12.1044922,52.4947887 12.1044922,53.078125 C12.1044922,53.8483111 12.2753889,54.5410125 12.6171875,55.15625 C12.9589861,55.7714875 13.4306611,56.2499983 14.0322266,56.5917969 C14.6337921,56.9335955 15.3059859,57.1044922 16.0488281,57.1044922 C16.9283898,57.1044922 17.6438775,56.8401719 18.1953125,56.3115234 L18.1953125,53.8300781 L15.4335938,53.8300781 L15.4335938,52.8730469 L19.3232422,52.8730469 L19.3232422,56.6875 C19.2001947,56.8287767 19.0577808,56.9654941 18.8959961,57.0976562 C18.7342114,57.2298184 18.5086277,57.3824861 18.2192383,57.5556641 C17.9298488,57.728842 17.5732443,57.8689773 17.1494141,57.9760742 C16.7255838,58.0831711 16.2675806,58.1367188 15.7753906,58.1367188 C15.128252,58.1367188 14.532392,58.0398773 13.987793,57.8461914 C13.4431939,57.6525055 12.98633,57.3938818 12.6171875,57.0703125 C12.248045,56.7467432 11.9358737,56.3696311 11.6806641,55.9389648 C11.4254545,55.5082986 11.2386074,55.0582706 11.1201172,54.5888672 C11.001627,54.1194638 10.9423828,53.640953 10.9423828,53.1533203 C10.9423828,52.6429011 11.0073236,52.1473006 11.137207,51.6665039 C11.2670905,51.1857072 11.46647,50.7356792 11.7353516,50.3164062 C12.0042331,49.8971333 12.3266583,49.5314143 12.7026367,49.2192383 C13.0786152,48.9070622 13.5286432,48.660971 14.0527344,48.480957 C14.5768255,48.3009431 15.1442027,48.2109375 15.7548828,48.2109375 Z M28.7431641,50.9521484 C28.7431641,51.2757178 28.7044275,51.5833319 28.6269531,51.875 C28.5494788,52.1666681 28.4287118,52.4446601 28.2646484,52.7089844 C28.1005851,52.9733086 27.8738621,53.2023102 27.5844727,53.3959961 C27.2950832,53.589682 26.9567077,53.7320959 26.5693359,53.8232422 L29.3105469,58 L28.0117188,58 L25.3798828,53.953125 L23.5,53.953125 L23.5,58 L22.3310547,58 L22.3310547,48.2861328 L25.8994141,48.2861328 C26.0634774,48.2861328 26.2115879,48.2906901 26.34375,48.2998047 C26.4759121,48.3089193 26.6456695,48.3328449 26.8530273,48.371582 C27.0603852,48.4103192 27.2438143,48.4627275 27.4033203,48.5288086 C27.5628263,48.5948897 27.7303051,48.6951491 27.9057617,48.8295898 C28.0812183,48.9640306 28.2270502,49.1223949 28.3432617,49.3046875 C28.4594732,49.4869801 28.5551754,49.7193996 28.6303711,50.0019531 C28.7055668,50.2845066 28.7431641,50.6012352 28.7431641,50.9521484 Z M23.5,52.9277344 L25.1748047,52.9277344 C25.4072277,52.9277344 25.6123038,52.9197592 25.7900391,52.9038086 C25.9677743,52.887858 26.1762683,52.8445642 26.4155273,52.7739258 C26.6547864,52.7032874 26.8530266,52.6053066 27.0102539,52.4799805 C27.1674813,52.3546543 27.30192,52.1723645 27.4135742,51.9331055 C27.5252284,51.6938465 27.5810547,51.4101579 27.5810547,51.0820312 C27.5810547,50.8496082 27.5514326,50.6399749 27.4921875,50.453125 C27.4329424,50.2662751 27.3577479,50.1124681 27.2666016,49.9916992 C27.1754553,49.8709304 27.0638027,49.7661137 26.9316406,49.6772461 C26.7994785,49.5883785 26.6718756,49.5211591 26.5488281,49.4755859 C26.4257806,49.4300128 26.2890633,49.3935548 26.1386719,49.3662109 C25.9882805,49.3388671 25.8640955,49.3217774 25.7661133,49.3149414 C25.668131,49.3081054 25.5644537,49.3046875 25.4550781,49.3046875 L23.5,49.3046875 L23.5,52.9277344 Z M32.1611328,58 L32.1611328,48.2861328 L37.8554688,48.2861328 L37.8554688,49.3115234 L33.3232422,49.3115234 L33.3232422,52.4833984 L37.4794922,52.4833984 L37.4794922,53.5087891 L33.3232422,53.5087891 L33.3232422,56.9746094 L37.8554688,56.9746094 L37.8554688,58 L32.1611328,58 Z M40.9316406,58 L40.9316406,48.2861328 L46.6259766,48.2861328 L46.6259766,49.3115234 L42.09375,49.3115234 L42.09375,52.4833984 L46.25,52.4833984 L46.25,53.5087891 L42.09375,53.5087891 L42.09375,56.9746094 L46.6259766,56.9746094 L46.6259766,58 L40.9316406,58 Z M49.7021484,48.2861328 L51.3427734,48.2861328 L54.4599609,54.1787109 L57.625,48.2861328 L59.1630859,48.2861328 L59.1630859,58 L58.0009766,58 L58.0009766,49.9541016 L55.0136719,55.2177734 L53.8515625,55.2177734 L50.8642578,49.9541016 L50.8642578,58 L49.7021484,58 L49.7021484,48.2861328 Z M62.5810547,58 L62.5810547,48.2861328 L68.2753906,48.2861328 L68.2753906,49.3115234 L63.7431641,49.3115234 L63.7431641,52.4833984 L67.8994141,52.4833984 L67.8994141,53.5087891 L63.7431641,53.5087891 L63.7431641,56.9746094 L68.2753906,56.9746094 L68.2753906,58 L62.5810547,58 Z M71.3515625,48.2861328 L72.8212891,48.2861328 L78.1123047,56.4140625 L78.1123047,48.2861328 L79.2744141,48.2861328 L79.2744141,58 L77.8046875,58 L72.5136719,49.8583984 L72.5136719,58 L71.3515625,58 L71.3515625,48.2861328 Z M81.2910156,48.2861328 L88.9472656,48.2861328 L88.9472656,49.3115234 L85.7001953,49.3115234 L85.7001953,58 L84.5380859,58 L84.5380859,49.3115234 L81.2910156,49.3115234 L81.2910156,48.2861328 Z M8.42333984,68.2861328 L16.0795898,68.2861328 L16.0795898,69.3115234 L12.8325195,69.3115234 L12.8325195,78 L11.6704102,78 L11.6704102,69.3115234 L8.42333984,69.3115234 L8.42333984,68.2861328 Z M18.0961914,78 L18.0961914,68.2861328 L23.7905273,68.2861328 L23.7905273,69.3115234 L19.2583008,69.3115234 L19.2583008,72.4833984 L23.4145508,72.4833984 L23.4145508,73.5087891 L19.2583008,73.5087891 L19.2583008,76.9746094 L23.7905273,76.9746094 L23.7905273,78 L18.0961914,78 Z M26.8666992,68.2861328 L28.5073242,68.2861328 L31.6245117,74.1787109 L34.7895508,68.2861328 L36.3276367,68.2861328 L36.3276367,78 L35.1655273,78 L35.1655273,69.9541016 L32.1782227,75.2177734 L31.0161133,75.2177734 L28.0288086,69.9541016 L28.0288086,78 L26.8666992,78 L26.8666992,68.2861328 Z M39.7456055,68.2861328 L42.9516602,68.2861328 C43.1020515,68.2861328 43.2262365,68.2872721 43.3242188,68.2895508 C43.422201,68.2918294 43.564615,68.3009439 43.7514648,68.3168945 C43.9383147,68.3328451 44.0978183,68.3556314 44.2299805,68.3852539 C44.3621426,68.4148765 44.5182283,68.4604489 44.6982422,68.5219727 C44.8782561,68.5834964 45.0320632,68.655273 45.159668,68.7373047 C45.2872728,68.8193363 45.4205722,68.9275709 45.5595703,69.0620117 C45.6985684,69.1964525 45.8102209,69.3457023 45.8945312,69.5097656 C45.9788416,69.6738289 46.0483396,69.8720692 46.1030273,70.1044922 C46.1577151,70.3369152 46.1850586,70.592121 46.1850586,70.8701172 C46.1850586,71.2711609 46.1394861,71.6311833 46.0483398,71.9501953 C45.9571936,72.2692073 45.8398445,72.5358062 45.6962891,72.75 C45.5527337,72.9641938 45.3670259,73.1487622 45.1391602,73.3037109 C44.9112944,73.4586596 44.6857108,73.5782873 44.4624023,73.6625977 C44.2390939,73.746908 43.975913,73.812988 43.6728516,73.8608398 C43.3697902,73.9086916 43.098634,73.9394531 42.859375,73.953125 C42.620116,73.9667969 42.3432633,73.9736328 42.0288086,73.9736328 C41.7189112,73.9736328 41.345217,73.9576825 40.9077148,73.9257812 L40.9077148,78 L39.7456055,78 L39.7456055,68.2861328 Z M40.9077148,72.9003906 C41.345217,72.9368491 41.7599264,72.9550781 42.1518555,72.9550781 C42.3751639,72.9550781 42.562011,72.9527995 42.7124023,72.9482422 C42.8627937,72.9436849 43.0473622,72.9277345 43.2661133,72.9003906 C43.4848644,72.8730467 43.6671542,72.8354495 43.8129883,72.7875977 C43.9588223,72.7397459 44.1137687,72.6679692 44.277832,72.5722656 C44.4418954,72.476562 44.5729162,72.3637702 44.6708984,72.2338867 C44.7688807,72.1040033 44.8497718,71.9399424 44.9135742,71.7416992 C44.9773766,71.543456 45.0092773,71.316733 45.0092773,71.0615234 C45.0092773,70.7971992 44.975098,70.5636403 44.9067383,70.3608398 C44.8383786,70.1580394 44.7392585,69.9951178 44.609375,69.8720703 C44.4794915,69.7490228 44.3427742,69.6476241 44.1992188,69.5678711 C44.0556633,69.4881181 43.882488,69.4311525 43.6796875,69.3969727 C43.476887,69.3627928 43.2991544,69.3400066 43.1464844,69.3286133 C42.9938143,69.31722 42.8126638,69.3115234 42.6030273,69.3115234 L40.9077148,69.3115234 L40.9077148,72.9003906 Z M48.8989258,68.2861328 L50.0610352,68.2861328 L50.0610352,76.9814453 L54.4223633,76.9814453 L54.4223633,78 L48.8989258,78 L48.8989258,68.2861328 Z M59.0024414,68.2861328 L60.3217773,68.2861328 L63.7739258,78 L62.5981445,78 L61.6137695,75.1767578 L57.6079102,75.1767578 L56.6235352,78 L55.550293,78 L59.0024414,68.2861328 Z M59.6108398,69.4208984 L57.956543,74.1582031 L61.2583008,74.1582031 L59.6108398,69.4208984 Z M64.6967773,68.2861328 L72.3530273,68.2861328 L72.3530273,69.3115234 L69.105957,69.3115234 L69.105957,78 L67.9438477,78 L67.9438477,69.3115234 L64.6967773,69.3115234 L64.6967773,68.2861328 Z M74.3696289,78 L74.3696289,68.2861328 L80.0639648,68.2861328 L80.0639648,69.3115234 L75.5317383,69.3115234 L75.5317383,72.4833984 L79.6879883,72.4833984 L79.6879883,73.5087891 L75.5317383,73.5087891 L75.5317383,76.9746094 L80.0639648,76.9746094 L80.0639648,78 L74.3696289,78 Z" id="AGREEMENT-TEMPLATE" fill="#0B0C0C"></path>
                </g>
            </g>
            <g id="PROG_BAR" transform="translate(383.000000, 0.000000)">
                <rect id="Rectangle-3" fill="#4169E1" x="74" y="15" width="370" height="6" rx="3"></rect>
                <g id="ITEM" transform="translate(0.500000, 0.000000)">
                    <path d="M3.14453125,50.3115234 L3.14453125,57.9746094 L4.55957031,57.9746094 C4.76464946,57.9746094 4.93440688,57.9723308 5.06884766,57.9677734 C5.20328843,57.9632161 5.38557828,57.9495444 5.61572266,57.9267578 C5.84586704,57.9039712 6.04410724,57.8697919 6.21044922,57.8242188 C6.3767912,57.7786456 6.56591691,57.7125655 6.77783203,57.6259766 C6.98974715,57.5393876 7.17773355,57.4345709 7.34179688,57.3115234 C7.5058602,57.1884759 7.66992105,57.031251 7.83398438,56.8398438 C7.9980477,56.6484365 8.14160095,56.4319674 8.26464844,56.1904297 C8.56543119,55.6116508 8.71582031,54.9075562 8.71582031,54.078125 C8.71582031,53.5039034 8.63265057,52.9855166 8.46630859,52.5229492 C8.29996662,52.0603818 8.07894018,51.684409 7.80322266,51.3950195 C7.52750513,51.1056301 7.23356276,50.8766284 6.92138672,50.7080078 C6.60921068,50.5393872 6.28222827,50.425456 5.94042969,50.3662109 C5.73990785,50.3297524 5.43685099,50.3115234 5.03125,50.3115234 L3.14453125,50.3115234 Z M4.99023438,49.2861328 C5.61914377,49.2861328 6.19107815,49.3487949 6.70605469,49.4741211 C7.22103122,49.5994472 7.65283029,49.7760405 8.00146484,50.0039062 C8.3500994,50.231772 8.64973833,50.4892564 8.90039062,50.7763672 C9.15104292,51.063478 9.34586519,51.3836245 9.48486328,51.7368164 C9.62386137,52.0900083 9.7252601,52.4374983 9.7890625,52.7792969 C9.8528649,53.1210955 9.88476562,53.4765607 9.88476562,53.8457031 C9.88476562,54.2695334 9.8528649,54.6774069 9.7890625,55.0693359 C9.7252601,55.461265 9.61474688,55.860024 9.45751953,56.265625 C9.30029218,56.671226 9.09977335,57.0346664 8.85595703,57.355957 C8.61214071,57.6772477 8.29655142,57.9666328 7.90917969,58.2241211 C7.52180796,58.4816094 7.08203371,58.6718744 6.58984375,58.7949219 C6.33463414,58.8587243 6.04980626,58.9065754 5.73535156,58.9384766 C5.42089687,58.9703778 5.16113384,58.9886067 4.95605469,58.9931641 C4.75097554,58.9977214 4.46159041,59 4.08789062,59 L1.98242188,59 L1.98242188,49.2861328 L4.99023438,49.2861328 Z M17.0214844,49.1835938 C17.6640657,49.1835938 18.2644829,49.2963856 18.8227539,49.5219727 C19.3810249,49.7475597 19.864093,50.0654276 20.2719727,50.4755859 C20.6798523,50.8857442 20.9999988,51.3972951 21.2324219,52.0102539 C21.4648449,52.6232127 21.5810547,53.2965458 21.5810547,54.0302734 C21.5810547,55.023768 21.3839538,55.9067344 20.9897461,56.6791992 C20.5955384,57.451664 20.0486689,58.0486633 19.3491211,58.4702148 C18.6495733,58.8917664 17.8577518,59.1025391 16.9736328,59.1025391 C16.3902966,59.1025391 15.8320339,58.9988617 15.2988281,58.7915039 C14.7656223,58.5841461 14.2848329,58.2822285 13.8564453,57.8857422 C13.4280578,57.4892558 13.0862643,56.9708691 12.8310547,56.3305664 C12.5758451,55.6902637 12.4482422,54.9690795 12.4482422,54.1669922 C12.4482422,53.4150353 12.564452,52.7268911 12.796875,52.1025391 C13.029298,51.478187 13.3483053,50.9529644 13.7539062,50.5268555 C14.1595072,50.1007466 14.6425753,49.7703462 15.203125,49.5356445 C15.7636747,49.3009428 16.3697884,49.1835938 17.0214844,49.1835938 Z M16.9599609,50.2021484 C16.5452453,50.2021484 16.1464863,50.2796216 15.7636719,50.4345703 C15.3808575,50.589519 15.0288102,50.816242 14.7075195,51.1147461 C14.3862289,51.4132502 14.1287445,51.8142878 13.9350586,52.3178711 C13.7413727,52.8214543 13.6445312,53.3899708 13.6445312,54.0234375 C13.6445312,54.6295603 13.7333975,55.1889623 13.9111328,55.7016602 C14.0888681,56.214358 14.3304021,56.6438785 14.6357422,56.9902344 C14.9410823,57.3365903 15.302244,57.6054678 15.7192383,57.796875 C16.1362326,57.9882822 16.583982,58.0839844 17.0625,58.0839844 C17.3860693,58.0839844 17.7039372,58.0361333 18.0161133,57.9404297 C18.3282893,57.8447261 18.6279283,57.6931977 18.9150391,57.4858398 C19.2021499,57.278482 19.4539377,57.0244156 19.6704102,56.7236328 C19.8868826,56.4228501 20.0600579,56.0514345 20.1899414,55.609375 C20.3198249,55.1673155 20.3847656,54.6819688 20.3847656,54.1533203 C20.3847656,53.6155572 20.3164069,53.1233746 20.1796875,52.6767578 C20.0429681,52.230141 19.8618175,51.8564468 19.6362305,51.5556641 C19.4106434,51.2548813 19.1486018,51.0008148 18.8500977,50.793457 C18.5515936,50.5860992 18.2439794,50.4357101 17.9272461,50.3422852 C17.6105127,50.2488602 17.2880876,50.2021484 16.9599609,50.2021484 Z M29.2441406,49.2177734 C30.1282596,49.2177734 31.0078081,49.3909488 31.8828125,49.7373047 L31.5273437,50.7011719 C30.6432247,50.3958318 29.8707715,50.2431641 29.2099609,50.2431641 C28.6630832,50.2431641 28.1560896,50.3513987 27.6889648,50.5678711 C27.2218401,50.7843435 26.8344742,51.0737287 26.5268555,51.4360352 C26.2192367,51.7983417 25.978842,52.213051 25.8056641,52.6801758 C25.6324861,53.1473005 25.5458984,53.6360652 25.5458984,54.1464844 C25.5458984,54.6751329 25.6381827,55.1775692 25.8227539,55.6538086 C26.0073251,56.130048 26.2659489,56.547036 26.5986328,56.9047852 C26.9313168,57.2625343 27.3448869,57.5462229 27.8393555,57.7558594 C28.3338241,57.9654958 28.8749971,58.0703125 29.4628906,58.0703125 C30.1647171,58.0703125 30.896155,57.9335951 31.6572266,57.6601562 L32.0126953,58.5214844 C31.0602166,58.9316427 30.1123094,59.1367188 29.1689453,59.1367188 C28.5856091,59.1367188 28.0387395,59.0524097 27.5283203,58.8837891 C27.0179011,58.7151684 26.5724303,58.4793309 26.1918945,58.1762695 C25.8113588,57.8732081 25.4843764,57.514325 25.2109375,57.0996094 C24.9374986,56.6848938 24.7312832,56.2280298 24.5922852,55.7290039 C24.4532871,55.229978 24.3837891,54.7047554 24.3837891,54.1533203 C24.3837891,53.2190708 24.5786113,52.3805376 24.9682617,51.6376953 C25.3579121,50.8948531 25.9241499,50.305829 26.6669922,49.8706055 C27.4098344,49.4353819 28.2688753,49.2177734 29.2441406,49.2177734 Z M34.4052734,49.2861328 L35.5673828,49.2861328 L35.5673828,55.5820312 C35.5673828,55.969403 35.6004228,56.3020819 35.6665039,56.5800781 C35.732585,56.8580743 35.8727203,57.1178373 36.0869141,57.359375 C36.5426455,57.8743515 37.2148393,58.1318359 38.1035156,58.1318359 C38.746097,58.1318359 39.2827127,57.9917006 39.7133789,57.7114258 C40.1440451,57.4311509 40.4231764,57.0358098 40.5507812,56.5253906 C40.6100263,56.283853 40.6396484,55.969403 40.6396484,55.5820312 L40.6396484,49.2861328 L41.7880859,49.2861328 C41.7880859,50.7490308 41.7892252,51.9453079 41.7915039,52.875 C41.7937826,53.8046921 41.7949219,54.4005521 41.7949219,54.6625977 C41.7949219,54.9246432 41.7960612,55.1342766 41.7983398,55.2915039 C41.8006185,55.4487313 41.8017578,55.5797521 41.8017578,55.6845703 C41.8017578,55.8942068 41.7972006,56.0776359 41.7880859,56.2348633 C41.7789713,56.3920906 41.7482099,56.598306 41.6958008,56.8535156 C41.6433917,57.1087252 41.571615,57.330891 41.4804688,57.5200195 C41.3893225,57.7091481 41.2514658,57.9108062 41.0668945,58.125 C40.8823233,58.3391938 40.6635755,58.5157871 40.4106445,58.6547852 C40.1577136,58.7937832 39.8341491,58.9088537 39.4399414,59 C39.0457337,59.0911463 38.6002629,59.1367188 38.1035156,59.1367188 C37.5703098,59.1367188 37.091799,59.0808925 36.6679688,58.9692383 C36.2441385,58.8575841 35.9114595,58.7242846 35.6699219,58.5693359 C35.4283842,58.4143872 35.2198902,58.2275402 35.0444336,58.0087891 C34.868977,57.790038 34.74821,57.6020516 34.6821289,57.4448242 C34.6160478,57.2875969 34.5625002,57.1223967 34.5214844,56.9492188 C34.44401,56.648436 34.4052734,56.2223335 34.4052734,55.6708984 L34.4052734,49.2861328 Z M45.2197266,49.2861328 L46.8603516,49.2861328 L49.9775391,55.1787109 L53.1425781,49.2861328 L54.6806641,49.2861328 L54.6806641,59 L53.5185547,59 L53.5185547,50.9541016 L50.53125,56.2177734 L49.3691406,56.2177734 L46.3818359,50.9541016 L46.3818359,59 L45.2197266,59 L45.2197266,49.2861328 Z M58.0986328,59 L58.0986328,49.2861328 L63.7929688,49.2861328 L63.7929688,50.3115234 L59.2607422,50.3115234 L59.2607422,53.4833984 L63.4169922,53.4833984 L63.4169922,54.5087891 L59.2607422,54.5087891 L59.2607422,57.9746094 L63.7929688,57.9746094 L63.7929688,59 L58.0986328,59 Z M66.8691406,49.2861328 L68.3388672,49.2861328 L73.6298828,57.4140625 L73.6298828,49.2861328 L74.7919922,49.2861328 L74.7919922,59 L73.3222656,59 L68.03125,50.8583984 L68.03125,59 L66.8691406,59 L66.8691406,49.2861328 Z M76.8085938,49.2861328 L84.4648438,49.2861328 L84.4648438,50.3115234 L81.2177734,50.3115234 L81.2177734,59 L80.0556641,59 L80.0556641,50.3115234 L76.8085938,50.3115234 L76.8085938,49.2861328 Z M90.3095703,49.2861328 L91.4716797,49.2861328 L91.4716797,57.9814453 L95.8330078,57.9814453 L95.8330078,59 L90.3095703,59 L90.3095703,49.2861328 Z M98.2597656,49.2861328 L99.421875,49.2861328 L99.421875,59 L98.2597656,59 L98.2597656,49.2861328 Z M106.674805,49.1972656 C107.422204,49.1972656 108.226558,49.3271471 109.087891,49.5869141 L108.711914,50.6464844 C107.891597,50.409504 107.180667,50.2910156 106.579102,50.2910156 C105.904619,50.2910156 105.333824,50.4334296 104.866699,50.7182617 C104.399574,51.0030939 104.166016,51.3710915 104.166016,51.8222656 C104.166016,52.0729179 104.24121,52.296223 104.391602,52.4921875 C104.541993,52.688152 104.740233,52.8476556 104.986328,52.9707031 C105.232423,53.0937506 105.512694,53.2156569 105.827148,53.3364258 C106.141603,53.4571946 106.46175,53.5677078 106.787598,53.6679688 C107.113446,53.7682297 107.433592,53.8958326 107.748047,54.0507812 C108.062502,54.2057299 108.342772,54.3754874 108.588867,54.5600586 C108.834962,54.7446298 109.033202,54.9850246 109.183594,55.28125 C109.333985,55.5774754 109.40918,55.912433 109.40918,56.2861328 C109.40918,56.5458997 109.368164,56.8045235 109.286133,57.0620117 C109.204101,57.3195 109.067384,57.5747058 108.875977,57.8276367 C108.684569,58.0805677 108.447593,58.3027334 108.165039,58.4941406 C107.882486,58.6855478 107.525881,58.8404942 107.095215,58.9589844 C106.664549,59.0774746 106.184898,59.1367188 105.65625,59.1367188 C105.127602,59.1367188 104.641116,59.0820318 104.196777,58.9726562 C103.752439,58.8632807 103.25456,58.6992198 102.703125,58.4804688 L103.099609,57.3525391 C104.238938,57.7763693 105.138994,57.9882812 105.799805,57.9882812 C106.492516,57.9882812 107.056476,57.8492852 107.491699,57.5712891 C107.926923,57.2932929 108.144531,56.9218773 108.144531,56.4570312 C108.144531,56.1471339 108.04769,55.8793957 107.854004,55.6538086 C107.660318,55.4282215 107.40967,55.2459317 107.102051,55.1069336 C106.794432,54.9679355 106.453778,54.838054 106.080078,54.7172852 C105.706378,54.5965163 105.333823,54.4666348 104.962402,54.3276367 C104.590981,54.1886386 104.251466,54.0279957 103.943848,53.8457031 C103.636229,53.6634105 103.38558,53.4173193 103.191895,53.1074219 C102.998209,52.7975245 102.901367,52.4329448 102.901367,52.0136719 C102.901367,51.6399721 102.991373,51.2822283 103.171387,50.9404297 C103.351401,50.5986311 103.60091,50.2989922 103.919922,50.0415039 C104.238934,49.7840156 104.637693,49.5789396 105.116211,49.4262695 C105.594729,49.2735995 106.114255,49.1972656 106.674805,49.1972656 Z M110.947266,49.2861328 L118.603516,49.2861328 L118.603516,50.3115234 L115.356445,50.3115234 L115.356445,59 L114.194336,59 L114.194336,50.3115234 L110.947266,50.3115234 L110.947266,49.2861328 Z" id="DOCUMENT-LIST" fill="#0B0C0C"></path>
                    <g id="Group-3" transform="translate(41.000000, 0.000000)">
                        <g id="done">
                            <circle id="Oval-3" fill="#4169E1" cx="18" cy="18" r="18"></circle>
                            <path d="M27.6470588,11.3461538 C27.1764706,10.8846154 26.4705882,10.8846154 26,11.3461538 L13.8823529,23.2307692 L10,19.4230769 C9.52941176,18.9615385 8.82352941,18.9615385 8.35294118,19.4230769 C7.88235294,19.8846154 7.88235294,20.5769231 8.35294118,21.0384615 L13.0588235,25.6538462 C13.2941176,25.8846154 13.6470588,26 13.8823529,26 C14.1176471,26 14.4705882,25.8846154 14.7058824,25.6538462 L27.6470588,12.9615385 C28.1176471,12.5 28.1176471,11.8076923 27.6470588,11.3461538 Z" id="Shape" fill="#FFFFFF" fill-rule="nonzero"></path>
                        </g>
                    </g>
                </g>
            </g>
            <g id="item" transform="translate(798.000000, 0.000000)">
                <path d="M1.98242188,49.2861328 L5.18847656,49.2861328 C5.33886794,49.2861328 5.4630529,49.2872721 5.56103516,49.2895508 C5.65901742,49.2918294 5.80143136,49.3009439 5.98828125,49.3168945 C6.17513114,49.3328451 6.33463476,49.3556314 6.46679688,49.3852539 C6.59895899,49.4148765 6.75504467,49.4604489 6.93505859,49.5219727 C7.11507251,49.5834964 7.26887957,49.655273 7.39648438,49.7373047 C7.52408918,49.8193363 7.65738863,49.9275709 7.79638672,50.0620117 C7.93538481,50.1964525 8.04703734,50.3457023 8.13134766,50.5097656 C8.21565797,50.6738289 8.28515598,50.8720692 8.33984375,51.1044922 C8.39453152,51.3369152 8.421875,51.592121 8.421875,51.8701172 C8.421875,52.2711609 8.37630254,52.6311833 8.28515625,52.9501953 C8.19400996,53.2692073 8.07666087,53.5358062 7.93310547,53.75 C7.78955006,53.9641938 7.60384229,54.1487622 7.37597656,54.3037109 C7.14811084,54.4586596 6.92252716,54.5782873 6.69921875,54.6625977 C6.47591034,54.746908 6.21272938,54.812988 5.90966797,54.8608398 C5.60660656,54.9086916 5.33545042,54.9394531 5.09619141,54.953125 C4.8569324,54.9667969 4.5800797,54.9736328 4.265625,54.9736328 C3.95572762,54.9736328 3.58203344,54.9576825 3.14453125,54.9257812 L3.14453125,59 L1.98242188,59 L1.98242188,49.2861328 Z M3.14453125,53.9003906 C3.58203344,53.9368491 3.99674283,53.9550781 4.38867188,53.9550781 C4.61198028,53.9550781 4.79882737,53.9527995 4.94921875,53.9482422 C5.09961013,53.9436849 5.28417859,53.9277345 5.50292969,53.9003906 C5.72168078,53.8730467 5.90397062,53.8354495 6.04980469,53.7875977 C6.19563875,53.7397459 6.35058512,53.6679692 6.51464844,53.5722656 C6.67871176,53.476562 6.80973258,53.3637702 6.90771484,53.2338867 C7.0056971,53.1040033 7.08658822,52.9399424 7.15039062,52.7416992 C7.21419303,52.543456 7.24609375,52.316733 7.24609375,52.0615234 C7.24609375,51.7971992 7.2119144,51.5636403 7.14355469,51.3608398 C7.07519497,51.1580394 6.97607487,50.9951178 6.84619141,50.8720703 C6.71630794,50.7490228 6.57959056,50.6476241 6.43603516,50.5678711 C6.29247975,50.4881181 6.1193044,50.4311525 5.91650391,50.3969727 C5.71370341,50.3627928 5.53597082,50.3400066 5.38330078,50.3286133 C5.23063075,50.31722 5.04948021,50.3115234 4.83984375,50.3115234 L3.14453125,50.3115234 L3.14453125,53.9003906 Z M17.5478516,51.9521484 C17.5478516,52.2757178 17.509115,52.5833319 17.4316406,52.875 C17.3541663,53.1666681 17.2333993,53.4446601 17.0693359,53.7089844 C16.9052726,53.9733086 16.6785496,54.2023102 16.3891602,54.3959961 C16.0997707,54.589682 15.7613952,54.7320959 15.3740234,54.8232422 L18.1152344,59 L16.8164062,59 L14.1845703,54.953125 L12.3046875,54.953125 L12.3046875,59 L11.1357422,59 L11.1357422,49.2861328 L14.7041016,49.2861328 C14.8681649,49.2861328 15.0162754,49.2906901 15.1484375,49.2998047 C15.2805996,49.3089193 15.450357,49.3328449 15.6577148,49.371582 C15.8650727,49.4103192 16.0485018,49.4627275 16.2080078,49.5288086 C16.3675138,49.5948897 16.5349926,49.6951491 16.7104492,49.8295898 C16.8859058,49.9640306 17.0317377,50.1223949 17.1479492,50.3046875 C17.2641607,50.4869801 17.3598629,50.7193996 17.4350586,51.0019531 C17.5102543,51.2845066 17.5478516,51.6012352 17.5478516,51.9521484 Z M12.3046875,53.9277344 L13.9794922,53.9277344 C14.2119152,53.9277344 14.4169913,53.9197592 14.5947266,53.9038086 C14.7724618,53.887858 14.9809558,53.8445642 15.2202148,53.7739258 C15.4594739,53.7032874 15.6577141,53.6053066 15.8149414,53.4799805 C15.9721688,53.3546543 16.1066075,53.1723645 16.2182617,52.9331055 C16.3299159,52.6938465 16.3857422,52.4101579 16.3857422,52.0820312 C16.3857422,51.8496082 16.3561201,51.6399749 16.296875,51.453125 C16.2376299,51.2662751 16.1624354,51.1124681 16.0712891,50.9916992 C15.9801428,50.8709304 15.8684902,50.7661137 15.7363281,50.6772461 C15.604166,50.5883785 15.4765631,50.5211591 15.3535156,50.4755859 C15.2304681,50.4300128 15.0937508,50.3935548 14.9433594,50.3662109 C14.792968,50.3388671 14.668783,50.3217774 14.5708008,50.3149414 C14.4728185,50.3081054 14.3691412,50.3046875 14.2597656,50.3046875 L12.3046875,50.3046875 L12.3046875,53.9277344 Z M20.9658203,59 L20.9658203,49.2861328 L26.6601562,49.2861328 L26.6601562,50.3115234 L22.1279297,50.3115234 L22.1279297,53.4833984 L26.2841797,53.4833984 L26.2841797,54.5087891 L22.1279297,54.5087891 L22.1279297,57.9746094 L26.6601562,57.9746094 L26.6601562,59 L20.9658203,59 Z M29.7363281,49.2861328 L32.9423828,49.2861328 C33.0927742,49.2861328 33.2169591,49.2872721 33.3149414,49.2895508 C33.4129237,49.2918294 33.5553376,49.3009439 33.7421875,49.3168945 C33.9290374,49.3328451 34.088541,49.3556314 34.2207031,49.3852539 C34.3528652,49.4148765 34.5089509,49.4604489 34.6889648,49.5219727 C34.8689788,49.5834964 35.0227858,49.655273 35.1503906,49.7373047 C35.2779954,49.8193363 35.4112949,49.9275709 35.550293,50.0620117 C35.6892911,50.1964525 35.8009436,50.3457023 35.8852539,50.5097656 C35.9695642,50.6738289 36.0390622,50.8720692 36.09375,51.1044922 C36.1484378,51.3369152 36.1757812,51.592121 36.1757812,51.8701172 C36.1757812,52.2711609 36.1302088,52.6311833 36.0390625,52.9501953 C35.9479162,53.2692073 35.8305671,53.5358062 35.6870117,53.75 C35.5434563,53.9641938 35.3577485,54.1487622 35.1298828,54.3037109 C34.9020171,54.4586596 34.6764334,54.5782873 34.453125,54.6625977 C34.2298166,54.746908 33.9666356,54.812988 33.6635742,54.8608398 C33.3605128,54.9086916 33.0893567,54.9394531 32.8500977,54.953125 C32.6108386,54.9667969 32.3339859,54.9736328 32.0195312,54.9736328 C31.7096339,54.9736328 31.3359397,54.9576825 30.8984375,54.9257812 L30.8984375,59 L29.7363281,59 L29.7363281,49.2861328 Z M30.8984375,53.9003906 C31.3359397,53.9368491 31.7506491,53.9550781 32.1425781,53.9550781 C32.3658865,53.9550781 32.5527336,53.9527995 32.703125,53.9482422 C32.8535164,53.9436849 33.0380848,53.9277345 33.2568359,53.9003906 C33.475587,53.8730467 33.6578769,53.8354495 33.8037109,53.7875977 C33.949545,53.7397459 34.1044914,53.6679692 34.2685547,53.5722656 C34.432618,53.476562 34.5636388,53.3637702 34.6616211,53.2338867 C34.7596034,53.1040033 34.8404945,52.9399424 34.9042969,52.7416992 C34.9680993,52.543456 35,52.316733 35,52.0615234 C35,51.7971992 34.9658207,51.5636403 34.8974609,51.3608398 C34.8291012,51.1580394 34.7299811,50.9951178 34.6000977,50.8720703 C34.4702142,50.7490228 34.3334968,50.6476241 34.1899414,50.5678711 C34.046386,50.4881181 33.8732106,50.4311525 33.6704102,50.3969727 C33.4676097,50.3627928 33.2898771,50.3400066 33.137207,50.3286133 C32.984537,50.31722 32.8033865,50.3115234 32.59375,50.3115234 L30.8984375,50.3115234 L30.8984375,53.9003906 Z M42.7177734,59 L42.7177734,49.2861328 L48.4121094,49.2861328 L48.4121094,50.3115234 L43.8798828,50.3115234 L43.8798828,53.4833984 L48.0361328,53.4833984 L48.0361328,54.5087891 L43.8798828,54.5087891 L43.8798828,57.9746094 L48.4121094,57.9746094 L48.4121094,59 L42.7177734,59 Z M51.4882813,49.2861328 L53.1289063,49.2861328 L56.2460938,55.1787109 L59.4111328,49.2861328 L60.9492188,49.2861328 L60.9492188,59 L59.7871094,59 L59.7871094,50.9541016 L56.7998047,56.2177734 L55.6376953,56.2177734 L52.6503906,50.9541016 L52.6503906,59 L51.4882813,59 L51.4882813,49.2861328 Z M66.7255859,49.2861328 L68.0449219,49.2861328 L71.4970703,59 L70.3212891,59 L69.3369141,56.1767578 L65.3310547,56.1767578 L64.3466797,59 L63.2734375,59 L66.7255859,49.2861328 Z M67.3339844,50.4208984 L65.6796875,55.1582031 L68.9814453,55.1582031 L67.3339844,50.4208984 Z M74.0263672,49.2861328 L75.1884766,49.2861328 L75.1884766,59 L74.0263672,59 L74.0263672,49.2861328 Z M78.8115234,49.2861328 L79.9736328,49.2861328 L79.9736328,57.9814453 L84.3349609,57.9814453 L84.3349609,59 L78.8115234,59 L78.8115234,49.2861328 Z" id="PREP-EMAIL" fill="#0B0C0C"></path>
                <g id="Group-5" transform="translate(26.000000, 0.000000)">
                    <circle id="Oval-3" stroke="#4169E1" stroke-width="5" cx="18" cy="18" r="15.5"></circle>
                    <circle id="Oval-3" fill="#4169E1" cx="18" cy="18" r="7"></circle>
                </g>
            </g>
        </g>
    </g>
</svg>