<?xml version="1.0" encoding="UTF-8"?>
<svg width="905px" height="80px" viewBox="0 0 905 80" version="1.1" xmlns="http://www.w3.org/2000/svg" xmlns:xlink="http://www.w3.org/1999/xlink">
    <!-- Generator: Sketch 51.3 (57544) - http://www.bohemiancoding.com/sketch -->
    <title>progress_bar3</title>
    <desc>Created with Sketch.</desc>
    <defs></defs>
    <g id="assets" stroke="none" stroke-width="1" fill="none" fill-rule="evenodd">
        <g id="progress_bar3">
            <g id="PROG_BAR" transform="translate(31.000000, 0.000000)">
                <rect id="Rectangle-3" fill="#4169E1" x="18" y="15" width="382" height="6" rx="3"></rect>
                <g id="item">
                    <g id="done">
                        <circle id="Oval-3" fill="#4169E1" cx="18" cy="18" r="18"></circle>
                        <path d="M27.6470588,11.3461538 C27.1764706,10.8846154 26.4705882,10.8846154 26,11.3461538 L13.8823529,23.2307692 L10,19.4230769 C9.52941176,18.9615385 8.82352941,18.9615385 8.35294118,19.4230769 C7.88235294,19.8846154 7.88235294,20.5769231 8.35294118,21.0384615 L13.0588235,25.6538462 C13.2941176,25.8846154 13.6470588,26 13.8823529,26 C14.1176471,26 14.4705882,25.8846154 14.7058824,25.6538462 L27.6470588,12.9615385 C28.1176471,12.5 28.1176471,11.8076923 27.6470588,11.3461538 Z" id="Shape" fill="#FFFFFF" fill-rule="nonzero"></path>
                    </g>
                </g>
            </g>
            <path d="M19.796875,48.2861328 L27.453125,48.2861328 L27.453125,49.3115234 L24.2060547,49.3115234 L24.2060547,58 L23.0439453,58 L23.0439453,49.3115234 L19.796875,49.3115234 L19.796875,48.2861328 Z M29.4697266,58 L29.4697266,48.2861328 L35.1640625,48.2861328 L35.1640625,49.3115234 L30.6318359,49.3115234 L30.6318359,52.4833984 L34.7880859,52.4833984 L34.7880859,53.5087891 L30.6318359,53.5087891 L30.6318359,56.9746094 L35.1640625,56.9746094 L35.1640625,58 L29.4697266,58 Z M38.2402344,48.2861328 L39.8808594,48.2861328 L42.9980469,54.1787109 L46.1630859,48.2861328 L47.7011719,48.2861328 L47.7011719,58 L46.5390625,58 L46.5390625,49.9541016 L43.5517578,55.2177734 L42.3896484,55.2177734 L39.4023438,49.9541016 L39.4023438,58 L38.2402344,58 L38.2402344,48.2861328 Z M51.1191406,48.2861328 L54.3251953,48.2861328 C54.4755867,48.2861328 54.5997716,48.2872721 54.6977539,48.2895508 C54.7957362,48.2918294 54.9381501,48.3009439 55.125,48.3168945 C55.3118499,48.3328451 55.4713535,48.3556314 55.6035156,48.3852539 C55.7356777,48.4148765 55.8917634,48.4604489 56.0717773,48.5219727 C56.2517913,48.5834964 56.4055983,48.655273 56.5332031,48.7373047 C56.6608079,48.8193363 56.7941074,48.9275709 56.9331055,49.0620117 C57.0721036,49.1964525 57.1837561,49.3457023 57.2680664,49.5097656 C57.3523767,49.6738289 57.4218747,49.8720692 57.4765625,50.1044922 C57.5312503,50.3369152 57.5585938,50.592121 57.5585938,50.8701172 C57.5585938,51.2711609 57.5130213,51.6311833 57.421875,51.9501953 C57.3307287,52.2692073 57.2133796,52.5358062 57.0698242,52.75 C56.9262688,52.9641938 56.740561,53.1487622 56.5126953,53.3037109 C56.2848296,53.4586596 56.0592459,53.5782873 55.8359375,53.6625977 C55.6126291,53.746908 55.3494481,53.812988 55.0463867,53.8608398 C54.7433253,53.9086916 54.4721692,53.9394531 54.2329102,53.953125 C53.9936511,53.9667969 53.7167984,53.9736328 53.4023438,53.9736328 C53.0924464,53.9736328 52.7187522,53.9576825 52.28125,53.9257812 L52.28125,58 L51.1191406,58 L51.1191406,48.2861328 Z M52.28125,52.9003906 C52.7187522,52.9368491 53.1334616,52.9550781 53.5253906,52.9550781 C53.748699,52.9550781 53.9355461,52.9527995 54.0859375,52.9482422 C54.2363289,52.9436849 54.4208973,52.9277345 54.6396484,52.9003906 C54.8583995,52.8730467 55.0406894,52.8354495 55.1865234,52.7875977 C55.3323575,52.7397459 55.4873039,52.6679692 55.6513672,52.5722656 C55.8154305,52.476562 55.9464513,52.3637702 56.0444336,52.2338867 C56.1424159,52.1040033 56.223307,51.9399424 56.2871094,51.7416992 C56.3509118,51.543456 56.3828125,51.316733 56.3828125,51.0615234 C56.3828125,50.7971992 56.3486332,50.5636403 56.2802734,50.3608398 C56.2119137,50.1580394 56.1127936,49.9951178 55.9829102,49.8720703 C55.8530267,49.7490228 55.7163093,49.6476241 55.5727539,49.5678711 C55.4291985,49.4881181 55.2560231,49.4311525 55.0532227,49.3969727 C54.8504222,49.3627928 54.6726896,49.3400066 54.5200195,49.3286133 C54.3673495,49.31722 54.186199,49.3115234 53.9765625,49.3115234 L52.28125,49.3115234 L52.28125,52.9003906 Z M60.2724609,48.2861328 L61.4345703,48.2861328 L61.4345703,56.9814453 L65.7958984,56.9814453 L65.7958984,58 L60.2724609,58 L60.2724609,48.2861328 Z M68.0175781,58 L68.0175781,48.2861328 L73.7119141,48.2861328 L73.7119141,49.3115234 L69.1796875,49.3115234 L69.1796875,52.4833984 L73.3359375,52.4833984 L73.3359375,53.5087891 L69.1796875,53.5087891 L69.1796875,56.9746094 L73.7119141,56.9746094 L73.7119141,58 L68.0175781,58 Z M77.9501953,49.3115234 L77.9501953,56.9746094 L79.3652344,56.9746094 C79.5703135,56.9746094 79.7400709,56.9723308 79.8745117,56.9677734 C80.0089525,56.9632161 80.1912423,56.9495444 80.4213867,56.9267578 C80.6515311,56.9039712 80.8497713,56.8697919 81.0161133,56.8242188 C81.1824553,56.7786456 81.371581,56.7125655 81.5834961,56.6259766 C81.7954112,56.5393876 81.9833976,56.4345709 82.1474609,56.3115234 C82.3115243,56.1884759 82.4755851,56.031251 82.6396484,55.8398438 C82.8037118,55.6484365 82.947265,55.4319674 83.0703125,55.1904297 C83.3710953,54.6116508 83.5214844,53.9075562 83.5214844,53.078125 C83.5214844,52.5039034 83.4383146,51.9855166 83.2719727,51.5229492 C83.1056307,51.0603818 82.8846042,50.684409 82.6088867,50.3950195 C82.3331692,50.1056301 82.0392268,49.8766284 81.7270508,49.7080078 C81.4148747,49.5393872 81.0878923,49.425456 80.7460938,49.3662109 C80.5455719,49.3297524 80.242515,49.3115234 79.8369141,49.3115234 L77.9501953,49.3115234 Z M79.7958984,48.2861328 C80.4248078,48.2861328 80.9967422,48.3487949 81.5117188,48.4741211 C82.0266953,48.5994472 82.4584944,48.7760405 82.8071289,49.0039062 C83.1557635,49.231772 83.4554024,49.4892564 83.7060547,49.7763672 C83.956707,50.063478 84.1515293,50.3836245 84.2905273,50.7368164 C84.4295254,51.0900083 84.5309242,51.4374983 84.5947266,51.7792969 C84.658529,52.1210955 84.6904297,52.4765607 84.6904297,52.8457031 C84.6904297,53.2695334 84.658529,53.6774069 84.5947266,54.0693359 C84.5309242,54.461265 84.4204109,54.860024 84.2631836,55.265625 C84.1059562,55.671226 83.9054374,56.0346664 83.6616211,56.355957 C83.4178048,56.6772477 83.1022155,56.9666328 82.7148438,57.2241211 C82.327472,57.4816094 81.8876978,57.6718744 81.3955078,57.7949219 C81.1402982,57.8587243 80.8554703,57.9065754 80.5410156,57.9384766 C80.2265609,57.9703778 79.9667979,57.9886067 79.7617188,57.9931641 C79.5566396,57.9977214 79.2672545,58 78.8935547,58 L76.7880859,58 L76.7880859,48.2861328 L79.7958984,48.2861328 Z M5.18164062,68.1835938 C5.82422196,68.1835938 6.42463914,68.2963856 6.98291016,68.5219727 C7.54118118,68.7475597 8.02424926,69.0654276 8.43212891,69.4755859 C8.84000855,69.8857442 9.16015509,70.3972951 9.39257812,71.0102539 C9.62500116,71.6232127 9.74121094,72.2965458 9.74121094,73.0302734 C9.74121094,74.023768 9.54411004,74.9067344 9.14990234,75.6791992 C8.75569464,76.451664 8.20882511,77.0486633 7.50927734,77.4702148 C6.80972958,77.8917664 6.01790807,78.1025391 5.13378906,78.1025391 C4.55045281,78.1025391 3.99219017,77.9988617 3.45898438,77.7915039 C2.92577858,77.5841461 2.44498912,77.2822285 2.01660156,76.8857422 C1.588214,76.4892558 1.24642055,75.9708691 0.991210938,75.3305664 C0.736001328,74.6902637 0.608398438,73.9690795 0.608398438,73.1669922 C0.608398438,72.4150353 0.724608213,71.7268911 0.95703125,71.1025391 C1.18945429,70.478187 1.50846151,69.9529644 1.9140625,69.5268555 C2.31966349,69.1007466 2.80273157,68.7703462 3.36328125,68.5356445 C3.92383093,68.3009428 4.52994466,68.1835938 5.18164062,68.1835938 Z M5.12011719,69.2021484 C4.70540157,69.2021484 4.30664254,69.2796216 3.92382812,69.4345703 C3.54101371,69.589519 3.18896645,69.816242 2.86767578,70.1147461 C2.54638511,70.4132502 2.28890071,70.8142878 2.09521484,71.3178711 C1.90152898,71.8214543 1.8046875,72.3899708 1.8046875,73.0234375 C1.8046875,73.6295603 1.8935538,74.1889623 2.07128906,74.7016602 C2.24902433,75.214358 2.49055837,75.6438785 2.79589844,75.9902344 C3.10123851,76.3365903 3.46240026,76.6054678 3.87939453,76.796875 C4.2963888,76.9882822 4.74413823,77.0839844 5.22265625,77.0839844 C5.54622558,77.0839844 5.86409349,77.0361333 6.17626953,76.9404297 C6.48844557,76.8447261 6.7880845,76.6931977 7.07519531,76.4858398 C7.36230612,76.278482 7.61409397,76.0244156 7.83056641,75.7236328 C8.04703884,75.4228501 8.22021419,75.0514345 8.35009766,74.609375 C8.47998112,74.1673155 8.54492188,73.6819688 8.54492188,73.1533203 C8.54492188,72.6155572 8.47656318,72.1233746 8.33984375,71.6767578 C8.20312432,71.230141 8.02197378,70.8564468 7.79638672,70.5556641 C7.57079965,70.2548813 7.308758,70.0008148 7.01025391,69.793457 C6.71174981,69.5860992 6.4041357,69.4357101 6.08740234,69.3422852 C5.77066899,69.2488602 5.44824383,69.2021484 5.12011719,69.2021484 Z M11.7919922,67.6708984 L13.125,67.6708984 L12.2705078,70.6308594 L10.9375,70.6308594 L11.7919922,67.6708984 Z M22.1347656,70.9521484 C22.1347656,71.2757178 22.096029,71.5833319 22.0185547,71.875 C21.9410803,72.1666681 21.8203133,72.4446601 21.65625,72.7089844 C21.4921867,72.9733086 21.2654637,73.2023102 20.9760742,73.3959961 C20.6866848,73.589682 20.3483092,73.7320959 19.9609375,73.8232422 L22.7021484,78 L21.4033203,78 L18.7714844,73.953125 L16.8916016,73.953125 L16.8916016,78 L15.7226562,78 L15.7226562,68.2861328 L19.2910156,68.2861328 C19.4550789,68.2861328 19.6031894,68.2906901 19.7353516,68.2998047 C19.8675137,68.3089193 20.0372711,68.3328449 20.2446289,68.371582 C20.4519867,68.4103192 20.6354159,68.4627275 20.7949219,68.5288086 C20.9544279,68.5948897 21.1219067,68.6951491 21.2973633,68.8295898 C21.4728199,68.9640306 21.6186518,69.1223949 21.7348633,69.3046875 C21.8510748,69.4869801 21.946777,69.7193996 22.0219727,70.0019531 C22.0971683,70.2845066 22.1347656,70.6012352 22.1347656,70.9521484 Z M16.8916016,72.9277344 L18.5664062,72.9277344 C18.7988293,72.9277344 19.0039054,72.9197592 19.1816406,72.9038086 C19.3593759,72.887858 19.5678699,72.8445642 19.8071289,72.7739258 C20.0463879,72.7032874 20.2446281,72.6053066 20.4018555,72.4799805 C20.5590828,72.3546543 20.6935216,72.1723645 20.8051758,71.9331055 C20.91683,71.6938465 20.9726562,71.4101579 20.9726562,71.0820312 C20.9726562,70.8496082 20.9430342,70.6399749 20.8837891,70.453125 C20.824544,70.2662751 20.7493494,70.1124681 20.6582031,69.9916992 C20.5670568,69.8709304 20.4554043,69.7661137 20.3232422,69.6772461 C20.1910801,69.5883785 20.0634772,69.5211591 19.9404297,69.4755859 C19.8173822,69.4300128 19.6806648,69.3935548 19.5302734,69.3662109 C19.3798821,69.3388671 19.2556971,69.3217774 19.1577148,69.3149414 C19.0597326,69.3081054 18.9560552,69.3046875 18.8466797,69.3046875 L16.8916016,69.3046875 L16.8916016,72.9277344 Z M34.1386719,68.2177734 C35.0227909,68.2177734 35.9023394,68.3909488 36.7773438,68.7373047 L36.421875,69.7011719 C35.537756,69.3958318 34.7653028,69.2431641 34.1044922,69.2431641 C33.5576145,69.2431641 33.0506208,69.3513987 32.5834961,69.5678711 C32.1163714,69.7843435 31.7290054,70.0737287 31.4213867,70.4360352 C31.113768,70.7983417 30.8733733,71.213051 30.7001953,71.6801758 C30.5270174,72.1473005 30.4404297,72.6360652 30.4404297,73.1464844 C30.4404297,73.6751329 30.5327139,74.1775692 30.7172852,74.6538086 C30.9018564,75.130048 31.1604801,75.547036 31.4931641,75.9047852 C31.825848,76.2625343 32.2394181,76.5462229 32.7338867,76.7558594 C33.2283553,76.9654958 33.7695283,77.0703125 34.3574219,77.0703125 C35.0592483,77.0703125 35.7906863,76.9335951 36.5517578,76.6601562 L36.9072266,77.5214844 C35.9547478,77.9316427 35.0068407,78.1367188 34.0634766,78.1367188 C33.4801403,78.1367188 32.9332708,78.0524097 32.4228516,77.8837891 C31.9124323,77.7151684 31.4669615,77.4793309 31.0864258,77.1762695 C30.70589,76.8732081 30.3789076,76.514325 30.1054688,76.0996094 C29.8320299,75.6848938 29.6258145,75.2280298 29.4868164,74.7290039 C29.3478183,74.229978 29.2783203,73.7047554 29.2783203,73.1533203 C29.2783203,72.2190708 29.4731426,71.3805376 29.862793,70.6376953 C30.2524434,69.8948531 30.8186812,69.305829 31.5615234,68.8706055 C32.3043657,68.4353819 33.1634066,68.2177734 34.1386719,68.2177734 Z M38.0009766,68.2861328 L39.375,68.2861328 L41.8496094,72.2988281 L44.3789062,68.2861328 L45.6777344,68.2861328 L42.3691406,73.3994141 L42.3691406,78 L41.2070312,78 L41.2070312,73.3994141 L38.0009766,68.2861328 Z M46.5322266,68.2861328 L54.1884766,68.2861328 L54.1884766,69.3115234 L50.9414062,69.3115234 L50.9414062,78 L49.7792969,78 L49.7792969,69.3115234 L46.5322266,69.3115234 L46.5322266,68.2861328 Z M56.2050781,68.2861328 L57.3671875,68.2861328 L57.3671875,74.5820312 C57.3671875,74.969403 57.4002275,75.3020819 57.4663086,75.5800781 C57.5323897,75.8580743 57.672525,76.1178373 57.8867188,76.359375 C58.3424502,76.8743515 59.014644,77.1318359 59.9033203,77.1318359 C60.5459017,77.1318359 61.0825174,76.9917006 61.5131836,76.7114258 C61.9438498,76.4311509 62.2229811,76.0358098 62.3505859,75.5253906 C62.409831,75.283853 62.4394531,74.969403 62.4394531,74.5820312 L62.4394531,68.2861328 L63.5878906,68.2861328 C63.5878906,69.7490308 63.5890299,70.9453079 63.5913086,71.875 C63.5935873,72.8046921 63.5947266,73.4005521 63.5947266,73.6625977 C63.5947266,73.9246432 63.5958659,74.1342766 63.5981445,74.2915039 C63.6004232,74.4487313 63.6015625,74.5797521 63.6015625,74.6845703 C63.6015625,74.8942068 63.5970053,75.0776359 63.5878906,75.2348633 C63.578776,75.3920906 63.5480146,75.598306 63.4956055,75.8535156 C63.4431964,76.1087252 63.3714197,76.330891 63.2802734,76.5200195 C63.1891271,76.7091481 63.0512705,76.9108062 62.8666992,77.125 C62.682128,77.3391938 62.4633802,77.5157871 62.2104492,77.6547852 C61.9575183,77.7937832 61.6339538,77.9088537 61.2397461,78 C60.8455384,78.0911463 60.4000676,78.1367188 59.9033203,78.1367188 C59.3701145,78.1367188 58.8916037,78.0808925 58.4677734,77.9692383 C58.0439432,77.8575841 57.7112642,77.7242846 57.4697266,77.5693359 C57.2281889,77.4143872 57.0196949,77.2275402 56.8442383,77.0087891 C56.6687817,76.790038 56.5480147,76.6020516 56.4819336,76.4448242 C56.4158525,76.2875969 56.3623049,76.1223967 56.3212891,75.9492188 C56.2438147,75.648436 56.2050781,75.2223335 56.2050781,74.6708984 L56.2050781,68.2861328 Z M67.0195312,68.2861328 L68.4892578,68.2861328 L73.7802734,76.4140625 L73.7802734,68.2861328 L74.9423828,68.2861328 L74.9423828,78 L73.4726562,78 L68.1816406,69.8583984 L68.1816406,78 L67.0195312,78 L67.0195312,68.2861328 Z M79.5224609,69.3115234 L79.5224609,76.9746094 L80.9375,76.9746094 C81.1425792,76.9746094 81.3123366,76.9723308 81.4467773,76.9677734 C81.5812181,76.9632161 81.763508,76.9495444 81.9936523,76.9267578 C82.2237967,76.9039712 82.4220369,76.8697919 82.5883789,76.8242188 C82.7547209,76.7786456 82.9438466,76.7125655 83.1557617,76.6259766 C83.3676768,76.5393876 83.5556632,76.4345709 83.7197266,76.3115234 C83.8837899,76.1884759 84.0478507,76.031251 84.2119141,75.8398438 C84.3759774,75.6484365 84.5195306,75.4319674 84.6425781,75.1904297 C84.9433609,74.6116508 85.09375,73.9075562 85.09375,73.078125 C85.09375,72.5039034 85.0105803,71.9855166 84.8442383,71.5229492 C84.6778963,71.0603818 84.4568699,70.684409 84.1811523,70.3950195 C83.9054348,70.1056301 83.6114924,69.8766284 83.2993164,69.7080078 C82.9871404,69.5393872 82.660158,69.425456 82.3183594,69.3662109 C82.1178375,69.3297524 81.8147807,69.3115234 81.4091797,69.3115234 L79.5224609,69.3115234 Z M81.3681641,68.2861328 C81.9970735,68.2861328 82.5690078,68.3487949 83.0839844,68.4741211 C83.5989609,68.5994472 84.03076,68.7760405 84.3793945,69.0039062 C84.7280291,69.231772 85.027668,69.4892564 85.2783203,69.7763672 C85.5289726,70.063478 85.7237949,70.3836245 85.862793,70.7368164 C86.0017911,71.0900083 86.1031898,71.4374983 86.1669922,71.7792969 C86.2307946,72.1210955 86.2626953,72.4765607 86.2626953,72.8457031 C86.2626953,73.2695334 86.2307946,73.6774069 86.1669922,74.0693359 C86.1031898,74.461265 85.9926766,74.860024 85.8354492,75.265625 C85.6782219,75.671226 85.477703,76.0346664 85.2338867,76.355957 C84.9900704,76.6772477 84.6744811,76.9666328 84.2871094,77.2241211 C83.8997376,77.4816094 83.4599634,77.6718744 82.9677734,77.7949219 C82.7125638,77.8587243 82.4277359,77.9065754 82.1132812,77.9384766 C81.7988266,77.9703778 81.5390635,77.9886067 81.3339844,77.9931641 C81.1289052,77.9977214 80.8395201,78 80.4658203,78 L78.3603516,78 L78.3603516,68.2861328 L81.3681641,68.2861328 Z M89.3388672,78 L89.3388672,68.2861328 L95.0332031,68.2861328 L95.0332031,69.3115234 L90.5009766,69.3115234 L90.5009766,72.4833984 L94.6572266,72.4833984 L94.6572266,73.5087891 L90.5009766,73.5087891 L90.5009766,76.9746094 L95.0332031,76.9746094 L95.0332031,78 L89.3388672,78 Z M99.2714844,69.1748047 L99.2714844,72.4355469 C99.3580733,72.4309896 99.5084625,72.4275716 99.7226562,72.425293 C99.93685,72.4230143 100.10319,72.4207357 100.22168,72.418457 C100.34017,72.4161784 100.506509,72.4070639 100.720703,72.3911133 C100.934897,72.3751627 101.106933,72.3569337 101.236816,72.3364258 C101.3667,72.3159179 101.523925,72.2840171 101.708496,72.2407227 C101.893067,72.1974282 102.043456,72.1472985 102.159668,72.090332 C102.275879,72.0333656 102.398925,71.9604497 102.528809,71.871582 C102.658692,71.7827144 102.760091,71.6835943 102.833008,71.5742188 C102.905925,71.4648432 102.966308,71.3338224 103.01416,71.1811523 C103.062012,71.0284823 103.085938,70.8610035 103.085938,70.6787109 C103.085938,70.5419915 103.072266,70.41211 103.044922,70.2890625 C103.017578,70.166015 102.960612,70.0338549 102.874023,69.8925781 C102.787434,69.7513014 102.675782,69.6305344 102.539062,69.5302734 C102.402343,69.4300125 102.214357,69.3457035 101.975098,69.2773438 C101.735839,69.208984 101.458986,69.1748047 101.144531,69.1748047 L99.2714844,69.1748047 Z M99.2714844,73.3378906 L99.2714844,76.9746094 L101.083008,76.9746094 C101.247071,76.9746094 101.384928,76.9734701 101.496582,76.9711914 C101.608236,76.9689127 101.768879,76.955241 101.978516,76.9301758 C102.188152,76.9051106 102.367024,76.8709312 102.515137,76.8276367 C102.663249,76.7843422 102.82845,76.7182622 103.010742,76.6293945 C103.193035,76.5405269 103.340006,76.4345709 103.45166,76.3115234 C103.563314,76.1884759 103.657877,76.0301116 103.735352,75.8364258 C103.812826,75.6427399 103.851562,75.4228528 103.851562,75.1767578 C103.851562,74.570635 103.616864,74.0966814 103.147461,73.7548828 C102.678058,73.4130842 102.046879,73.2421875 101.253906,73.2421875 C101.167317,73.2421875 100.506517,73.2740882 99.2714844,73.3378906 Z M98.109375,68.2861328 L101.53418,68.2861328 C101.866864,68.2861328 102.17106,68.3214515 102.446777,68.3920898 C102.722495,68.4627282 102.950357,68.5527338 103.130371,68.6621094 C103.310385,68.7714849 103.469889,68.9013664 103.608887,69.0517578 C103.747885,69.2021492 103.853841,69.3479811 103.926758,69.4892578 C103.999675,69.6305346 104.058919,69.7809237 104.104492,69.9404297 C104.150065,70.0999357 104.178548,70.2309565 104.189941,70.3334961 C104.201335,70.4360357 104.207031,70.5328771 104.207031,70.6240234 C104.207031,71.0205098 104.072592,71.4158509 103.803711,71.8100586 C103.534829,72.2042663 103.250002,72.4583328 102.949219,72.5722656 C103.550784,72.6816412 104.044106,72.9721656 104.429199,73.4438477 C104.814292,73.9155297 105.006836,74.4521454 105.006836,75.0537109 C105.006836,75.1949877 104.994304,75.3430982 104.969238,75.4980469 C104.944173,75.6529956 104.895183,75.8284495 104.822266,76.0244141 C104.749349,76.2203786 104.655925,76.4072257 104.541992,76.5849609 C104.428059,76.7626962 104.273113,76.9392895 104.077148,77.1147461 C103.881184,77.2902027 103.65674,77.4417311 103.403809,77.5693359 C103.150878,77.6969407 102.840985,77.8006181 102.474121,77.8803711 C102.107257,77.9601241 101.70508,78 101.267578,78 L98.109375,78 L98.109375,68.2861328 Z" id="Templed-o’r-cytundeb" fill="#000000"></path>
            <path d="M426.922852,51.9521484 C426.922852,52.2757178 426.884115,52.5833319 426.806641,52.875 C426.729166,53.1666681 426.608399,53.4446601 426.444336,53.7089844 C426.280273,53.9733086 426.05355,54.2023102 425.76416,54.3959961 C425.474771,54.589682 425.136395,54.7320959 424.749023,54.8232422 L427.490234,59 L426.191406,59 L423.55957,54.953125 L421.679688,54.953125 L421.679688,59 L420.510742,59 L420.510742,49.2861328 L424.079102,49.2861328 C424.243165,49.2861328 424.391275,49.2906901 424.523438,49.2998047 C424.6556,49.3089193 424.825357,49.3328449 425.032715,49.371582 C425.240073,49.4103192 425.423502,49.4627275 425.583008,49.5288086 C425.742514,49.5948897 425.909993,49.6951491 426.085449,49.8295898 C426.260906,49.9640306 426.406738,50.1223949 426.522949,50.3046875 C426.639161,50.4869801 426.734863,50.7193996 426.810059,51.0019531 C426.885254,51.2845066 426.922852,51.6012352 426.922852,51.9521484 Z M421.679688,53.9277344 L423.354492,53.9277344 C423.586915,53.9277344 423.791991,53.9197592 423.969727,53.9038086 C424.147462,53.887858 424.355956,53.8445642 424.595215,53.7739258 C424.834474,53.7032874 425.032714,53.6053066 425.189941,53.4799805 C425.347169,53.3546543 425.481608,53.1723645 425.593262,52.9331055 C425.704916,52.6938465 425.760742,52.4101579 425.760742,52.0820312 C425.760742,51.8496082 425.73112,51.6399749 425.671875,51.453125 C425.61263,51.2662751 425.537435,51.1124681 425.446289,50.9916992 C425.355143,50.8709304 425.24349,50.7661137 425.111328,50.6772461 C424.979166,50.5883785 424.851563,50.5211591 424.728516,50.4755859 C424.605468,50.4300128 424.468751,50.3935548 424.318359,50.3662109 C424.167968,50.3388671 424.043783,50.3217774 423.945801,50.3149414 C423.847819,50.3081054 423.744141,50.3046875 423.634766,50.3046875 L421.679688,50.3046875 L421.679688,53.9277344 Z M436.698242,49.2861328 L437.860352,49.2861328 L437.860352,59 L436.698242,59 L436.698242,54.5019531 L431.50293,54.5019531 L431.50293,59 L430.34082,59 L430.34082,49.2861328 L431.50293,49.2861328 L431.50293,53.4765625 L436.698242,53.4765625 L436.698242,49.2861328 Z M441.27832,59 L441.27832,49.2861328 L446.972656,49.2861328 L446.972656,50.3115234 L442.44043,50.3115234 L442.44043,53.4833984 L446.59668,53.4833984 L446.59668,54.5087891 L442.44043,54.5087891 L442.44043,57.9746094 L446.972656,57.9746094 L446.972656,59 L441.27832,59 Z M453.678711,49.1972656 C454.426111,49.1972656 455.230464,49.3271471 456.091797,49.5869141 L455.71582,50.6464844 C454.895504,50.409504 454.184573,50.2910156 453.583008,50.2910156 C452.908525,50.2910156 452.33773,50.4334296 451.870605,50.7182617 C451.403481,51.0030939 451.169922,51.3710915 451.169922,51.8222656 C451.169922,52.0729179 451.245116,52.296223 451.395508,52.4921875 C451.545899,52.688152 451.744139,52.8476556 451.990234,52.9707031 C452.236329,53.0937506 452.5166,53.2156569 452.831055,53.3364258 C453.145509,53.4571946 453.465656,53.5677078 453.791504,53.6679688 C454.117352,53.7682297 454.437498,53.8958326 454.751953,54.0507812 C455.066408,54.2057299 455.346678,54.3754874 455.592773,54.5600586 C455.838868,54.7446298 456.037109,54.9850246 456.1875,55.28125 C456.337891,55.5774754 456.413086,55.912433 456.413086,56.2861328 C456.413086,56.5458997 456.372071,56.8045235 456.290039,57.0620117 C456.208007,57.3195 456.07129,57.5747058 455.879883,57.8276367 C455.688476,58.0805677 455.451499,58.3027334 455.168945,58.4941406 C454.886392,58.6855478 454.529787,58.8404942 454.099121,58.9589844 C453.668455,59.0774746 453.188805,59.1367188 452.660156,59.1367188 C452.131508,59.1367188 451.645022,59.0820318 451.200684,58.9726562 C450.756345,58.8632807 450.258466,58.6992198 449.707031,58.4804688 L450.103516,57.3525391 C451.242844,57.7763693 452.1429,57.9882812 452.803711,57.9882812 C453.496423,57.9882812 454.060382,57.8492852 454.495605,57.5712891 C454.930829,57.2932929 455.148438,56.9218773 455.148438,56.4570312 C455.148438,56.1471339 455.051596,55.8793957 454.85791,55.6538086 C454.664224,55.4282215 454.413576,55.2459317 454.105957,55.1069336 C453.798338,54.9679355 453.457684,54.838054 453.083984,54.7172852 C452.710285,54.5965163 452.33773,54.4666348 451.966309,54.3276367 C451.594887,54.1886386 451.255373,54.0279957 450.947754,53.8457031 C450.640135,53.6634105 450.389487,53.4173193 450.195801,53.1074219 C450.002115,52.7975245 449.905273,52.4329448 449.905273,52.0136719 C449.905273,51.6399721 449.995279,51.2822283 450.175293,50.9404297 C450.355307,50.5986311 450.604816,50.2989922 450.923828,50.0415039 C451.24284,49.7840156 451.641599,49.5789396 452.120117,49.4262695 C452.598635,49.2735995 453.118161,49.1972656 453.678711,49.1972656 Z M457.951172,49.2861328 L465.607422,49.2861328 L465.607422,50.3115234 L462.360352,50.3115234 L462.360352,59 L461.198242,59 L461.198242,50.3115234 L457.951172,50.3115234 L457.951172,49.2861328 Z M474.036133,51.9521484 C474.036133,52.2757178 473.997396,52.5833319 473.919922,52.875 C473.842448,53.1666681 473.721681,53.4446601 473.557617,53.7089844 C473.393554,53.9733086 473.166831,54.2023102 472.877441,54.3959961 C472.588052,54.589682 472.249676,54.7320959 471.862305,54.8232422 L474.603516,59 L473.304688,59 L470.672852,54.953125 L468.792969,54.953125 L468.792969,59 L467.624023,59 L467.624023,49.2861328 L471.192383,49.2861328 C471.356446,49.2861328 471.504557,49.2906901 471.636719,49.2998047 C471.768881,49.3089193 471.938638,49.3328449 472.145996,49.371582 C472.353354,49.4103192 472.536783,49.4627275 472.696289,49.5288086 C472.855795,49.5948897 473.023274,49.6951491 473.19873,49.8295898 C473.374187,49.9640306 473.520019,50.1223949 473.63623,50.3046875 C473.752442,50.4869801 473.848144,50.7193996 473.92334,51.0019531 C473.998536,51.2845066 474.036133,51.6012352 474.036133,51.9521484 Z M468.792969,53.9277344 L470.467773,53.9277344 C470.700196,53.9277344 470.905273,53.9197592 471.083008,53.9038086 C471.260743,53.887858 471.469237,53.8445642 471.708496,53.7739258 C471.947755,53.7032874 472.145995,53.6053066 472.303223,53.4799805 C472.46045,53.3546543 472.594889,53.1723645 472.706543,52.9331055 C472.818197,52.6938465 472.874023,52.4101579 472.874023,52.0820312 C472.874023,51.8496082 472.844401,51.6399749 472.785156,51.453125 C472.725911,51.2662751 472.650717,51.1124681 472.55957,50.9916992 C472.468424,50.8709304 472.356771,50.7661137 472.224609,50.6772461 C472.092447,50.5883785 471.964844,50.5211591 471.841797,50.4755859 C471.718749,50.4300128 471.582032,50.3935548 471.431641,50.3662109 C471.281249,50.3388671 471.157064,50.3217774 471.059082,50.3149414 C470.9611,50.3081054 470.857422,50.3046875 470.748047,50.3046875 L468.792969,50.3046875 L468.792969,53.9277344 Z M392.097168,69.1835938 C392.739749,69.1835938 393.340166,69.2963856 393.898438,69.5219727 C394.456709,69.7475597 394.939777,70.0654276 395.347656,70.4755859 C395.755536,70.8857442 396.075682,71.3972951 396.308105,72.0102539 C396.540529,72.6232127 396.656738,73.2965458 396.656738,74.0302734 C396.656738,75.023768 396.459637,75.9067344 396.06543,76.6791992 C395.671222,77.451664 395.124352,78.0486633 394.424805,78.4702148 C393.725257,78.8917664 392.933435,79.1025391 392.049316,79.1025391 C391.46598,79.1025391 390.907718,78.9988617 390.374512,78.7915039 C389.841306,78.5841461 389.360516,78.2822285 388.932129,77.8857422 C388.503741,77.4892558 388.161948,76.9708691 387.906738,76.3305664 C387.651529,75.6902637 387.523926,74.9690795 387.523926,74.1669922 C387.523926,73.4150353 387.640136,72.7268911 387.872559,72.1025391 C388.104982,71.478187 388.423989,70.9529644 388.82959,70.5268555 C389.235191,70.1007466 389.718259,69.7703462 390.278809,69.5356445 C390.839358,69.3009428 391.445472,69.1835938 392.097168,69.1835938 Z M392.035645,70.2021484 C391.620929,70.2021484 391.22217,70.2796216 390.839355,70.4345703 C390.456541,70.589519 390.104494,70.816242 389.783203,71.1147461 C389.461912,71.4132502 389.204428,71.8142878 389.010742,72.3178711 C388.817056,72.8214543 388.720215,73.3899708 388.720215,74.0234375 C388.720215,74.6295603 388.809081,75.1889623 388.986816,75.7016602 C389.164552,76.214358 389.406086,76.6438785 389.711426,76.9902344 C390.016766,77.3365903 390.377928,77.6054678 390.794922,77.796875 C391.211916,77.9882822 391.659666,78.0839844 392.138184,78.0839844 C392.461753,78.0839844 392.779621,78.0361333 393.091797,77.9404297 C393.403973,77.8447261 393.703612,77.6931977 393.990723,77.4858398 C394.277833,77.278482 394.529621,77.0244156 394.746094,76.7236328 C394.962566,76.4228501 395.135742,76.0514345 395.265625,75.609375 C395.395508,75.1673155 395.460449,74.6819688 395.460449,74.1533203 C395.460449,73.6155572 395.392091,73.1233746 395.255371,72.6767578 C395.118652,72.230141 394.937501,71.8564468 394.711914,71.5556641 C394.486327,71.2548813 394.224285,71.0008148 393.925781,70.793457 C393.627277,70.5860992 393.319663,70.4357101 393.00293,70.3422852 C392.686196,70.2488602 392.363771,70.2021484 392.035645,70.2021484 Z M398.70752,68.6708984 L400.040527,68.6708984 L399.186035,71.6308594 L397.853027,71.6308594 L398.70752,68.6708984 Z M409.050293,71.9521484 C409.050293,72.2757178 409.011556,72.5833319 408.934082,72.875 C408.856608,73.1666681 408.735841,73.4446601 408.571777,73.7089844 C408.407714,73.9733086 408.180991,74.2023102 407.891602,74.3959961 C407.602212,74.589682 407.263837,74.7320959 406.876465,74.8232422 L409.617676,79 L408.318848,79 L405.687012,74.953125 L403.807129,74.953125 L403.807129,79 L402.638184,79 L402.638184,69.2861328 L406.206543,69.2861328 C406.370606,69.2861328 406.518717,69.2906901 406.650879,69.2998047 C406.783041,69.3089193 406.952798,69.3328449 407.160156,69.371582 C407.367514,69.4103192 407.550943,69.4627275 407.710449,69.5288086 C407.869955,69.5948897 408.037434,69.6951491 408.212891,69.8295898 C408.388347,69.9640306 408.534179,70.1223949 408.650391,70.3046875 C408.766602,70.4869801 408.862304,70.7193996 408.9375,71.0019531 C409.012696,71.2845066 409.050293,71.6012352 409.050293,71.9521484 Z M403.807129,73.9277344 L405.481934,73.9277344 C405.714357,73.9277344 405.919433,73.9197592 406.097168,73.9038086 C406.274903,73.887858 406.483397,73.8445642 406.722656,73.7739258 C406.961915,73.7032874 407.160155,73.6053066 407.317383,73.4799805 C407.47461,73.3546543 407.609049,73.1723645 407.720703,72.9331055 C407.832357,72.6938465 407.888184,72.4101579 407.888184,72.0820312 C407.888184,71.8496082 407.858561,71.6399749 407.799316,71.453125 C407.740071,71.2662751 407.664877,71.1124681 407.57373,70.9916992 C407.482584,70.8709304 407.370932,70.7661137 407.23877,70.6772461 C407.106607,70.5883785 406.979005,70.5211591 406.855957,70.4755859 C406.73291,70.4300128 406.596192,70.3935548 406.445801,70.3662109 C406.295409,70.3388671 406.171224,70.3217774 406.073242,70.3149414 C405.97526,70.3081054 405.871583,70.3046875 405.762207,70.3046875 L403.807129,70.3046875 L403.807129,73.9277344 Z M417.458496,70.3115234 L417.458496,77.9746094 L418.873535,77.9746094 C419.078614,77.9746094 419.248372,77.9723308 419.382812,77.9677734 C419.517253,77.9632161 419.699543,77.9495444 419.929688,77.9267578 C420.159832,77.9039712 420.358072,77.8697919 420.524414,77.8242188 C420.690756,77.7786456 420.879882,77.7125655 421.091797,77.6259766 C421.303712,77.5393876 421.491698,77.4345709 421.655762,77.3115234 C421.819825,77.1884759 421.983886,77.031251 422.147949,76.8398438 C422.312013,76.6484365 422.455566,76.4319674 422.578613,76.1904297 C422.879396,75.6116508 423.029785,74.9075562 423.029785,74.078125 C423.029785,73.5039034 422.946615,72.9855166 422.780273,72.5229492 C422.613931,72.0603818 422.392905,71.684409 422.117188,71.3950195 C421.84147,71.1056301 421.547528,70.8766284 421.235352,70.7080078 C420.923176,70.5393872 420.596193,70.425456 420.254395,70.3662109 C420.053873,70.3297524 419.750816,70.3115234 419.345215,70.3115234 L417.458496,70.3115234 Z M419.304199,69.2861328 C419.933109,69.2861328 420.505043,69.3487949 421.02002,69.4741211 C421.534996,69.5994472 421.966795,69.7760405 422.31543,70.0039062 C422.664064,70.231772 422.963703,70.4892564 423.214355,70.7763672 C423.465008,71.063478 423.65983,71.3836245 423.798828,71.7368164 C423.937826,72.0900083 424.039225,72.4374983 424.103027,72.7792969 C424.16683,73.1210955 424.19873,73.4765607 424.19873,73.8457031 C424.19873,74.2695334 424.16683,74.6774069 424.103027,75.0693359 C424.039225,75.461265 423.928712,75.860024 423.771484,76.265625 C423.614257,76.671226 423.413738,77.0346664 423.169922,77.355957 C422.926106,77.6772477 422.610516,77.9666328 422.223145,78.2241211 C421.835773,78.4816094 421.395999,78.6718744 420.903809,78.7949219 C420.648599,78.8587243 420.363771,78.9065754 420.049316,78.9384766 C419.734862,78.9703778 419.475099,78.9886067 419.27002,78.9931641 C419.06494,78.9977214 418.775555,79 418.401855,79 L416.296387,79 L416.296387,69.2861328 L419.304199,69.2861328 Z M431.335449,69.1835938 C431.978031,69.1835938 432.578448,69.2963856 433.136719,69.5219727 C433.69499,69.7475597 434.178058,70.0654276 434.585938,70.4755859 C434.993817,70.8857442 435.313964,71.3972951 435.546387,72.0102539 C435.77881,72.6232127 435.89502,73.2965458 435.89502,74.0302734 C435.89502,75.023768 435.697919,75.9067344 435.303711,76.6791992 C434.909503,77.451664 434.362634,78.0486633 433.663086,78.4702148 C432.963538,78.8917664 432.171717,79.1025391 431.287598,79.1025391 C430.704261,79.1025391 430.145999,78.9988617 429.612793,78.7915039 C429.079587,78.5841461 428.598798,78.2822285 428.17041,77.8857422 C427.742023,77.4892558 427.400229,76.9708691 427.14502,76.3305664 C426.88981,75.6902637 426.762207,74.9690795 426.762207,74.1669922 C426.762207,73.4150353 426.878417,72.7268911 427.11084,72.1025391 C427.343263,71.478187 427.66227,70.9529644 428.067871,70.5268555 C428.473472,70.1007466 428.95654,69.7703462 429.51709,69.5356445 C430.07764,69.3009428 430.683753,69.1835938 431.335449,69.1835938 Z M431.273926,70.2021484 C430.85921,70.2021484 430.460451,70.2796216 430.077637,70.4345703 C429.694822,70.589519 429.342775,70.816242 429.021484,71.1147461 C428.700194,71.4132502 428.442709,71.8142878 428.249023,72.3178711 C428.055338,72.8214543 427.958496,73.3899708 427.958496,74.0234375 C427.958496,74.6295603 428.047362,75.1889623 428.225098,75.7016602 C428.402833,76.214358 428.644367,76.6438785 428.949707,76.9902344 C429.255047,77.3365903 429.616209,77.6054678 430.033203,77.796875 C430.450197,77.9882822 430.897947,78.0839844 431.376465,78.0839844 C431.700034,78.0839844 432.017902,78.0361333 432.330078,77.9404297 C432.642254,77.8447261 432.941893,77.6931977 433.229004,77.4858398 C433.516115,77.278482 433.767903,77.0244156 433.984375,76.7236328 C434.200847,76.4228501 434.374023,76.0514345 434.503906,75.609375 C434.63379,75.1673155 434.69873,74.6819688 434.69873,74.1533203 C434.69873,73.6155572 434.630372,73.1233746 434.493652,72.6767578 C434.356933,72.230141 434.175782,71.8564468 433.950195,71.5556641 C433.724608,71.2548813 433.462567,71.0008148 433.164062,70.793457 C432.865558,70.5860992 432.557944,70.4357101 432.241211,70.3422852 C431.924478,70.2488602 431.602052,70.2021484 431.273926,70.2021484 Z M443.100098,69.2109375 C444.193853,69.2109375 445.235184,69.4866509 446.224121,70.0380859 L445.766113,70.90625 C445.419757,70.7239574 445.016441,70.5667324 444.556152,70.4345703 C444.095864,70.3024082 443.631024,70.2363281 443.161621,70.2363281 C442.683103,70.2363281 442.221682,70.3251944 441.777344,70.5029297 C441.333006,70.680665 440.937664,70.9301742 440.591309,71.2514648 C440.244953,71.5727555 439.9681,71.9783504 439.760742,72.4682617 C439.553384,72.958173 439.449707,73.4947887 439.449707,74.078125 C439.449707,74.8483111 439.620604,75.5410125 439.962402,76.15625 C440.304201,76.7714875 440.775876,77.2499983 441.377441,77.5917969 C441.979007,77.9335955 442.651201,78.1044922 443.394043,78.1044922 C444.273605,78.1044922 444.989092,77.8401719 445.540527,77.3115234 L445.540527,74.8300781 L442.778809,74.8300781 L442.778809,73.8730469 L446.668457,73.8730469 L446.668457,77.6875 C446.54541,77.8287767 446.402996,77.9654941 446.241211,78.0976562 C446.079426,78.2298184 445.853843,78.3824861 445.564453,78.5556641 C445.275064,78.728842 444.918459,78.8689773 444.494629,78.9760742 C444.070799,79.0831711 443.612795,79.1367188 443.120605,79.1367188 C442.473467,79.1367188 441.877607,79.0398773 441.333008,78.8461914 C440.788409,78.6525055 440.331545,78.3938818 439.962402,78.0703125 C439.59326,77.7467432 439.281089,77.3696311 439.025879,76.9389648 C438.770669,76.5082986 438.583822,76.0582706 438.465332,75.5888672 C438.346842,75.1194638 438.287598,74.640953 438.287598,74.1533203 C438.287598,73.6429011 438.352538,73.1473006 438.482422,72.6665039 C438.612305,72.1857072 438.811685,71.7356792 439.080566,71.3164062 C439.349448,70.8971333 439.671873,70.5314143 440.047852,70.2192383 C440.42383,69.9070622 440.873858,69.660971 441.397949,69.480957 C441.92204,69.3009431 442.489418,69.2109375 443.100098,69.2109375 Z M450.838379,70.3115234 L450.838379,73.4833984 L454.89209,73.4833984 L454.89209,74.5087891 L450.838379,74.5087891 L450.838379,79 L449.67627,79 L449.67627,69.2861328 L455.302246,69.2861328 L455.302246,70.3115234 L450.838379,70.3115234 Z M458.20752,79 L458.20752,69.2861328 L463.901855,69.2861328 L463.901855,70.3115234 L459.369629,70.3115234 L459.369629,73.4833984 L463.525879,73.4833984 L463.525879,74.5087891 L459.369629,74.5087891 L459.369629,77.9746094 L463.901855,77.9746094 L463.901855,79 L458.20752,79 Z M466.978027,69.2861328 L468.447754,69.2861328 L473.73877,77.4140625 L473.73877,69.2861328 L474.900879,69.2861328 L474.900879,79 L473.431152,79 L468.140137,70.8583984 L468.140137,79 L466.978027,79 L466.978027,69.2861328 Z M478.318848,69.2861328 L479.788574,69.2861328 L485.07959,77.4140625 L485.07959,69.2861328 L486.241699,69.2861328 L486.241699,79 L484.771973,79 L479.480957,70.8583984 L479.480957,79 L478.318848,79 L478.318848,69.2861328 Z M492.018066,69.2861328 L493.337402,69.2861328 L496.789551,79 L495.61377,79 L494.629395,76.1767578 L490.623535,76.1767578 L489.63916,79 L488.565918,79 L492.018066,69.2861328 Z M492.626465,70.4208984 L490.972168,75.1582031 L494.273926,75.1582031 L492.626465,70.4208984 Z M499.11377,69.2861328 L500.275879,69.2861328 L500.275879,75.5820312 C500.275879,75.969403 500.308919,76.3020819 500.375,76.5800781 C500.441081,76.8580743 500.581216,77.1178373 500.79541,77.359375 C501.251142,77.8743515 501.923335,78.1318359 502.812012,78.1318359 C503.454593,78.1318359 503.991209,77.9917006 504.421875,77.7114258 C504.852541,77.4311509 505.131673,77.0358098 505.259277,76.5253906 C505.318522,76.283853 505.348145,75.969403 505.348145,75.5820312 L505.348145,69.2861328 L506.496582,69.2861328 C506.496582,70.7490308 506.497721,71.9453079 506.5,72.875 C506.502279,73.8046921 506.503418,74.4005521 506.503418,74.6625977 C506.503418,74.9246432 506.504557,75.1342766 506.506836,75.2915039 C506.509115,75.4487313 506.510254,75.5797521 506.510254,75.6845703 C506.510254,75.8942068 506.505697,76.0776359 506.496582,76.2348633 C506.487467,76.3920906 506.456706,76.598306 506.404297,76.8535156 C506.351888,77.1087252 506.280111,77.330891 506.188965,77.5200195 C506.097819,77.7091481 505.959962,77.9108062 505.775391,78.125 C505.590819,78.3391938 505.372072,78.5157871 505.119141,78.6547852 C504.86621,78.7937832 504.542645,78.9088537 504.148438,79 C503.75423,79.0911463 503.308759,79.1367188 502.812012,79.1367188 C502.278806,79.1367188 501.800295,79.0808925 501.376465,78.9692383 C500.952635,78.8575841 500.619956,78.7242846 500.378418,78.5693359 C500.13688,78.4143872 499.928386,78.2275402 499.75293,78.0087891 C499.577473,77.790038 499.456706,77.6020516 499.390625,77.4448242 C499.324544,77.2875969 499.270996,77.1223967 499.22998,76.9492188 C499.152506,76.648436 499.11377,76.2223335 499.11377,75.6708984 L499.11377,69.2861328 Z" id="Rhestr-o’r-dogfennau" fill="#000000"></path>
            <path d="M785.790527,59 L785.790527,49.2861328 L791.484863,49.2861328 L791.484863,50.3115234 L786.952637,50.3115234 L786.952637,53.4833984 L791.108887,53.4833984 L791.108887,54.5087891 L786.952637,54.5087891 L786.952637,57.9746094 L791.484863,57.9746094 L791.484863,59 L785.790527,59 Z M793.774902,54.0234375 L799.653809,54.0234375 L799.653809,54.9736328 L793.774902,54.9736328 L793.774902,54.0234375 Z M803.994629,50.1748047 L803.994629,53.4355469 C804.081218,53.4309896 804.231607,53.4275716 804.445801,53.425293 C804.659995,53.4230143 804.826334,53.4207357 804.944824,53.418457 C805.063314,53.4161784 805.229654,53.4070639 805.443848,53.3911133 C805.658041,53.3751627 805.830077,53.3569337 805.959961,53.3364258 C806.089844,53.3159179 806.247069,53.2840171 806.431641,53.2407227 C806.616212,53.1974282 806.766601,53.1472985 806.882812,53.090332 C806.999024,53.0333656 807.12207,52.9604497 807.251953,52.871582 C807.381837,52.7827144 807.483235,52.6835943 807.556152,52.5742188 C807.629069,52.4648432 807.689453,52.3338224 807.737305,52.1811523 C807.785156,52.0284823 807.809082,51.8610035 807.809082,51.6787109 C807.809082,51.5419915 807.79541,51.41211 807.768066,51.2890625 C807.740723,51.166015 807.683757,51.0338549 807.597168,50.8925781 C807.510579,50.7513014 807.398926,50.6305344 807.262207,50.5302734 C807.125488,50.4300125 806.937501,50.3457035 806.698242,50.2773438 C806.458983,50.208984 806.18213,50.1748047 805.867676,50.1748047 L803.994629,50.1748047 Z M803.994629,54.3378906 L803.994629,57.9746094 L805.806152,57.9746094 C805.970216,57.9746094 806.108072,57.9734701 806.219727,57.9711914 C806.331381,57.9689127 806.492024,57.955241 806.70166,57.9301758 C806.911297,57.9051106 807.090169,57.8709312 807.238281,57.8276367 C807.386394,57.7843422 807.551594,57.7182622 807.733887,57.6293945 C807.916179,57.5405269 808.06315,57.4345709 808.174805,57.3115234 C808.286459,57.1884759 808.381022,57.0301116 808.458496,56.8364258 C808.53597,56.6427399 808.574707,56.4228528 808.574707,56.1767578 C808.574707,55.570635 808.340009,55.0966814 807.870605,54.7548828 C807.401202,54.4130842 806.770023,54.2421875 805.977051,54.2421875 C805.890462,54.2421875 805.229661,54.2740882 803.994629,54.3378906 Z M802.83252,49.2861328 L806.257324,49.2861328 C806.590008,49.2861328 806.894204,49.3214515 807.169922,49.3920898 C807.445639,49.4627282 807.673502,49.5527338 807.853516,49.6621094 C808.03353,49.7714849 808.193033,49.9013664 808.332031,50.0517578 C808.471029,50.2021492 808.576985,50.3479811 808.649902,50.4892578 C808.722819,50.6305346 808.782064,50.7809237 808.827637,50.9404297 C808.87321,51.0999357 808.901693,51.2309565 808.913086,51.3334961 C808.924479,51.4360357 808.930176,51.5328771 808.930176,51.6240234 C808.930176,52.0205098 808.795737,52.4158509 808.526855,52.8100586 C808.257974,53.2042663 807.973146,53.4583328 807.672363,53.5722656 C808.273929,53.6816412 808.767251,53.9721656 809.152344,54.4438477 C809.537437,54.9155297 809.72998,55.4521454 809.72998,56.0537109 C809.72998,56.1949877 809.717448,56.3430982 809.692383,56.4980469 C809.667318,56.6529956 809.618327,56.8284495 809.54541,57.0244141 C809.472493,57.2203786 809.37907,57.4072257 809.265137,57.5849609 C809.151204,57.7626962 808.996257,57.9392895 808.800293,58.1147461 C808.604328,58.2902027 808.379884,58.4417311 808.126953,58.5693359 C807.874022,58.6969407 807.564129,58.8006181 807.197266,58.8803711 C806.830402,58.9601241 806.428225,59 805.990723,59 L802.83252,59 L802.83252,49.2861328 Z M816.627441,49.1835938 C817.270023,49.1835938 817.87044,49.2963856 818.428711,49.5219727 C818.986982,49.7475597 819.47005,50.0654276 819.87793,50.4755859 C820.285809,50.8857442 820.605956,51.3972951 820.838379,52.0102539 C821.070802,52.6232127 821.187012,53.2965458 821.187012,54.0302734 C821.187012,55.023768 820.989911,55.9067344 820.595703,56.6791992 C820.201495,57.451664 819.654626,58.0486633 818.955078,58.4702148 C818.25553,58.8917664 817.463709,59.1025391 816.57959,59.1025391 C815.996254,59.1025391 815.437991,58.9988617 814.904785,58.7915039 C814.371579,58.5841461 813.89079,58.2822285 813.462402,57.8857422 C813.034015,57.4892558 812.692221,56.9708691 812.437012,56.3305664 C812.181802,55.6902637 812.054199,54.9690795 812.054199,54.1669922 C812.054199,53.4150353 812.170409,52.7268911 812.402832,52.1025391 C812.635255,51.478187 812.954262,50.9529644 813.359863,50.5268555 C813.765464,50.1007466 814.248532,49.7703462 814.809082,49.5356445 C815.369632,49.3009428 815.975745,49.1835938 816.627441,49.1835938 Z M816.565918,50.2021484 C816.151202,50.2021484 815.752443,50.2796216 815.369629,50.4345703 C814.986814,50.589519 814.634767,50.816242 814.313477,51.1147461 C813.992186,51.4132502 813.734701,51.8142878 813.541016,52.3178711 C813.34733,52.8214543 813.250488,53.3899708 813.250488,54.0234375 C813.250488,54.6295603 813.339355,55.1889623 813.51709,55.7016602 C813.694825,56.214358 813.936359,56.6438785 814.241699,56.9902344 C814.547039,57.3365903 814.908201,57.6054678 815.325195,57.796875 C815.74219,57.9882822 816.189939,58.0839844 816.668457,58.0839844 C816.992026,58.0839844 817.309894,58.0361333 817.62207,57.9404297 C817.934246,57.8447261 818.233885,57.6931977 818.520996,57.4858398 C818.808107,57.278482 819.059895,57.0244156 819.276367,56.7236328 C819.49284,56.4228501 819.666015,56.0514345 819.795898,55.609375 C819.925782,55.1673155 819.990723,54.6819688 819.990723,54.1533203 C819.990723,53.6155572 819.922364,53.1233746 819.785645,52.6767578 C819.648925,52.230141 819.467775,51.8564468 819.242188,51.5556641 C819.0166,51.2548813 818.754559,51.0008148 818.456055,50.793457 C818.157551,50.5860992 817.849936,50.4357101 817.533203,50.3422852 C817.21647,50.2488602 816.894045,50.2021484 816.565918,50.2021484 Z M827.722168,49.1972656 C828.469568,49.1972656 829.273921,49.3271471 830.135254,49.5869141 L829.759277,50.6464844 C828.938961,50.409504 828.22803,50.2910156 827.626465,50.2910156 C826.951982,50.2910156 826.381187,50.4334296 825.914062,50.7182617 C825.446938,51.0030939 825.213379,51.3710915 825.213379,51.8222656 C825.213379,52.0729179 825.288573,52.296223 825.438965,52.4921875 C825.589356,52.688152 825.787596,52.8476556 826.033691,52.9707031 C826.279786,53.0937506 826.560057,53.2156569 826.874512,53.3364258 C827.188966,53.4571946 827.509113,53.5677078 827.834961,53.6679688 C828.160809,53.7682297 828.480955,53.8958326 828.79541,54.0507812 C829.109865,54.2057299 829.390135,54.3754874 829.63623,54.5600586 C829.882325,54.7446298 830.080566,54.9850246 830.230957,55.28125 C830.381348,55.5774754 830.456543,55.912433 830.456543,56.2861328 C830.456543,56.5458997 830.415528,56.8045235 830.333496,57.0620117 C830.251464,57.3195 830.114747,57.5747058 829.92334,57.8276367 C829.731933,58.0805677 829.494956,58.3027334 829.212402,58.4941406 C828.929849,58.6855478 828.573244,58.8404942 828.142578,58.9589844 C827.711912,59.0774746 827.232262,59.1367188 826.703613,59.1367188 C826.174965,59.1367188 825.688479,59.0820318 825.244141,58.9726562 C824.799802,58.8632807 824.301923,58.6992198 823.750488,58.4804688 L824.146973,57.3525391 C825.286301,57.7763693 826.186357,57.9882812 826.847168,57.9882812 C827.53988,57.9882812 828.103839,57.8492852 828.539062,57.5712891 C828.974286,57.2932929 829.191895,56.9218773 829.191895,56.4570312 C829.191895,56.1471339 829.095053,55.8793957 828.901367,55.6538086 C828.707681,55.4282215 828.457033,55.2459317 828.149414,55.1069336 C827.841795,54.9679355 827.501141,54.838054 827.127441,54.7172852 C826.753742,54.5965163 826.381187,54.4666348 826.009766,54.3276367 C825.638344,54.1886386 825.29883,54.0279957 824.991211,53.8457031 C824.683592,53.6634105 824.432944,53.4173193 824.239258,53.1074219 C824.045572,52.7975245 823.94873,52.4329448 823.94873,52.0136719 C823.94873,51.6399721 824.038736,51.2822283 824.21875,50.9404297 C824.398764,50.5986311 824.648273,50.2989922 824.967285,50.0415039 C825.286297,49.7840156 825.685056,49.5789396 826.163574,49.4262695 C826.642092,49.2735995 827.161618,49.1972656 827.722168,49.1972656 Z M831.994629,49.2861328 L839.650879,49.2861328 L839.650879,50.3115234 L836.403809,50.3115234 L836.403809,59 L835.241699,59 L835.241699,50.3115234 L831.994629,50.3115234 L831.994629,49.2861328 Z M845.495605,49.2861328 L848.70166,49.2861328 C848.852052,49.2861328 848.976236,49.2872721 849.074219,49.2895508 C849.172201,49.2918294 849.314615,49.3009439 849.501465,49.3168945 C849.688315,49.3328451 849.847818,49.3556314 849.97998,49.3852539 C850.112143,49.4148765 850.268228,49.4604489 850.448242,49.5219727 C850.628256,49.5834964 850.782063,49.655273 850.909668,49.7373047 C851.037273,49.8193363 851.170572,49.9275709 851.30957,50.0620117 C851.448568,50.1964525 851.560221,50.3457023 851.644531,50.5097656 C851.728842,50.6738289 851.79834,50.8720692 851.853027,51.1044922 C851.907715,51.3369152 851.935059,51.592121 851.935059,51.8701172 C851.935059,52.2711609 851.889486,52.6311833 851.79834,52.9501953 C851.707194,53.2692073 851.589844,53.5358062 851.446289,53.75 C851.302734,53.9641938 851.117026,54.1487622 850.88916,54.3037109 C850.661294,54.4586596 850.435711,54.5782873 850.212402,54.6625977 C849.989094,54.746908 849.725913,54.812988 849.422852,54.8608398 C849.11979,54.9086916 848.848634,54.9394531 848.609375,54.953125 C848.370116,54.9667969 848.093263,54.9736328 847.778809,54.9736328 C847.468911,54.9736328 847.095217,54.9576825 846.657715,54.9257812 L846.657715,59 L845.495605,59 L845.495605,49.2861328 Z M846.657715,53.9003906 C847.095217,53.9368491 847.509926,53.9550781 847.901855,53.9550781 C848.125164,53.9550781 848.312011,53.9527995 848.462402,53.9482422 C848.612794,53.9436849 848.797362,53.9277345 849.016113,53.9003906 C849.234864,53.8730467 849.417154,53.8354495 849.562988,53.7875977 C849.708822,53.7397459 849.863769,53.6679692 850.027832,53.5722656 C850.191895,53.476562 850.322916,53.3637702 850.420898,53.2338867 C850.518881,53.1040033 850.599772,52.9399424 850.663574,52.7416992 C850.727377,52.543456 850.759277,52.316733 850.759277,52.0615234 C850.759277,51.7971992 850.725098,51.5636403 850.656738,51.3608398 C850.588379,51.1580394 850.489258,50.9951178 850.359375,50.8720703 C850.229492,50.7490228 850.092774,50.6476241 849.949219,50.5678711 C849.805663,50.4881181 849.632488,50.4311525 849.429688,50.3969727 C849.226887,50.3627928 849.049154,50.3400066 848.896484,50.3286133 C848.743814,50.31722 848.562664,50.3115234 848.353027,50.3115234 L846.657715,50.3115234 L846.657715,53.9003906 Z M857.007324,49.2861328 L858.32666,49.2861328 L861.778809,59 L860.603027,59 L859.618652,56.1767578 L855.612793,56.1767578 L854.628418,59 L853.555176,59 L857.007324,49.2861328 Z M857.615723,50.4208984 L855.961426,55.1582031 L859.263184,55.1582031 L857.615723,50.4208984 Z M870.515137,51.9521484 C870.515137,52.2757178 870.4764,52.5833319 870.398926,52.875 C870.321451,53.1666681 870.200684,53.4446601 870.036621,53.7089844 C869.872558,53.9733086 869.645835,54.2023102 869.356445,54.3959961 C869.067056,54.589682 868.72868,54.7320959 868.341309,54.8232422 L871.08252,59 L869.783691,59 L867.151855,54.953125 L865.271973,54.953125 L865.271973,59 L864.103027,59 L864.103027,49.2861328 L867.671387,49.2861328 C867.83545,49.2861328 867.983561,49.2906901 868.115723,49.2998047 C868.247885,49.3089193 868.417642,49.3328449 868.625,49.371582 C868.832358,49.4103192 869.015787,49.4627275 869.175293,49.5288086 C869.334799,49.5948897 869.502278,49.6951491 869.677734,49.8295898 C869.853191,49.9640306 869.999023,50.1223949 870.115234,50.3046875 C870.231446,50.4869801 870.327148,50.7193996 870.402344,51.0019531 C870.477539,51.2845066 870.515137,51.6012352 870.515137,51.9521484 Z M865.271973,53.9277344 L866.946777,53.9277344 C867.1792,53.9277344 867.384276,53.9197592 867.562012,53.9038086 C867.739747,53.887858 867.948241,53.8445642 868.1875,53.7739258 C868.426759,53.7032874 868.624999,53.6053066 868.782227,53.4799805 C868.939454,53.3546543 869.073893,53.1723645 869.185547,52.9331055 C869.297201,52.6938465 869.353027,52.4101579 869.353027,52.0820312 C869.353027,51.8496082 869.323405,51.6399749 869.26416,51.453125 C869.204915,51.2662751 869.129721,51.1124681 869.038574,50.9916992 C868.947428,50.8709304 868.835775,50.7661137 868.703613,50.6772461 C868.571451,50.5883785 868.443848,50.5211591 868.320801,50.4755859 C868.197753,50.4300128 868.061036,50.3935548 867.910645,50.3662109 C867.760253,50.3388671 867.636068,50.3217774 867.538086,50.3149414 C867.440104,50.3081054 867.336426,50.3046875 867.227051,50.3046875 L865.271973,50.3046875 L865.271973,53.9277344 Z M876.291504,49.2861328 L877.61084,49.2861328 L881.062988,59 L879.887207,59 L878.902832,56.1767578 L874.896973,56.1767578 L873.912598,59 L872.839355,59 L876.291504,49.2861328 Z M876.899902,50.4208984 L875.245605,55.1582031 L878.547363,55.1582031 L876.899902,50.4208984 Z M881.98584,49.2861328 L889.64209,49.2861328 L889.64209,50.3115234 L886.39502,50.3115234 L886.39502,59 L885.23291,59 L885.23291,50.3115234 L881.98584,50.3115234 L881.98584,49.2861328 Z M895.719238,49.1835938 C896.36182,49.1835938 896.962237,49.2963856 897.520508,49.5219727 C898.078779,49.7475597 898.561847,50.0654276 898.969727,50.4755859 C899.377606,50.8857442 899.697753,51.3972951 899.930176,52.0102539 C900.162599,52.6232127 900.278809,53.2965458 900.278809,54.0302734 C900.278809,55.023768 900.081708,55.9067344 899.6875,56.6791992 C899.293292,57.451664 898.746423,58.0486633 898.046875,58.4702148 C897.347327,58.8917664 896.555506,59.1025391 895.671387,59.1025391 C895.08805,59.1025391 894.529788,58.9988617 893.996582,58.7915039 C893.463376,58.5841461 892.982587,58.2822285 892.554199,57.8857422 C892.125812,57.4892558 891.784018,56.9708691 891.528809,56.3305664 C891.273599,55.6902637 891.145996,54.9690795 891.145996,54.1669922 C891.145996,53.4150353 891.262206,52.7268911 891.494629,52.1025391 C891.727052,51.478187 892.046059,50.9529644 892.45166,50.5268555 C892.857261,50.1007466 893.340329,49.7703462 893.900879,49.5356445 C894.461429,49.3009428 895.067542,49.1835938 895.719238,49.1835938 Z M895.657715,50.2021484 C895.242999,50.2021484 894.84424,50.2796216 894.461426,50.4345703 C894.078611,50.589519 893.726564,50.816242 893.405273,51.1147461 C893.083983,51.4132502 892.826498,51.8142878 892.632812,52.3178711 C892.439127,52.8214543 892.342285,53.3899708 892.342285,54.0234375 C892.342285,54.6295603 892.431151,55.1889623 892.608887,55.7016602 C892.786622,56.214358 893.028156,56.6438785 893.333496,56.9902344 C893.638836,57.3365903 893.999998,57.6054678 894.416992,57.796875 C894.833986,57.9882822 895.281736,58.0839844 895.760254,58.0839844 C896.083823,58.0839844 896.401691,58.0361333 896.713867,57.9404297 C897.026043,57.8447261 897.325682,57.6931977 897.612793,57.4858398 C897.899904,57.278482 898.151692,57.0244156 898.368164,56.7236328 C898.584636,56.4228501 898.757812,56.0514345 898.887695,55.609375 C899.017579,55.1673155 899.08252,54.6819688 899.08252,54.1533203 C899.08252,53.6155572 899.014161,53.1233746 898.877441,52.6767578 C898.740722,52.230141 898.559571,51.8564468 898.333984,51.5556641 C898.108397,51.2548813 897.846356,51.0008148 897.547852,50.793457 C897.249347,50.5860992 896.941733,50.4357101 896.625,50.3422852 C896.308267,50.2488602 895.985841,50.2021484 895.657715,50.2021484 Z M903.38916,49.2861328 L904.55127,49.2861328 L904.55127,59 L903.38916,59 L903.38916,49.2861328 Z" id="E-bost-paratoi" fill="#000000"></path>
            <g id="PROG_BAR" transform="translate(428.000000, 0.000000)">
                <rect id="Rectangle-3" fill="#4169E1" x="33" y="15" width="370" height="6" rx="3"></rect>
                <g id="ITEM" transform="translate(0.500000, 0.000000)">
                    <g id="Group-3">
                        <g id="done">
                            <circle id="Oval-3" fill="#4169E1" cx="18" cy="18" r="18"></circle>
                            <path d="M27.6470588,11.3461538 C27.1764706,10.8846154 26.4705882,10.8846154 26,11.3461538 L13.8823529,23.2307692 L10,19.4230769 C9.52941176,18.9615385 8.82352941,18.9615385 8.35294118,19.4230769 C7.88235294,19.8846154 7.88235294,20.5769231 8.35294118,21.0384615 L13.0588235,25.6538462 C13.2941176,25.8846154 13.6470588,26 13.8823529,26 C14.1176471,26 14.4705882,25.8846154 14.7058824,25.6538462 L27.6470588,12.9615385 C28.1176471,12.5 28.1176471,11.8076923 27.6470588,11.3461538 Z" id="Shape" fill="#FFFFFF" fill-rule="nonzero"></path>
                        </g>
                    </g>
                </g>
            </g>
            <g id="item" transform="translate(828.000000, 0.000000)">
                <g id="Group-5">
                    <circle id="Oval-3" stroke="#4169E1" stroke-width="5" cx="18" cy="18" r="15.5"></circle>
                    <circle id="Oval-3" fill="#4169E1" cx="18" cy="18" r="7"></circle>
                </g>
            </g>
        </g>
    </g>
</svg>