<?xml version="1.0" encoding="UTF-8"?>
<svg width="23px" height="22px" viewBox="0 0 23 22" version="1.1" xmlns="http://www.w3.org/2000/svg" xmlns:xlink="http://www.w3.org/1999/xlink">
    <!-- Generator: Sketch 48.2 (47327) - http://www.bohemiancoding.com/sketch -->
    <title>progress_done_white</title>
    <desc>Created with Sketch.</desc>
    <defs></defs>
    <g id="progress_circle_success_white" stroke="none" stroke-width="1" fill="none" fill-rule="evenodd" transform="translate(-5.000000, -3.000000)">
        <g id="progress_done_white" transform="translate(5.000000, 3.000000)" fill="#FFFFFF" fill-rule="nonzero">
            <path d="M20.4,7.4 C19.9,7.5 19.6,8.1 19.7,8.6 C19.9,9.4 20,10.2 20,11 C20,16 16,20 11,20 C6,20 2,16 2,11 C2,6 6,2 11,2 C12.7,2 14.3,2.5 15.7,3.3 C16.2,3.6 16.8,3.4 17.1,3 C17.4,2.5 17.2,1.9 16.8,1.6 C15,0.6 13,0 11,0 C4.9,0 0,4.9 0,11 C0,17.1 4.9,22 11,22 C17.1,22 22,17.1 22,11 C22,10 21.9,9 21.6,8.1 C21.5,7.6 20.9,7.3 20.4,7.4 Z" id="Shape"></path>
            <path d="M22.7,1.3 C22.3,0.9 21.7,0.9 21.3,1.3 L11,11.6 L7.7,8.3 C7.3,7.9 6.7,7.9 6.3,8.3 C5.9,8.7 5.9,9.3 6.3,9.7 L10.3,13.7 C10.5,13.9 10.8,14 11,14 C11.2,14 11.5,13.9 11.7,13.7 L22.7,2.7 C23.1,2.3 23.1,1.7 22.7,1.3 Z" id="Shape"></path>
        </g>
    </g>
</svg>