<?xml version="1.0" encoding="UTF-8"?>
<svg width="905px" height="80px" viewBox="0 0 905 80" version="1.1" xmlns="http://www.w3.org/2000/svg" xmlns:xlink="http://www.w3.org/1999/xlink">
    <!-- Generator: Sketch 51.3 (57544) - http://www.bohemiancoding.com/sketch -->
    <title>progress_bar1</title>
    <desc>Created with Sketch.</desc>
    <defs></defs>
    <g id="assets" stroke="none" stroke-width="1" fill="none" fill-rule="evenodd">
        <g id="progress_bar1" transform="translate(-1.000000, 0.000000)">
            <g id="PROG_BAR">
                <rect id="Rectangle-3" fill="#4169E1" x="50" y="15" width="382" height="6" rx="3"></rect>
                <g id="item">
                    <circle id="Oval-3" fill="#4169E1" cx="50" cy="18" r="18"></circle>
                    <path d="M20.796875,48.2861328 L28.453125,48.2861328 L28.453125,49.3115234 L25.2060547,49.3115234 L25.2060547,58 L24.0439453,58 L24.0439453,49.3115234 L20.796875,49.3115234 L20.796875,48.2861328 Z M30.4697266,58 L30.4697266,48.2861328 L36.1640625,48.2861328 L36.1640625,49.3115234 L31.6318359,49.3115234 L31.6318359,52.4833984 L35.7880859,52.4833984 L35.7880859,53.5087891 L31.6318359,53.5087891 L31.6318359,56.9746094 L36.1640625,56.9746094 L36.1640625,58 L30.4697266,58 Z M39.2402344,48.2861328 L40.8808594,48.2861328 L43.9980469,54.1787109 L47.1630859,48.2861328 L48.7011719,48.2861328 L48.7011719,58 L47.5390625,58 L47.5390625,49.9541016 L44.5517578,55.2177734 L43.3896484,55.2177734 L40.4023438,49.9541016 L40.4023438,58 L39.2402344,58 L39.2402344,48.2861328 Z M52.1191406,48.2861328 L55.3251953,48.2861328 C55.4755867,48.2861328 55.5997716,48.2872721 55.6977539,48.2895508 C55.7957362,48.2918294 55.9381501,48.3009439 56.125,48.3168945 C56.3118499,48.3328451 56.4713535,48.3556314 56.6035156,48.3852539 C56.7356777,48.4148765 56.8917634,48.4604489 57.0717773,48.5219727 C57.2517913,48.5834964 57.4055983,48.655273 57.5332031,48.7373047 C57.6608079,48.8193363 57.7941074,48.9275709 57.9331055,49.0620117 C58.0721036,49.1964525 58.1837561,49.3457023 58.2680664,49.5097656 C58.3523767,49.6738289 58.4218747,49.8720692 58.4765625,50.1044922 C58.5312503,50.3369152 58.5585938,50.592121 58.5585938,50.8701172 C58.5585938,51.2711609 58.5130213,51.6311833 58.421875,51.9501953 C58.3307287,52.2692073 58.2133796,52.5358062 58.0698242,52.75 C57.9262688,52.9641938 57.740561,53.1487622 57.5126953,53.3037109 C57.2848296,53.4586596 57.0592459,53.5782873 56.8359375,53.6625977 C56.6126291,53.746908 56.3494481,53.812988 56.0463867,53.8608398 C55.7433253,53.9086916 55.4721692,53.9394531 55.2329102,53.953125 C54.9936511,53.9667969 54.7167984,53.9736328 54.4023438,53.9736328 C54.0924464,53.9736328 53.7187522,53.9576825 53.28125,53.9257812 L53.28125,58 L52.1191406,58 L52.1191406,48.2861328 Z M53.28125,52.9003906 C53.7187522,52.9368491 54.1334616,52.9550781 54.5253906,52.9550781 C54.748699,52.9550781 54.9355461,52.9527995 55.0859375,52.9482422 C55.2363289,52.9436849 55.4208973,52.9277345 55.6396484,52.9003906 C55.8583995,52.8730467 56.0406894,52.8354495 56.1865234,52.7875977 C56.3323575,52.7397459 56.4873039,52.6679692 56.6513672,52.5722656 C56.8154305,52.476562 56.9464513,52.3637702 57.0444336,52.2338867 C57.1424159,52.1040033 57.223307,51.9399424 57.2871094,51.7416992 C57.3509118,51.543456 57.3828125,51.316733 57.3828125,51.0615234 C57.3828125,50.7971992 57.3486332,50.5636403 57.2802734,50.3608398 C57.2119137,50.1580394 57.1127936,49.9951178 56.9829102,49.8720703 C56.8530267,49.7490228 56.7163093,49.6476241 56.5727539,49.5678711 C56.4291985,49.4881181 56.2560231,49.4311525 56.0532227,49.3969727 C55.8504222,49.3627928 55.6726896,49.3400066 55.5200195,49.3286133 C55.3673495,49.31722 55.186199,49.3115234 54.9765625,49.3115234 L53.28125,49.3115234 L53.28125,52.9003906 Z M61.2724609,48.2861328 L62.4345703,48.2861328 L62.4345703,56.9814453 L66.7958984,56.9814453 L66.7958984,58 L61.2724609,58 L61.2724609,48.2861328 Z M69.0175781,58 L69.0175781,48.2861328 L74.7119141,48.2861328 L74.7119141,49.3115234 L70.1796875,49.3115234 L70.1796875,52.4833984 L74.3359375,52.4833984 L74.3359375,53.5087891 L70.1796875,53.5087891 L70.1796875,56.9746094 L74.7119141,56.9746094 L74.7119141,58 L69.0175781,58 Z M78.9501953,49.3115234 L78.9501953,56.9746094 L80.3652344,56.9746094 C80.5703135,56.9746094 80.7400709,56.9723308 80.8745117,56.9677734 C81.0089525,56.9632161 81.1912423,56.9495444 81.4213867,56.9267578 C81.6515311,56.9039712 81.8497713,56.8697919 82.0161133,56.8242188 C82.1824553,56.7786456 82.371581,56.7125655 82.5834961,56.6259766 C82.7954112,56.5393876 82.9833976,56.4345709 83.1474609,56.3115234 C83.3115243,56.1884759 83.4755851,56.031251 83.6396484,55.8398438 C83.8037118,55.6484365 83.947265,55.4319674 84.0703125,55.1904297 C84.3710953,54.6116508 84.5214844,53.9075562 84.5214844,53.078125 C84.5214844,52.5039034 84.4383146,51.9855166 84.2719727,51.5229492 C84.1056307,51.0603818 83.8846042,50.684409 83.6088867,50.3950195 C83.3331692,50.1056301 83.0392268,49.8766284 82.7270508,49.7080078 C82.4148747,49.5393872 82.0878923,49.425456 81.7460938,49.3662109 C81.5455719,49.3297524 81.242515,49.3115234 80.8369141,49.3115234 L78.9501953,49.3115234 Z M80.7958984,48.2861328 C81.4248078,48.2861328 81.9967422,48.3487949 82.5117188,48.4741211 C83.0266953,48.5994472 83.4584944,48.7760405 83.8071289,49.0039062 C84.1557635,49.231772 84.4554024,49.4892564 84.7060547,49.7763672 C84.956707,50.063478 85.1515293,50.3836245 85.2905273,50.7368164 C85.4295254,51.0900083 85.5309242,51.4374983 85.5947266,51.7792969 C85.658529,52.1210955 85.6904297,52.4765607 85.6904297,52.8457031 C85.6904297,53.2695334 85.658529,53.6774069 85.5947266,54.0693359 C85.5309242,54.461265 85.4204109,54.860024 85.2631836,55.265625 C85.1059562,55.671226 84.9054374,56.0346664 84.6616211,56.355957 C84.4178048,56.6772477 84.1022155,56.9666328 83.7148438,57.2241211 C83.327472,57.4816094 82.8876978,57.6718744 82.3955078,57.7949219 C82.1402982,57.8587243 81.8554703,57.9065754 81.5410156,57.9384766 C81.2265609,57.9703778 80.9667979,57.9886067 80.7617188,57.9931641 C80.5566396,57.9977214 80.2672545,58 79.8935547,58 L77.7880859,58 L77.7880859,48.2861328 L80.7958984,48.2861328 Z M6.18164062,68.1835938 C6.82422196,68.1835938 7.42463914,68.2963856 7.98291016,68.5219727 C8.54118118,68.7475597 9.02424926,69.0654276 9.43212891,69.4755859 C9.84000855,69.8857442 10.1601551,70.3972951 10.3925781,71.0102539 C10.6250012,71.6232127 10.7412109,72.2965458 10.7412109,73.0302734 C10.7412109,74.023768 10.54411,74.9067344 10.1499023,75.6791992 C9.75569464,76.451664 9.20882511,77.0486633 8.50927734,77.4702148 C7.80972958,77.8917664 7.01790807,78.1025391 6.13378906,78.1025391 C5.55045281,78.1025391 4.99219017,77.9988617 4.45898438,77.7915039 C3.92577858,77.5841461 3.44498912,77.2822285 3.01660156,76.8857422 C2.588214,76.4892558 2.24642055,75.9708691 1.99121094,75.3305664 C1.73600133,74.6902637 1.60839844,73.9690795 1.60839844,73.1669922 C1.60839844,72.4150353 1.72460821,71.7268911 1.95703125,71.1025391 C2.18945429,70.478187 2.50846151,69.9529644 2.9140625,69.5268555 C3.31966349,69.1007466 3.80273157,68.7703462 4.36328125,68.5356445 C4.92383093,68.3009428 5.52994466,68.1835938 6.18164062,68.1835938 Z M6.12011719,69.2021484 C5.70540157,69.2021484 5.30664254,69.2796216 4.92382812,69.4345703 C4.54101371,69.589519 4.18896645,69.816242 3.86767578,70.1147461 C3.54638511,70.4132502 3.28890071,70.8142878 3.09521484,71.3178711 C2.90152898,71.8214543 2.8046875,72.3899708 2.8046875,73.0234375 C2.8046875,73.6295603 2.8935538,74.1889623 3.07128906,74.7016602 C3.24902433,75.214358 3.49055837,75.6438785 3.79589844,75.9902344 C4.10123851,76.3365903 4.46240026,76.6054678 4.87939453,76.796875 C5.2963888,76.9882822 5.74413823,77.0839844 6.22265625,77.0839844 C6.54622558,77.0839844 6.86409349,77.0361333 7.17626953,76.9404297 C7.48844557,76.8447261 7.7880845,76.6931977 8.07519531,76.4858398 C8.36230612,76.278482 8.61409397,76.0244156 8.83056641,75.7236328 C9.04703884,75.4228501 9.22021419,75.0514345 9.35009766,74.609375 C9.47998112,74.1673155 9.54492188,73.6819688 9.54492188,73.1533203 C9.54492188,72.6155572 9.47656318,72.1233746 9.33984375,71.6767578 C9.20312432,71.230141 9.02197378,70.8564468 8.79638672,70.5556641 C8.57079965,70.2548813 8.308758,70.0008148 8.01025391,69.793457 C7.71174981,69.5860992 7.4041357,69.4357101 7.08740234,69.3422852 C6.77066899,69.2488602 6.44824383,69.2021484 6.12011719,69.2021484 Z M12.7919922,67.6708984 L14.125,67.6708984 L13.2705078,70.6308594 L11.9375,70.6308594 L12.7919922,67.6708984 Z M23.1347656,70.9521484 C23.1347656,71.2757178 23.096029,71.5833319 23.0185547,71.875 C22.9410803,72.1666681 22.8203133,72.4446601 22.65625,72.7089844 C22.4921867,72.9733086 22.2654637,73.2023102 21.9760742,73.3959961 C21.6866848,73.589682 21.3483092,73.7320959 20.9609375,73.8232422 L23.7021484,78 L22.4033203,78 L19.7714844,73.953125 L17.8916016,73.953125 L17.8916016,78 L16.7226562,78 L16.7226562,68.2861328 L20.2910156,68.2861328 C20.4550789,68.2861328 20.6031894,68.2906901 20.7353516,68.2998047 C20.8675137,68.3089193 21.0372711,68.3328449 21.2446289,68.371582 C21.4519867,68.4103192 21.6354159,68.4627275 21.7949219,68.5288086 C21.9544279,68.5948897 22.1219067,68.6951491 22.2973633,68.8295898 C22.4728199,68.9640306 22.6186518,69.1223949 22.7348633,69.3046875 C22.8510748,69.4869801 22.946777,69.7193996 23.0219727,70.0019531 C23.0971683,70.2845066 23.1347656,70.6012352 23.1347656,70.9521484 Z M17.8916016,72.9277344 L19.5664062,72.9277344 C19.7988293,72.9277344 20.0039054,72.9197592 20.1816406,72.9038086 C20.3593759,72.887858 20.5678699,72.8445642 20.8071289,72.7739258 C21.0463879,72.7032874 21.2446281,72.6053066 21.4018555,72.4799805 C21.5590828,72.3546543 21.6935216,72.1723645 21.8051758,71.9331055 C21.91683,71.6938465 21.9726562,71.4101579 21.9726562,71.0820312 C21.9726562,70.8496082 21.9430342,70.6399749 21.8837891,70.453125 C21.824544,70.2662751 21.7493494,70.1124681 21.6582031,69.9916992 C21.5670568,69.8709304 21.4554043,69.7661137 21.3232422,69.6772461 C21.1910801,69.5883785 21.0634772,69.5211591 20.9404297,69.4755859 C20.8173822,69.4300128 20.6806648,69.3935548 20.5302734,69.3662109 C20.3798821,69.3388671 20.2556971,69.3217774 20.1577148,69.3149414 C20.0597326,69.3081054 19.9560552,69.3046875 19.8466797,69.3046875 L17.8916016,69.3046875 L17.8916016,72.9277344 Z M35.1386719,68.2177734 C36.0227909,68.2177734 36.9023394,68.3909488 37.7773438,68.7373047 L37.421875,69.7011719 C36.537756,69.3958318 35.7653028,69.2431641 35.1044922,69.2431641 C34.5576145,69.2431641 34.0506208,69.3513987 33.5834961,69.5678711 C33.1163714,69.7843435 32.7290054,70.0737287 32.4213867,70.4360352 C32.113768,70.7983417 31.8733733,71.213051 31.7001953,71.6801758 C31.5270174,72.1473005 31.4404297,72.6360652 31.4404297,73.1464844 C31.4404297,73.6751329 31.5327139,74.1775692 31.7172852,74.6538086 C31.9018564,75.130048 32.1604801,75.547036 32.4931641,75.9047852 C32.825848,76.2625343 33.2394181,76.5462229 33.7338867,76.7558594 C34.2283553,76.9654958 34.7695283,77.0703125 35.3574219,77.0703125 C36.0592483,77.0703125 36.7906863,76.9335951 37.5517578,76.6601562 L37.9072266,77.5214844 C36.9547478,77.9316427 36.0068407,78.1367188 35.0634766,78.1367188 C34.4801403,78.1367188 33.9332708,78.0524097 33.4228516,77.8837891 C32.9124323,77.7151684 32.4669615,77.4793309 32.0864258,77.1762695 C31.70589,76.8732081 31.3789076,76.514325 31.1054688,76.0996094 C30.8320299,75.6848938 30.6258145,75.2280298 30.4868164,74.7290039 C30.3478183,74.229978 30.2783203,73.7047554 30.2783203,73.1533203 C30.2783203,72.2190708 30.4731426,71.3805376 30.862793,70.6376953 C31.2524434,69.8948531 31.8186812,69.305829 32.5615234,68.8706055 C33.3043657,68.4353819 34.1634066,68.2177734 35.1386719,68.2177734 Z M39.0009766,68.2861328 L40.375,68.2861328 L42.8496094,72.2988281 L45.3789062,68.2861328 L46.6777344,68.2861328 L43.3691406,73.3994141 L43.3691406,78 L42.2070312,78 L42.2070312,73.3994141 L39.0009766,68.2861328 Z M47.5322266,68.2861328 L55.1884766,68.2861328 L55.1884766,69.3115234 L51.9414062,69.3115234 L51.9414062,78 L50.7792969,78 L50.7792969,69.3115234 L47.5322266,69.3115234 L47.5322266,68.2861328 Z M57.2050781,68.2861328 L58.3671875,68.2861328 L58.3671875,74.5820312 C58.3671875,74.969403 58.4002275,75.3020819 58.4663086,75.5800781 C58.5323897,75.8580743 58.672525,76.1178373 58.8867188,76.359375 C59.3424502,76.8743515 60.014644,77.1318359 60.9033203,77.1318359 C61.5459017,77.1318359 62.0825174,76.9917006 62.5131836,76.7114258 C62.9438498,76.4311509 63.2229811,76.0358098 63.3505859,75.5253906 C63.409831,75.283853 63.4394531,74.969403 63.4394531,74.5820312 L63.4394531,68.2861328 L64.5878906,68.2861328 C64.5878906,69.7490308 64.5890299,70.9453079 64.5913086,71.875 C64.5935873,72.8046921 64.5947266,73.4005521 64.5947266,73.6625977 C64.5947266,73.9246432 64.5958659,74.1342766 64.5981445,74.2915039 C64.6004232,74.4487313 64.6015625,74.5797521 64.6015625,74.6845703 C64.6015625,74.8942068 64.5970053,75.0776359 64.5878906,75.2348633 C64.578776,75.3920906 64.5480146,75.598306 64.4956055,75.8535156 C64.4431964,76.1087252 64.3714197,76.330891 64.2802734,76.5200195 C64.1891271,76.7091481 64.0512705,76.9108062 63.8666992,77.125 C63.682128,77.3391938 63.4633802,77.5157871 63.2104492,77.6547852 C62.9575183,77.7937832 62.6339538,77.9088537 62.2397461,78 C61.8455384,78.0911463 61.4000676,78.1367188 60.9033203,78.1367188 C60.3701145,78.1367188 59.8916037,78.0808925 59.4677734,77.9692383 C59.0439432,77.8575841 58.7112642,77.7242846 58.4697266,77.5693359 C58.2281889,77.4143872 58.0196949,77.2275402 57.8442383,77.0087891 C57.6687817,76.790038 57.5480147,76.6020516 57.4819336,76.4448242 C57.4158525,76.2875969 57.3623049,76.1223967 57.3212891,75.9492188 C57.2438147,75.648436 57.2050781,75.2223335 57.2050781,74.6708984 L57.2050781,68.2861328 Z M68.0195312,68.2861328 L69.4892578,68.2861328 L74.7802734,76.4140625 L74.7802734,68.2861328 L75.9423828,68.2861328 L75.9423828,78 L74.4726562,78 L69.1816406,69.8583984 L69.1816406,78 L68.0195312,78 L68.0195312,68.2861328 Z M80.5224609,69.3115234 L80.5224609,76.9746094 L81.9375,76.9746094 C82.1425792,76.9746094 82.3123366,76.9723308 82.4467773,76.9677734 C82.5812181,76.9632161 82.763508,76.9495444 82.9936523,76.9267578 C83.2237967,76.9039712 83.4220369,76.8697919 83.5883789,76.8242188 C83.7547209,76.7786456 83.9438466,76.7125655 84.1557617,76.6259766 C84.3676768,76.5393876 84.5556632,76.4345709 84.7197266,76.3115234 C84.8837899,76.1884759 85.0478507,76.031251 85.2119141,75.8398438 C85.3759774,75.6484365 85.5195306,75.4319674 85.6425781,75.1904297 C85.9433609,74.6116508 86.09375,73.9075562 86.09375,73.078125 C86.09375,72.5039034 86.0105803,71.9855166 85.8442383,71.5229492 C85.6778963,71.0603818 85.4568699,70.684409 85.1811523,70.3950195 C84.9054348,70.1056301 84.6114924,69.8766284 84.2993164,69.7080078 C83.9871404,69.5393872 83.660158,69.425456 83.3183594,69.3662109 C83.1178375,69.3297524 82.8147807,69.3115234 82.4091797,69.3115234 L80.5224609,69.3115234 Z M82.3681641,68.2861328 C82.9970735,68.2861328 83.5690078,68.3487949 84.0839844,68.4741211 C84.5989609,68.5994472 85.03076,68.7760405 85.3793945,69.0039062 C85.7280291,69.231772 86.027668,69.4892564 86.2783203,69.7763672 C86.5289726,70.063478 86.7237949,70.3836245 86.862793,70.7368164 C87.0017911,71.0900083 87.1031898,71.4374983 87.1669922,71.7792969 C87.2307946,72.1210955 87.2626953,72.4765607 87.2626953,72.8457031 C87.2626953,73.2695334 87.2307946,73.6774069 87.1669922,74.0693359 C87.1031898,74.461265 86.9926766,74.860024 86.8354492,75.265625 C86.6782219,75.671226 86.477703,76.0346664 86.2338867,76.355957 C85.9900704,76.6772477 85.6744811,76.9666328 85.2871094,77.2241211 C84.8997376,77.4816094 84.4599634,77.6718744 83.9677734,77.7949219 C83.7125638,77.8587243 83.4277359,77.9065754 83.1132812,77.9384766 C82.7988266,77.9703778 82.5390635,77.9886067 82.3339844,77.9931641 C82.1289052,77.9977214 81.8395201,78 81.4658203,78 L79.3603516,78 L79.3603516,68.2861328 L82.3681641,68.2861328 Z M90.3388672,78 L90.3388672,68.2861328 L96.0332031,68.2861328 L96.0332031,69.3115234 L91.5009766,69.3115234 L91.5009766,72.4833984 L95.6572266,72.4833984 L95.6572266,73.5087891 L91.5009766,73.5087891 L91.5009766,76.9746094 L96.0332031,76.9746094 L96.0332031,78 L90.3388672,78 Z M100.271484,69.1748047 L100.271484,72.4355469 C100.358073,72.4309896 100.508462,72.4275716 100.722656,72.425293 C100.93685,72.4230143 101.10319,72.4207357 101.22168,72.418457 C101.34017,72.4161784 101.506509,72.4070639 101.720703,72.3911133 C101.934897,72.3751627 102.106933,72.3569337 102.236816,72.3364258 C102.3667,72.3159179 102.523925,72.2840171 102.708496,72.2407227 C102.893067,72.1974282 103.043456,72.1472985 103.159668,72.090332 C103.275879,72.0333656 103.398925,71.9604497 103.528809,71.871582 C103.658692,71.7827144 103.760091,71.6835943 103.833008,71.5742188 C103.905925,71.4648432 103.966308,71.3338224 104.01416,71.1811523 C104.062012,71.0284823 104.085938,70.8610035 104.085938,70.6787109 C104.085938,70.5419915 104.072266,70.41211 104.044922,70.2890625 C104.017578,70.166015 103.960612,70.0338549 103.874023,69.8925781 C103.787434,69.7513014 103.675782,69.6305344 103.539062,69.5302734 C103.402343,69.4300125 103.214357,69.3457035 102.975098,69.2773438 C102.735839,69.208984 102.458986,69.1748047 102.144531,69.1748047 L100.271484,69.1748047 Z M100.271484,73.3378906 L100.271484,76.9746094 L102.083008,76.9746094 C102.247071,76.9746094 102.384928,76.9734701 102.496582,76.9711914 C102.608236,76.9689127 102.768879,76.955241 102.978516,76.9301758 C103.188152,76.9051106 103.367024,76.8709312 103.515137,76.8276367 C103.663249,76.7843422 103.82845,76.7182622 104.010742,76.6293945 C104.193035,76.5405269 104.340006,76.4345709 104.45166,76.3115234 C104.563314,76.1884759 104.657877,76.0301116 104.735352,75.8364258 C104.812826,75.6427399 104.851562,75.4228528 104.851562,75.1767578 C104.851562,74.570635 104.616864,74.0966814 104.147461,73.7548828 C103.678058,73.4130842 103.046879,73.2421875 102.253906,73.2421875 C102.167317,73.2421875 101.506517,73.2740882 100.271484,73.3378906 Z M99.109375,68.2861328 L102.53418,68.2861328 C102.866864,68.2861328 103.17106,68.3214515 103.446777,68.3920898 C103.722495,68.4627282 103.950357,68.5527338 104.130371,68.6621094 C104.310385,68.7714849 104.469889,68.9013664 104.608887,69.0517578 C104.747885,69.2021492 104.853841,69.3479811 104.926758,69.4892578 C104.999675,69.6305346 105.058919,69.7809237 105.104492,69.9404297 C105.150065,70.0999357 105.178548,70.2309565 105.189941,70.3334961 C105.201335,70.4360357 105.207031,70.5328771 105.207031,70.6240234 C105.207031,71.0205098 105.072592,71.4158509 104.803711,71.8100586 C104.534829,72.2042663 104.250002,72.4583328 103.949219,72.5722656 C104.550784,72.6816412 105.044106,72.9721656 105.429199,73.4438477 C105.814292,73.9155297 106.006836,74.4521454 106.006836,75.0537109 C106.006836,75.1949877 105.994304,75.3430982 105.969238,75.4980469 C105.944173,75.6529956 105.895183,75.8284495 105.822266,76.0244141 C105.749349,76.2203786 105.655925,76.4072257 105.541992,76.5849609 C105.428059,76.7626962 105.273113,76.9392895 105.077148,77.1147461 C104.881184,77.2902027 104.65674,77.4417311 104.403809,77.5693359 C104.150878,77.6969407 103.840985,77.8006181 103.474121,77.8803711 C103.107257,77.9601241 102.70508,78 102.267578,78 L99.109375,78 L99.109375,68.2861328 Z" id="Templed-o’r-cytundeb" fill="#000000"></path>
                </g>
            </g>
            <g id="PROG_BAR" transform="translate(386.000000, 0.000000)">
                <rect id="Rectangle-3" fill="#4169E1" x="76" y="15" width="370" height="6" rx="3"></rect>
                <g id="ITEM" transform="translate(0.500000, 0.000000)">
                    <path d="M41.4228516,51.9521484 C41.4228516,52.2757178 41.384115,52.5833319 41.3066406,52.875 C41.2291663,53.1666681 41.1083993,53.4446601 40.9443359,53.7089844 C40.7802726,53.9733086 40.5535496,54.2023102 40.2641602,54.3959961 C39.9747707,54.589682 39.6363952,54.7320959 39.2490234,54.8232422 L41.9902344,59 L40.6914062,59 L38.0595703,54.953125 L36.1796875,54.953125 L36.1796875,59 L35.0107422,59 L35.0107422,49.2861328 L38.5791016,49.2861328 C38.7431649,49.2861328 38.8912754,49.2906901 39.0234375,49.2998047 C39.1555996,49.3089193 39.325357,49.3328449 39.5327148,49.371582 C39.7400727,49.4103192 39.9235018,49.4627275 40.0830078,49.5288086 C40.2425138,49.5948897 40.4099926,49.6951491 40.5854492,49.8295898 C40.7609058,49.9640306 40.9067377,50.1223949 41.0229492,50.3046875 C41.1391607,50.4869801 41.2348629,50.7193996 41.3100586,51.0019531 C41.3852543,51.2845066 41.4228516,51.6012352 41.4228516,51.9521484 Z M36.1796875,53.9277344 L37.8544922,53.9277344 C38.0869152,53.9277344 38.2919913,53.9197592 38.4697266,53.9038086 C38.6474618,53.887858 38.8559558,53.8445642 39.0952148,53.7739258 C39.3344739,53.7032874 39.5327141,53.6053066 39.6899414,53.4799805 C39.8471688,53.3546543 39.9816075,53.1723645 40.0932617,52.9331055 C40.2049159,52.6938465 40.2607422,52.4101579 40.2607422,52.0820312 C40.2607422,51.8496082 40.2311201,51.6399749 40.171875,51.453125 C40.1126299,51.2662751 40.0374354,51.1124681 39.9462891,50.9916992 C39.8551428,50.8709304 39.7434902,50.7661137 39.6113281,50.6772461 C39.479166,50.5883785 39.3515631,50.5211591 39.2285156,50.4755859 C39.1054681,50.4300128 38.9687508,50.3935548 38.8183594,50.3662109 C38.667968,50.3388671 38.543783,50.3217774 38.4458008,50.3149414 C38.3478185,50.3081054 38.2441412,50.3046875 38.1347656,50.3046875 L36.1796875,50.3046875 L36.1796875,53.9277344 Z M51.1982422,49.2861328 L52.3603516,49.2861328 L52.3603516,59 L51.1982422,59 L51.1982422,54.5019531 L46.0029297,54.5019531 L46.0029297,59 L44.8408203,59 L44.8408203,49.2861328 L46.0029297,49.2861328 L46.0029297,53.4765625 L51.1982422,53.4765625 L51.1982422,49.2861328 Z M55.7783203,59 L55.7783203,49.2861328 L61.4726562,49.2861328 L61.4726562,50.3115234 L56.9404297,50.3115234 L56.9404297,53.4833984 L61.0966797,53.4833984 L61.0966797,54.5087891 L56.9404297,54.5087891 L56.9404297,57.9746094 L61.4726562,57.9746094 L61.4726562,59 L55.7783203,59 Z M68.1787109,49.1972656 C68.9261105,49.1972656 69.7304644,49.3271471 70.5917969,49.5869141 L70.2158203,50.6464844 C69.3955037,50.409504 68.6845733,50.2910156 68.0830078,50.2910156 C67.4085253,50.2910156 66.8377302,50.4334296 66.3706055,50.7182617 C65.9034807,51.0030939 65.6699219,51.3710915 65.6699219,51.8222656 C65.6699219,52.0729179 65.7451164,52.296223 65.8955078,52.4921875 C66.0458992,52.688152 66.2441394,52.8476556 66.4902344,52.9707031 C66.7363294,53.0937506 67.0166,53.2156569 67.3310547,53.3364258 C67.6455094,53.4571946 67.9656559,53.5677078 68.2915039,53.6679688 C68.6173519,53.7682297 68.9374984,53.8958326 69.2519531,54.0507812 C69.5664078,54.2057299 69.8466785,54.3754874 70.0927734,54.5600586 C70.3388684,54.7446298 70.5371086,54.9850246 70.6875,55.28125 C70.8378914,55.5774754 70.9130859,55.912433 70.9130859,56.2861328 C70.9130859,56.5458997 70.8720707,56.8045235 70.7900391,57.0620117 C70.7080074,57.3195 70.57129,57.5747058 70.3798828,57.8276367 C70.1884756,58.0805677 69.9514988,58.3027334 69.6689453,58.4941406 C69.3863918,58.6855478 69.0297873,58.8404942 68.5991211,58.9589844 C68.1684549,59.0774746 67.6888047,59.1367188 67.1601562,59.1367188 C66.6315078,59.1367188 66.1450218,59.0820318 65.7006836,58.9726562 C65.2563454,58.8632807 64.7584663,58.6992198 64.2070312,58.4804688 L64.6035156,57.3525391 C65.7428442,57.7763693 66.6429003,57.9882812 67.3037109,57.9882812 C67.9964227,57.9882812 68.5603819,57.8492852 68.9956055,57.5712891 C69.430829,57.2932929 69.6484375,56.9218773 69.6484375,56.4570312 C69.6484375,56.1471339 69.551596,55.8793957 69.3579102,55.6538086 C69.1642243,55.4282215 68.9135758,55.2459317 68.605957,55.1069336 C68.2983383,54.9679355 67.9576842,54.838054 67.5839844,54.7172852 C67.2102846,54.5965163 66.8377297,54.4666348 66.4663086,54.3276367 C66.0948875,54.1886386 65.7553726,54.0279957 65.4477539,53.8457031 C65.1401352,53.6634105 64.8894866,53.4173193 64.6958008,53.1074219 C64.5021149,52.7975245 64.4052734,52.4329448 64.4052734,52.0136719 C64.4052734,51.6399721 64.495279,51.2822283 64.675293,50.9404297 C64.8553069,50.5986311 65.1048161,50.2989922 65.4238281,50.0415039 C65.7428401,49.7840156 66.1415992,49.5789396 66.6201172,49.4262695 C67.0986352,49.2735995 67.6181613,49.1972656 68.1787109,49.1972656 Z M72.4511719,49.2861328 L80.1074219,49.2861328 L80.1074219,50.3115234 L76.8603516,50.3115234 L76.8603516,59 L75.6982422,59 L75.6982422,50.3115234 L72.4511719,50.3115234 L72.4511719,49.2861328 Z M88.5361328,51.9521484 C88.5361328,52.2757178 88.4973962,52.5833319 88.4199219,52.875 C88.3424475,53.1666681 88.2216805,53.4446601 88.0576172,53.7089844 C87.8935539,53.9733086 87.6668309,54.2023102 87.3774414,54.3959961 C87.0880519,54.589682 86.7496764,54.7320959 86.3623047,54.8232422 L89.1035156,59 L87.8046875,59 L85.1728516,54.953125 L83.2929688,54.953125 L83.2929688,59 L82.1240234,59 L82.1240234,49.2861328 L85.6923828,49.2861328 C85.8564461,49.2861328 86.0045566,49.2906901 86.1367188,49.2998047 C86.2688809,49.3089193 86.4386383,49.3328449 86.6459961,49.371582 C86.8533539,49.4103192 87.0367831,49.4627275 87.1962891,49.5288086 C87.3557951,49.5948897 87.5232739,49.6951491 87.6987305,49.8295898 C87.8741871,49.9640306 88.020019,50.1223949 88.1362305,50.3046875 C88.252442,50.4869801 88.3481442,50.7193996 88.4233398,51.0019531 C88.4985355,51.2845066 88.5361328,51.6012352 88.5361328,51.9521484 Z M83.2929688,53.9277344 L84.9677734,53.9277344 C85.2001965,53.9277344 85.4052725,53.9197592 85.5830078,53.9038086 C85.7607431,53.887858 85.9692371,53.8445642 86.2084961,53.7739258 C86.4477551,53.7032874 86.6459953,53.6053066 86.8032227,53.4799805 C86.96045,53.3546543 87.0948888,53.1723645 87.206543,52.9331055 C87.3181972,52.6938465 87.3740234,52.4101579 87.3740234,52.0820312 C87.3740234,51.8496082 87.3444013,51.6399749 87.2851562,51.453125 C87.2259112,51.2662751 87.1507166,51.1124681 87.0595703,50.9916992 C86.968424,50.8709304 86.8567715,50.7661137 86.7246094,50.6772461 C86.5924473,50.5883785 86.4648444,50.5211591 86.3417969,50.4755859 C86.2187494,50.4300128 86.082032,50.3935548 85.9316406,50.3662109 C85.7812492,50.3388671 85.6570643,50.3217774 85.559082,50.3149414 C85.4610998,50.3081054 85.3574224,50.3046875 85.2480469,50.3046875 L83.2929688,50.3046875 L83.2929688,53.9277344 Z M6.59716797,69.1835938 C7.23974931,69.1835938 7.84016648,69.2963856 8.3984375,69.5219727 C8.95670852,69.7475597 9.43977661,70.0654276 9.84765625,70.4755859 C10.2555359,70.8857442 10.5756824,71.3972951 10.8081055,72.0102539 C11.0405285,72.6232127 11.1567383,73.2965458 11.1567383,74.0302734 C11.1567383,75.023768 10.9596374,75.9067344 10.5654297,76.6791992 C10.171222,77.451664 9.62435246,78.0486633 8.92480469,78.4702148 C8.22525692,78.8917664 7.43343541,79.1025391 6.54931641,79.1025391 C5.96598016,79.1025391 5.40771751,78.9988617 4.87451172,78.7915039 C4.34130593,78.5841461 3.86051646,78.2822285 3.43212891,77.8857422 C3.00374135,77.4892558 2.66194789,76.9708691 2.40673828,76.3305664 C2.15152867,75.6902637 2.02392578,74.9690795 2.02392578,74.1669922 C2.02392578,73.4150353 2.14013556,72.7268911 2.37255859,72.1025391 C2.60498163,71.478187 2.92398886,70.9529644 3.32958984,70.5268555 C3.73519083,70.1007466 4.21825892,69.7703462 4.77880859,69.5356445 C5.33935827,69.3009428 5.945472,69.1835938 6.59716797,69.1835938 Z M6.53564453,70.2021484 C6.12092892,70.2021484 5.72216988,70.2796216 5.33935547,70.4345703 C4.95654105,70.589519 4.60449379,70.816242 4.28320312,71.1147461 C3.96191246,71.4132502 3.70442805,71.8142878 3.51074219,72.3178711 C3.31705632,72.8214543 3.22021484,73.3899708 3.22021484,74.0234375 C3.22021484,74.6295603 3.30908114,75.1889623 3.48681641,75.7016602 C3.66455167,76.214358 3.90608571,76.6438785 4.21142578,76.9902344 C4.51676585,77.3365903 4.8779276,77.6054678 5.29492188,77.796875 C5.71191615,77.9882822 6.15966558,78.0839844 6.63818359,78.0839844 C6.96175292,78.0839844 7.27962083,78.0361333 7.59179688,77.9404297 C7.90397292,77.8447261 8.20361185,77.6931977 8.49072266,77.4858398 C8.77783347,77.278482 9.02962131,77.0244156 9.24609375,76.7236328 C9.46256619,76.4228501 9.63574154,76.0514345 9.765625,75.609375 C9.89550846,75.1673155 9.96044922,74.6819688 9.96044922,74.1533203 C9.96044922,73.6155572 9.89209053,73.1233746 9.75537109,72.6767578 C9.61865166,72.230141 9.43750113,71.8564468 9.21191406,71.5556641 C8.986327,71.2548813 8.72428535,71.0008148 8.42578125,70.793457 C8.12727715,70.5860992 7.81966304,70.4357101 7.50292969,70.3422852 C7.18619633,70.2488602 6.86377117,70.2021484 6.53564453,70.2021484 Z M13.2075195,68.6708984 L14.5405273,68.6708984 L13.6860352,71.6308594 L12.3530273,71.6308594 L13.2075195,68.6708984 Z M23.550293,71.9521484 C23.550293,72.2757178 23.5115564,72.5833319 23.434082,72.875 C23.3566077,73.1666681 23.2358407,73.4446601 23.0717773,73.7089844 C22.907714,73.9733086 22.680991,74.2023102 22.3916016,74.3959961 C22.1022121,74.589682 21.7638366,74.7320959 21.3764648,74.8232422 L24.1176758,79 L22.8188477,79 L20.1870117,74.953125 L18.3071289,74.953125 L18.3071289,79 L17.1381836,79 L17.1381836,69.2861328 L20.706543,69.2861328 C20.8706063,69.2861328 21.0187168,69.2906901 21.1508789,69.2998047 C21.283041,69.3089193 21.4527984,69.3328449 21.6601562,69.371582 C21.8675141,69.4103192 22.0509432,69.4627275 22.2104492,69.5288086 C22.3699552,69.5948897 22.537434,69.6951491 22.7128906,69.8295898 C22.8883472,69.9640306 23.0341791,70.1223949 23.1503906,70.3046875 C23.2666021,70.4869801 23.3623043,70.7193996 23.4375,71.0019531 C23.5126957,71.2845066 23.550293,71.6012352 23.550293,71.9521484 Z M18.3071289,73.9277344 L19.9819336,73.9277344 C20.2143566,73.9277344 20.4194327,73.9197592 20.597168,73.9038086 C20.7749032,73.887858 20.9833972,73.8445642 21.2226562,73.7739258 C21.4619153,73.7032874 21.6601555,73.6053066 21.8173828,73.4799805 C21.9746102,73.3546543 22.1090489,73.1723645 22.2207031,72.9331055 C22.3323573,72.6938465 22.3881836,72.4101579 22.3881836,72.0820312 C22.3881836,71.8496082 22.3585615,71.6399749 22.2993164,71.453125 C22.2400713,71.2662751 22.1648768,71.1124681 22.0737305,70.9916992 C21.9825842,70.8709304 21.8709317,70.7661137 21.7387695,70.6772461 C21.6066074,70.5883785 21.4790045,70.5211591 21.355957,70.4755859 C21.2329095,70.4300128 21.0961922,70.3935548 20.9458008,70.3662109 C20.7954094,70.3388671 20.6712244,70.3217774 20.5732422,70.3149414 C20.4752599,70.3081054 20.3715826,70.3046875 20.262207,70.3046875 L18.3071289,70.3046875 L18.3071289,73.9277344 Z M31.9584961,70.3115234 L31.9584961,77.9746094 L33.3735352,77.9746094 C33.5786143,77.9746094 33.7483717,77.9723308 33.8828125,77.9677734 C34.0172533,77.9632161 34.1995431,77.9495444 34.4296875,77.9267578 C34.6598319,77.9039712 34.8580721,77.8697919 35.0244141,77.8242188 C35.190756,77.7786456 35.3798818,77.7125655 35.5917969,77.6259766 C35.803712,77.5393876 35.9916984,77.4345709 36.1557617,77.3115234 C36.319825,77.1884759 36.4838859,77.031251 36.6479492,76.8398438 C36.8120125,76.6484365 36.9555658,76.4319674 37.0786133,76.1904297 C37.379396,75.6116508 37.5297852,74.9075562 37.5297852,74.078125 C37.5297852,73.5039034 37.4466154,72.9855166 37.2802734,72.5229492 C37.1139315,72.0603818 36.892905,71.684409 36.6171875,71.3950195 C36.34147,71.1056301 36.0475276,70.8766284 35.7353516,70.7080078 C35.4231755,70.5393872 35.0961931,70.425456 34.7543945,70.3662109 C34.5538727,70.3297524 34.2508158,70.3115234 33.8452148,70.3115234 L31.9584961,70.3115234 Z M33.8041992,69.2861328 C34.4331086,69.2861328 35.005043,69.3487949 35.5200195,69.4741211 C36.0349961,69.5994472 36.4667951,69.7760405 36.8154297,70.0039062 C37.1640642,70.231772 37.4637032,70.4892564 37.7143555,70.7763672 C37.9650078,71.063478 38.15983,71.3836245 38.2988281,71.7368164 C38.4378262,72.0900083 38.5392249,72.4374983 38.6030273,72.7792969 C38.6668297,73.1210955 38.6987305,73.4765607 38.6987305,73.8457031 C38.6987305,74.2695334 38.6668297,74.6774069 38.6030273,75.0693359 C38.5392249,75.461265 38.4287117,75.860024 38.2714844,76.265625 C38.114257,76.671226 37.9137382,77.0346664 37.6699219,77.355957 C37.4261056,77.6772477 37.1105163,77.9666328 36.7231445,78.2241211 C36.3357728,78.4816094 35.8959986,78.6718744 35.4038086,78.7949219 C35.148599,78.8587243 34.8637711,78.9065754 34.5493164,78.9384766 C34.2348617,78.9703778 33.9750987,78.9886067 33.7700195,78.9931641 C33.5649404,78.9977214 33.2755553,79 32.9018555,79 L30.7963867,79 L30.7963867,69.2861328 L33.8041992,69.2861328 Z M45.8354492,69.1835938 C46.4780306,69.1835938 47.0784477,69.2963856 47.6367188,69.5219727 C48.1949898,69.7475597 48.6780579,70.0654276 49.0859375,70.4755859 C49.4938171,70.8857442 49.8139637,71.3972951 50.0463867,72.0102539 C50.2788098,72.6232127 50.3950195,73.2965458 50.3950195,74.0302734 C50.3950195,75.023768 50.1979186,75.9067344 49.8037109,76.6791992 C49.4095032,77.451664 48.8626337,78.0486633 48.1630859,78.4702148 C47.4635382,78.8917664 46.6717167,79.1025391 45.7875977,79.1025391 C45.2042614,79.1025391 44.6459988,78.9988617 44.112793,78.7915039 C43.5795872,78.5841461 43.0987977,78.2822285 42.6704102,77.8857422 C42.2420226,77.4892558 41.9002291,76.9708691 41.6450195,76.3305664 C41.3898099,75.6902637 41.262207,74.9690795 41.262207,74.1669922 C41.262207,73.4150353 41.3784168,72.7268911 41.6108398,72.1025391 C41.8432629,71.478187 42.1622701,70.9529644 42.5678711,70.5268555 C42.9734721,70.1007466 43.4565402,69.7703462 44.0170898,69.5356445 C44.5776395,69.3009428 45.1837533,69.1835938 45.8354492,69.1835938 Z M45.7739258,70.2021484 C45.3592102,70.2021484 44.9604511,70.2796216 44.5776367,70.4345703 C44.1948223,70.589519 43.842775,70.816242 43.5214844,71.1147461 C43.2001937,71.4132502 42.9427093,71.8142878 42.7490234,72.3178711 C42.5553376,72.8214543 42.4584961,73.3899708 42.4584961,74.0234375 C42.4584961,74.6295603 42.5473624,75.1889623 42.7250977,75.7016602 C42.9028329,76.214358 43.144367,76.6438785 43.449707,76.9902344 C43.7550471,77.3365903 44.1162089,77.6054678 44.5332031,77.796875 C44.9501974,77.9882822 45.3979468,78.0839844 45.8764648,78.0839844 C46.2000342,78.0839844 46.5179021,78.0361333 46.8300781,77.9404297 C47.1422542,77.8447261 47.4418931,77.6931977 47.7290039,77.4858398 C48.0161147,77.278482 48.2679026,77.0244156 48.484375,76.7236328 C48.7008474,76.4228501 48.8740228,76.0514345 49.0039062,75.609375 C49.1337897,75.1673155 49.1987305,74.6819688 49.1987305,74.1533203 C49.1987305,73.6155572 49.1303718,73.1233746 48.9936523,72.6767578 C48.8569329,72.230141 48.6757824,71.8564468 48.4501953,71.5556641 C48.2246082,71.2548813 47.9625666,71.0008148 47.6640625,70.793457 C47.3655584,70.5860992 47.0579443,70.4357101 46.7412109,70.3422852 C46.4244776,70.2488602 46.1020524,70.2021484 45.7739258,70.2021484 Z M57.6000977,69.2109375 C58.6938531,69.2109375 59.7351839,69.4866509 60.7241211,70.0380859 L60.2661133,70.90625 C59.9197574,70.7239574 59.5164411,70.5667324 59.0561523,70.4345703 C58.5958636,70.3024082 58.1310245,70.2363281 57.6616211,70.2363281 C57.1831031,70.2363281 56.7216819,70.3251944 56.2773438,70.5029297 C55.8330056,70.680665 55.4376645,70.9301742 55.0913086,71.2514648 C54.7449527,71.5727555 54.4681,71.9783504 54.2607422,72.4682617 C54.0533844,72.958173 53.949707,73.4947887 53.949707,74.078125 C53.949707,74.8483111 54.1206038,75.5410125 54.4624023,76.15625 C54.8042009,76.7714875 55.2758759,77.2499983 55.8774414,77.5917969 C56.4790069,77.9335955 57.1512007,78.1044922 57.894043,78.1044922 C58.7736047,78.1044922 59.4890923,77.8401719 60.0405273,77.3115234 L60.0405273,74.8300781 L57.2788086,74.8300781 L57.2788086,73.8730469 L61.168457,73.8730469 L61.168457,77.6875 C61.0454095,77.8287767 60.9029956,77.9654941 60.7412109,78.0976562 C60.5794263,78.2298184 60.3538426,78.3824861 60.0644531,78.5556641 C59.7750637,78.728842 59.4184592,78.8689773 58.9946289,78.9760742 C58.5707987,79.0831711 58.1127954,79.1367188 57.6206055,79.1367188 C56.9734668,79.1367188 56.3776069,79.0398773 55.8330078,78.8461914 C55.2884087,78.6525055 54.8315448,78.3938818 54.4624023,78.0703125 C54.0932599,77.7467432 53.7810885,77.3696311 53.5258789,76.9389648 C53.2706693,76.5082986 53.0838222,76.0582706 52.965332,75.5888672 C52.8468419,75.1194638 52.7875977,74.640953 52.7875977,74.1533203 C52.7875977,73.6429011 52.8525384,73.1473006 52.9824219,72.6665039 C53.1123053,72.1857072 53.3116849,71.7356792 53.5805664,71.3164062 C53.849448,70.8971333 54.1718731,70.5314143 54.5478516,70.2192383 C54.92383,69.9070622 55.3738581,69.660971 55.8979492,69.480957 C56.4220404,69.3009431 56.9894175,69.2109375 57.6000977,69.2109375 Z M65.3383789,70.3115234 L65.3383789,73.4833984 L69.3920898,73.4833984 L69.3920898,74.5087891 L65.3383789,74.5087891 L65.3383789,79 L64.1762695,79 L64.1762695,69.2861328 L69.8022461,69.2861328 L69.8022461,70.3115234 L65.3383789,70.3115234 Z M72.7075195,79 L72.7075195,69.2861328 L78.4018555,69.2861328 L78.4018555,70.3115234 L73.8696289,70.3115234 L73.8696289,73.4833984 L78.0258789,73.4833984 L78.0258789,74.5087891 L73.8696289,74.5087891 L73.8696289,77.9746094 L78.4018555,77.9746094 L78.4018555,79 L72.7075195,79 Z M81.4780273,69.2861328 L82.9477539,69.2861328 L88.2387695,77.4140625 L88.2387695,69.2861328 L89.4008789,69.2861328 L89.4008789,79 L87.9311523,79 L82.6401367,70.8583984 L82.6401367,79 L81.4780273,79 L81.4780273,69.2861328 Z M92.8188477,69.2861328 L94.2885742,69.2861328 L99.5795898,77.4140625 L99.5795898,69.2861328 L100.741699,69.2861328 L100.741699,79 L99.2719727,79 L93.980957,70.8583984 L93.980957,79 L92.8188477,79 L92.8188477,69.2861328 Z M106.518066,69.2861328 L107.837402,69.2861328 L111.289551,79 L110.11377,79 L109.129395,76.1767578 L105.123535,76.1767578 L104.13916,79 L103.065918,79 L106.518066,69.2861328 Z M107.126465,70.4208984 L105.472168,75.1582031 L108.773926,75.1582031 L107.126465,70.4208984 Z M113.61377,69.2861328 L114.775879,69.2861328 L114.775879,75.5820312 C114.775879,75.969403 114.808919,76.3020819 114.875,76.5800781 C114.941081,76.8580743 115.081216,77.1178373 115.29541,77.359375 C115.751142,77.8743515 116.423335,78.1318359 117.312012,78.1318359 C117.954593,78.1318359 118.491209,77.9917006 118.921875,77.7114258 C119.352541,77.4311509 119.631673,77.0358098 119.759277,76.5253906 C119.818522,76.283853 119.848145,75.969403 119.848145,75.5820312 L119.848145,69.2861328 L120.996582,69.2861328 C120.996582,70.7490308 120.997721,71.9453079 121,72.875 C121.002279,73.8046921 121.003418,74.4005521 121.003418,74.6625977 C121.003418,74.9246432 121.004557,75.1342766 121.006836,75.2915039 C121.009115,75.4487313 121.010254,75.5797521 121.010254,75.6845703 C121.010254,75.8942068 121.005697,76.0776359 120.996582,76.2348633 C120.987467,76.3920906 120.956706,76.598306 120.904297,76.8535156 C120.851888,77.1087252 120.780111,77.330891 120.688965,77.5200195 C120.597819,77.7091481 120.459962,77.9108062 120.275391,78.125 C120.090819,78.3391938 119.872072,78.5157871 119.619141,78.6547852 C119.36621,78.7937832 119.042645,78.9088537 118.648438,79 C118.25423,79.0911463 117.808759,79.1367188 117.312012,79.1367188 C116.778806,79.1367188 116.300295,79.0808925 115.876465,78.9692383 C115.452635,78.8575841 115.119956,78.7242846 114.878418,78.5693359 C114.63688,78.4143872 114.428386,78.2275402 114.25293,78.0087891 C114.077473,77.790038 113.956706,77.6020516 113.890625,77.4448242 C113.824544,77.2875969 113.770996,77.1223967 113.72998,76.9492188 C113.652506,76.648436 113.61377,76.2223335 113.61377,75.6708984 L113.61377,69.2861328 Z" id="Rhestr-o’r-dogfennau" fill="#000000"></path>
                    <g id="Group-3" transform="translate(43.000000, 0.000000)">
                        <circle id="Oval-3" fill="#4169E1" cx="18" cy="18" r="7"></circle>
                        <circle id="Oval-3" stroke="#4169E1" stroke-width="5" cx="18" cy="18" r="15.5"></circle>
                    </g>
                </g>
            </g>
            <g id="item" transform="translate(784.000000, 0.000000)">
                <path d="M2.79052734,59 L2.79052734,49.2861328 L8.48486328,49.2861328 L8.48486328,50.3115234 L3.95263672,50.3115234 L3.95263672,53.4833984 L8.10888672,53.4833984 L8.10888672,54.5087891 L3.95263672,54.5087891 L3.95263672,57.9746094 L8.48486328,57.9746094 L8.48486328,59 L2.79052734,59 Z M10.7749023,54.0234375 L16.6538086,54.0234375 L16.6538086,54.9736328 L10.7749023,54.9736328 L10.7749023,54.0234375 Z M20.9946289,50.1748047 L20.9946289,53.4355469 C21.0812179,53.4309896 21.231607,53.4275716 21.4458008,53.425293 C21.6599946,53.4230143 21.826334,53.4207357 21.9448242,53.418457 C22.0633144,53.4161784 22.2296539,53.4070639 22.4438477,53.3911133 C22.6580414,53.3751627 22.8300775,53.3569337 22.9599609,53.3364258 C23.0898444,53.3159179 23.2470694,53.2840171 23.4316406,53.2407227 C23.6162119,53.1974282 23.766601,53.1472985 23.8828125,53.090332 C23.999024,53.0333656 24.1220697,52.9604497 24.2519531,52.871582 C24.3818366,52.7827144 24.4832353,52.6835943 24.5561523,52.5742188 C24.6290694,52.4648432 24.6894529,52.3338224 24.7373047,52.1811523 C24.7851565,52.0284823 24.809082,51.8610035 24.809082,51.6787109 C24.809082,51.5419915 24.7954103,51.41211 24.7680664,51.2890625 C24.7407225,51.166015 24.6837569,51.0338549 24.597168,50.8925781 C24.510579,50.7513014 24.3989265,50.6305344 24.262207,50.5302734 C24.1254876,50.4300125 23.9375012,50.3457035 23.6982422,50.2773438 C23.4589832,50.208984 23.1821305,50.1748047 22.8676758,50.1748047 L20.9946289,50.1748047 Z M20.9946289,54.3378906 L20.9946289,57.9746094 L22.8061523,57.9746094 C22.9702157,57.9746094 23.1080724,57.9734701 23.2197266,57.9711914 C23.3313808,57.9689127 23.4920237,57.955241 23.7016602,57.9301758 C23.9112966,57.9051106 24.0901685,57.8709312 24.2382812,57.8276367 C24.386394,57.7843422 24.5515941,57.7182622 24.7338867,57.6293945 C24.9161793,57.5405269 25.0631505,57.4345709 25.1748047,57.3115234 C25.2864589,57.1884759 25.3810217,57.0301116 25.4584961,56.8364258 C25.5359704,56.6427399 25.574707,56.4228528 25.574707,56.1767578 C25.574707,55.570635 25.3400089,55.0966814 24.8706055,54.7548828 C24.4012021,54.4130842 23.7700235,54.2421875 22.9770508,54.2421875 C22.8904618,54.2421875 22.2296611,54.2740882 20.9946289,54.3378906 Z M19.8325195,49.2861328 L23.2573242,49.2861328 C23.5900082,49.2861328 23.8942044,49.3214515 24.1699219,49.3920898 C24.4456394,49.4627282 24.6735017,49.5527338 24.8535156,49.6621094 C25.0335295,49.7714849 25.1930332,49.9013664 25.3320312,50.0517578 C25.4710293,50.2021492 25.5769853,50.3479811 25.6499023,50.4892578 C25.7228194,50.6305346 25.7820636,50.7809237 25.8276367,50.9404297 C25.8732099,51.0999357 25.9016927,51.2309565 25.9130859,51.3334961 C25.9244792,51.4360357 25.9301758,51.5328771 25.9301758,51.6240234 C25.9301758,52.0205098 25.795737,52.4158509 25.5268555,52.8100586 C25.2579739,53.2042663 24.973146,53.4583328 24.6723633,53.5722656 C25.2739288,53.6816412 25.7672507,53.9721656 26.1523438,54.4438477 C26.5374368,54.9155297 26.7299805,55.4521454 26.7299805,56.0537109 C26.7299805,56.1949877 26.717448,56.3430982 26.6923828,56.4980469 C26.6673176,56.6529956 26.6183272,56.8284495 26.5454102,57.0244141 C26.4724931,57.2203786 26.3790696,57.4072257 26.2651367,57.5849609 C26.1512039,57.7626962 25.9962575,57.9392895 25.800293,58.1147461 C25.6043284,58.2902027 25.3798841,58.4417311 25.1269531,58.5693359 C24.8740222,58.6969407 24.5641294,58.8006181 24.1972656,58.8803711 C23.8304018,58.9601241 23.4282248,59 22.9907227,59 L19.8325195,59 L19.8325195,49.2861328 Z M33.6274414,49.1835938 C34.2700227,49.1835938 34.8704399,49.2963856 35.4287109,49.5219727 C35.986982,49.7475597 36.47005,50.0654276 36.8779297,50.4755859 C37.2858093,50.8857442 37.6059559,51.3972951 37.8383789,52.0102539 C38.0708019,52.6232127 38.1870117,53.2965458 38.1870117,54.0302734 C38.1870117,55.023768 37.9899108,55.9067344 37.5957031,56.6791992 C37.2014954,57.451664 36.6546259,58.0486633 35.9550781,58.4702148 C35.2555304,58.8917664 34.4637088,59.1025391 33.5795898,59.1025391 C32.9962536,59.1025391 32.4379909,58.9988617 31.9047852,58.7915039 C31.3715794,58.5841461 30.8907899,58.2822285 30.4624023,57.8857422 C30.0340148,57.4892558 29.6922213,56.9708691 29.4370117,56.3305664 C29.1818021,55.6902637 29.0541992,54.9690795 29.0541992,54.1669922 C29.0541992,53.4150353 29.170409,52.7268911 29.402832,52.1025391 C29.6352551,51.478187 29.9542623,50.9529644 30.3598633,50.5268555 C30.7654643,50.1007466 31.2485324,49.7703462 31.809082,49.5356445 C32.3696317,49.3009428 32.9757454,49.1835938 33.6274414,49.1835938 Z M33.565918,50.2021484 C33.1512024,50.2021484 32.7524433,50.2796216 32.3696289,50.4345703 C31.9868145,50.589519 31.6347672,50.816242 31.3134766,51.1147461 C30.9921859,51.4132502 30.7347015,51.8142878 30.5410156,52.3178711 C30.3473298,52.8214543 30.2504883,53.3899708 30.2504883,54.0234375 C30.2504883,54.6295603 30.3393546,55.1889623 30.5170898,55.7016602 C30.6948251,56.214358 30.9363592,56.6438785 31.2416992,56.9902344 C31.5470393,57.3365903 31.908201,57.6054678 32.3251953,57.796875 C32.7421896,57.9882822 33.189939,58.0839844 33.668457,58.0839844 C33.9920264,58.0839844 34.3098943,58.0361333 34.6220703,57.9404297 C34.9342464,57.8447261 35.2338853,57.6931977 35.5209961,57.4858398 C35.8081069,57.278482 36.0598948,57.0244156 36.2763672,56.7236328 C36.4928396,56.4228501 36.666015,56.0514345 36.7958984,55.609375 C36.9257819,55.1673155 36.9907227,54.6819688 36.9907227,54.1533203 C36.9907227,53.6155572 36.922364,53.1233746 36.7856445,52.6767578 C36.6489251,52.230141 36.4677746,51.8564468 36.2421875,51.5556641 C36.0166004,51.2548813 35.7545588,51.0008148 35.4560547,50.793457 C35.1575506,50.5860992 34.8499365,50.4357101 34.5332031,50.3422852 C34.2164698,50.2488602 33.8940446,50.2021484 33.565918,50.2021484 Z M44.722168,49.1972656 C45.4695675,49.1972656 46.2739215,49.3271471 47.1352539,49.5869141 L46.7592773,50.6464844 C45.9389607,50.409504 45.2280304,50.2910156 44.6264648,50.2910156 C43.9519823,50.2910156 43.3811872,50.4334296 42.9140625,50.7182617 C42.4469378,51.0030939 42.2133789,51.3710915 42.2133789,51.8222656 C42.2133789,52.0729179 42.2885735,52.296223 42.4389648,52.4921875 C42.5893562,52.688152 42.7875964,52.8476556 43.0336914,52.9707031 C43.2797864,53.0937506 43.560057,53.2156569 43.8745117,53.3364258 C44.1889664,53.4571946 44.509113,53.5677078 44.8349609,53.6679688 C45.1608089,53.7682297 45.4809555,53.8958326 45.7954102,54.0507812 C46.1098649,54.2057299 46.3901355,54.3754874 46.6362305,54.5600586 C46.8823254,54.7446298 47.0805657,54.9850246 47.230957,55.28125 C47.3813484,55.5774754 47.456543,55.912433 47.456543,56.2861328 C47.456543,56.5458997 47.4155278,56.8045235 47.3334961,57.0620117 C47.2514644,57.3195 47.1147471,57.5747058 46.9233398,57.8276367 C46.7319326,58.0805677 46.4949558,58.3027334 46.2124023,58.4941406 C45.9298488,58.6855478 45.5732443,58.8404942 45.1425781,58.9589844 C44.7119119,59.0774746 44.2322618,59.1367188 43.7036133,59.1367188 C43.1749648,59.1367188 42.6884788,59.0820318 42.2441406,58.9726562 C41.7998025,58.8632807 41.3019233,58.6992198 40.7504883,58.4804688 L41.1469727,57.3525391 C42.2863013,57.7763693 43.1863574,57.9882812 43.847168,57.9882812 C44.5398798,57.9882812 45.103839,57.8492852 45.5390625,57.5712891 C45.974286,57.2932929 46.1918945,56.9218773 46.1918945,56.4570312 C46.1918945,56.1471339 46.0950531,55.8793957 45.9013672,55.6538086 C45.7076813,55.4282215 45.4570328,55.2459317 45.1494141,55.1069336 C44.8417953,54.9679355 44.5011412,54.838054 44.1274414,54.7172852 C43.7537416,54.5965163 43.3811868,54.4666348 43.0097656,54.3276367 C42.6383445,54.1886386 42.2988297,54.0279957 41.9912109,53.8457031 C41.6835922,53.6634105 41.4329437,53.4173193 41.2392578,53.1074219 C41.0455719,52.7975245 40.9487305,52.4329448 40.9487305,52.0136719 C40.9487305,51.6399721 41.0387361,51.2822283 41.21875,50.9404297 C41.3987639,50.5986311 41.6482731,50.2989922 41.9672852,50.0415039 C42.2862972,49.7840156 42.6850562,49.5789396 43.1635742,49.4262695 C43.6420922,49.2735995 44.1616183,49.1972656 44.722168,49.1972656 Z M48.9946289,49.2861328 L56.6508789,49.2861328 L56.6508789,50.3115234 L53.4038086,50.3115234 L53.4038086,59 L52.2416992,59 L52.2416992,50.3115234 L48.9946289,50.3115234 L48.9946289,49.2861328 Z M62.4956055,49.2861328 L65.7016602,49.2861328 C65.8520515,49.2861328 65.9762365,49.2872721 66.0742188,49.2895508 C66.172201,49.2918294 66.314615,49.3009439 66.5014648,49.3168945 C66.6883147,49.3328451 66.8478183,49.3556314 66.9799805,49.3852539 C67.1121426,49.4148765 67.2682283,49.4604489 67.4482422,49.5219727 C67.6282561,49.5834964 67.7820632,49.655273 67.909668,49.7373047 C68.0372728,49.8193363 68.1705722,49.9275709 68.3095703,50.0620117 C68.4485684,50.1964525 68.5602209,50.3457023 68.6445312,50.5097656 C68.7288416,50.6738289 68.7983396,50.8720692 68.8530273,51.1044922 C68.9077151,51.3369152 68.9350586,51.592121 68.9350586,51.8701172 C68.9350586,52.2711609 68.8894861,52.6311833 68.7983398,52.9501953 C68.7071936,53.2692073 68.5898445,53.5358062 68.4462891,53.75 C68.3027337,53.9641938 68.1170259,54.1487622 67.8891602,54.3037109 C67.6612944,54.4586596 67.4357108,54.5782873 67.2124023,54.6625977 C66.9890939,54.746908 66.725913,54.812988 66.4228516,54.8608398 C66.1197902,54.9086916 65.848634,54.9394531 65.609375,54.953125 C65.370116,54.9667969 65.0932633,54.9736328 64.7788086,54.9736328 C64.4689112,54.9736328 64.095217,54.9576825 63.6577148,54.9257812 L63.6577148,59 L62.4956055,59 L62.4956055,49.2861328 Z M63.6577148,53.9003906 C64.095217,53.9368491 64.5099264,53.9550781 64.9018555,53.9550781 C65.1251639,53.9550781 65.312011,53.9527995 65.4624023,53.9482422 C65.6127937,53.9436849 65.7973622,53.9277345 66.0161133,53.9003906 C66.2348644,53.8730467 66.4171542,53.8354495 66.5629883,53.7875977 C66.7088223,53.7397459 66.8637687,53.6679692 67.027832,53.5722656 C67.1918954,53.476562 67.3229162,53.3637702 67.4208984,53.2338867 C67.5188807,53.1040033 67.5997718,52.9399424 67.6635742,52.7416992 C67.7273766,52.543456 67.7592773,52.316733 67.7592773,52.0615234 C67.7592773,51.7971992 67.725098,51.5636403 67.6567383,51.3608398 C67.5883786,51.1580394 67.4892585,50.9951178 67.359375,50.8720703 C67.2294915,50.7490228 67.0927742,50.6476241 66.9492188,50.5678711 C66.8056633,50.4881181 66.632488,50.4311525 66.4296875,50.3969727 C66.226887,50.3627928 66.0491544,50.3400066 65.8964844,50.3286133 C65.7438143,50.31722 65.5626638,50.3115234 65.3530273,50.3115234 L63.6577148,50.3115234 L63.6577148,53.9003906 Z M74.0073242,49.2861328 L75.3266602,49.2861328 L78.7788086,59 L77.6030273,59 L76.6186523,56.1767578 L72.612793,56.1767578 L71.628418,59 L70.5551758,59 L74.0073242,49.2861328 Z M74.6157227,50.4208984 L72.9614258,55.1582031 L76.2631836,55.1582031 L74.6157227,50.4208984 Z M87.5151367,51.9521484 C87.5151367,52.2757178 87.4764001,52.5833319 87.3989258,52.875 C87.3214514,53.1666681 87.2006844,53.4446601 87.0366211,53.7089844 C86.8725578,53.9733086 86.6458348,54.2023102 86.3564453,54.3959961 C86.0670558,54.589682 85.7286803,54.7320959 85.3413086,54.8232422 L88.0825195,59 L86.7836914,59 L84.1518555,54.953125 L82.2719727,54.953125 L82.2719727,59 L81.1030273,59 L81.1030273,49.2861328 L84.6713867,49.2861328 C84.83545,49.2861328 84.9835605,49.2906901 85.1157227,49.2998047 C85.2478848,49.3089193 85.4176422,49.3328449 85.625,49.371582 C85.8323578,49.4103192 86.015787,49.4627275 86.175293,49.5288086 C86.334799,49.5948897 86.5022778,49.6951491 86.6777344,49.8295898 C86.853191,49.9640306 86.9990229,50.1223949 87.1152344,50.3046875 C87.2314459,50.4869801 87.3271481,50.7193996 87.4023438,51.0019531 C87.4775394,51.2845066 87.5151367,51.6012352 87.5151367,51.9521484 Z M82.2719727,53.9277344 L83.9467773,53.9277344 C84.1792004,53.9277344 84.3842765,53.9197592 84.5620117,53.9038086 C84.739747,53.887858 84.948241,53.8445642 85.1875,53.7739258 C85.426759,53.7032874 85.6249992,53.6053066 85.7822266,53.4799805 C85.9394539,53.3546543 86.0738927,53.1723645 86.1855469,52.9331055 C86.2972011,52.6938465 86.3530273,52.4101579 86.3530273,52.0820312 C86.3530273,51.8496082 86.3234052,51.6399749 86.2641602,51.453125 C86.2049151,51.2662751 86.1297205,51.1124681 86.0385742,50.9916992 C85.9474279,50.8709304 85.8357754,50.7661137 85.7036133,50.6772461 C85.5714512,50.5883785 85.4438483,50.5211591 85.3208008,50.4755859 C85.1977533,50.4300128 85.0610359,50.3935548 84.9106445,50.3662109 C84.7602532,50.3388671 84.6360682,50.3217774 84.5380859,50.3149414 C84.4401037,50.3081054 84.3364263,50.3046875 84.2270508,50.3046875 L82.2719727,50.3046875 L82.2719727,53.9277344 Z M93.2915039,49.2861328 L94.6108398,49.2861328 L98.0629883,59 L96.887207,59 L95.902832,56.1767578 L91.8969727,56.1767578 L90.9125977,59 L89.8393555,59 L93.2915039,49.2861328 Z M93.8999023,50.4208984 L92.2456055,55.1582031 L95.5473633,55.1582031 L93.8999023,50.4208984 Z M98.9858398,49.2861328 L106.64209,49.2861328 L106.64209,50.3115234 L103.39502,50.3115234 L103.39502,59 L102.23291,59 L102.23291,50.3115234 L98.9858398,50.3115234 L98.9858398,49.2861328 Z M112.719238,49.1835938 C113.36182,49.1835938 113.962237,49.2963856 114.520508,49.5219727 C115.078779,49.7475597 115.561847,50.0654276 115.969727,50.4755859 C116.377606,50.8857442 116.697753,51.3972951 116.930176,52.0102539 C117.162599,52.6232127 117.278809,53.2965458 117.278809,54.0302734 C117.278809,55.023768 117.081708,55.9067344 116.6875,56.6791992 C116.293292,57.451664 115.746423,58.0486633 115.046875,58.4702148 C114.347327,58.8917664 113.555506,59.1025391 112.671387,59.1025391 C112.08805,59.1025391 111.529788,58.9988617 110.996582,58.7915039 C110.463376,58.5841461 109.982587,58.2822285 109.554199,57.8857422 C109.125812,57.4892558 108.784018,56.9708691 108.528809,56.3305664 C108.273599,55.6902637 108.145996,54.9690795 108.145996,54.1669922 C108.145996,53.4150353 108.262206,52.7268911 108.494629,52.1025391 C108.727052,51.478187 109.046059,50.9529644 109.45166,50.5268555 C109.857261,50.1007466 110.340329,49.7703462 110.900879,49.5356445 C111.461429,49.3009428 112.067542,49.1835938 112.719238,49.1835938 Z M112.657715,50.2021484 C112.242999,50.2021484 111.84424,50.2796216 111.461426,50.4345703 C111.078611,50.589519 110.726564,50.816242 110.405273,51.1147461 C110.083983,51.4132502 109.826498,51.8142878 109.632812,52.3178711 C109.439127,52.8214543 109.342285,53.3899708 109.342285,54.0234375 C109.342285,54.6295603 109.431151,55.1889623 109.608887,55.7016602 C109.786622,56.214358 110.028156,56.6438785 110.333496,56.9902344 C110.638836,57.3365903 110.999998,57.6054678 111.416992,57.796875 C111.833986,57.9882822 112.281736,58.0839844 112.760254,58.0839844 C113.083823,58.0839844 113.401691,58.0361333 113.713867,57.9404297 C114.026043,57.8447261 114.325682,57.6931977 114.612793,57.4858398 C114.899904,57.278482 115.151692,57.0244156 115.368164,56.7236328 C115.584636,56.4228501 115.757812,56.0514345 115.887695,55.609375 C116.017579,55.1673155 116.08252,54.6819688 116.08252,54.1533203 C116.08252,53.6155572 116.014161,53.1233746 115.877441,52.6767578 C115.740722,52.230141 115.559571,51.8564468 115.333984,51.5556641 C115.108397,51.2548813 114.846356,51.0008148 114.547852,50.793457 C114.249347,50.5860992 113.941733,50.4357101 113.625,50.3422852 C113.308267,50.2488602 112.985841,50.2021484 112.657715,50.2021484 Z M120.38916,49.2861328 L121.55127,49.2861328 L121.55127,59 L120.38916,59 L120.38916,49.2861328 Z" id="E-bost-paratoi" fill="#000000"></path>
                <g id="Group-5" transform="translate(45.000000, 0.000000)">
                    <circle id="Oval-3" stroke="#4169E1" stroke-width="5" cx="18" cy="18" r="15.5"></circle>
                    <circle id="Oval-3" fill="#4169E1" cx="18" cy="18" r="7"></circle>
                </g>
            </g>
        </g>
    </g>
</svg>