<?xml version="1.0" encoding="UTF-8"?>
<svg width="154px" height="154px" viewBox="0 0 154 154" version="1.1" xmlns="http://www.w3.org/2000/svg" xmlns:xlink="http://www.w3.org/1999/xlink">
    <!-- Generator: Sketch 48.2 (47327) - http://www.bohemiancoding.com/sketch -->
    <title>search_big</title>
    <desc>Created with Sketch.</desc>
    <defs>
        <linearGradient x1="50%" y1="0%" x2="50%" y2="100%" id="linearGradient-1">
            <stop stop-color="#ADC2FF" offset="0%"></stop>
            <stop stop-color="#4169E1" offset="77.2773282%"></stop>
            <stop stop-color="#314FA8" offset="100%"></stop>
        </linearGradient>
    </defs>
    <g id="assets" stroke="none" stroke-width="1" fill="none" fill-rule="evenodd">
        <g id="search_big" transform="translate(2.000000, 2.000000)">
            <circle id="Oval-2" stroke="#4169E1" stroke-width="3" cx="75" cy="75" r="75"></circle>
            <g id="select-choose-right-person-hr-job-human-resource" transform="translate(25.000000, 25.000000)" fill="url(#linearGradient-1)" fill-rule="nonzero">
                <path d="M80,53.3333333 C78.0780878,53.3393108 76.2535439,54.1798174 75,55.6366667 C73.7766667,54.2366667 72.0016667,53.3333333 70,53.3333333 C67.9983333,53.3333333 66.2233333,54.2366667 65,55.6366667 C63.7464561,54.1798174 61.9219122,53.3393108 60,53.3333333 C58.78,53.3333333 57.6516667,53.6866667 56.6666667,54.26 L56.6666667,49.0733333 C56.8833333,49.0133333 57.1016667,48.955 57.3166667,48.89 C57.4816667,48.84 57.6416667,48.78 57.805,48.7266667 C58.439521,48.5181131 59.0655637,48.284598 59.6816667,48.0266667 C60.245,47.79 60.7983333,47.535 61.3416667,47.2583333 L61.43,47.2133333 C63.7603349,46.0207339 65.8885676,44.4689913 67.7366667,42.615 C67.79,42.56 67.81,42.485 67.855,42.425 C72.2933333,37.865 75,31.6633333 75,25 C75,18.0933333 72.2466667,11.6666667 67.2466667,6.9 C62.2483333,2.13833333 55.6866667,-0.3 48.77,0.03 C36.4933333,0.62 26.3266667,10.2666667 25.125,22.4716667 C24.3952142,29.8652317 26.9836873,37.2014774 32.1916667,42.5 C32.2216667,42.535 32.2316667,42.5833333 32.265,42.6166667 C32.3783333,42.7316667 32.5016667,42.835 32.6166667,42.9466667 C32.7,43.0283333 32.7866667,43.105 32.8716667,43.1866667 C33.2916667,43.5816667 33.7233333,43.9616667 34.1683333,44.3266667 C34.3016667,44.435 34.4333333,44.545 34.5683333,44.6516667 C35.015,45.0016667 35.4716667,45.335 35.94,45.6533333 C36.0566667,45.7333333 36.1683333,45.8166667 36.2866667,45.895 C36.865,46.2733333 37.455,46.63 38.0616667,46.96 C38.2016667,47.0366667 38.3483333,47.1016667 38.49,47.175 C38.96,47.4183333 39.4366667,47.65 39.9233333,47.865 C40.5872808,48.1547078 41.2634707,48.415508 41.95,48.6466667 C42.1683333,48.7216667 42.385,48.7983333 42.6066667,48.8666667 C42.8483333,48.9416667 43.0916667,49.01 43.3366667,49.0766667 L43.3366667,74.3116667 L37.9066667,68.8816667 C36.4910922,67.4589212 34.565328,66.6613704 32.5583333,66.6666667 C28.3858849,66.6712593 25.0045927,70.0525516 25,74.225 C25,76.245 25.7866667,78.1433333 27.2133333,79.57 L43.3333333,95.69 L43.3333333,98.3333333 C43.3333333,99.2538079 44.0795254,100 45,100 L83.3333333,100 C84.2538079,100 85,99.2538079 85,98.3333333 L85,92.06 L86.4916667,89.0783333 C86.6066667,88.8483333 86.6666667,88.5916667 86.6666667,88.3333333 L86.6666667,59.9933333 C86.6602357,56.3151815 83.6781564,53.3360843 80,53.3333333 Z M43.3333333,40 L43.3333333,45.6083333 C42.6417949,45.3820147 41.962051,45.1211309 41.2966667,44.8266667 C41.1083333,44.7433333 40.9266667,44.6516667 40.7416667,44.5633333 C39.5929312,44.0217615 38.4951838,43.378062 37.4616667,42.64 C37.28,42.51 37.0916667,42.39 36.915,42.255 C36.3774635,41.847096 35.8596549,41.4138276 35.3633333,40.9566667 C35.3133333,40.9116667 35.27,40.8616667 35.22,40.815 C36.1934789,35.2228994 40.2272108,30.6524962 45.655,28.9916667 C46.97,29.6316667 48.4416667,30 50,30 C51.5583333,30 53.03,29.6316667 54.3466667,28.9916667 C59.7622721,30.6490483 63.7905547,35.2040469 64.7733333,40.7816667 C64.5483333,40.9933333 64.3283333,41.21 64.095,41.4116667 L63.9466667,41.535 C63.1533333,42.2066667 62.3116667,42.8233333 61.4266667,43.38 C61.3883333,43.405 61.35,43.4333333 61.3116667,43.4566667 C60.9916667,43.655 60.6583333,43.8316667 60.3266667,44.0133333 C59.7504841,44.327943 59.1610518,44.6176546 58.56,44.8816667 C57.9766667,45.1316667 57.385,45.3666667 56.78,45.565 L56.6683333,45.6066667 L56.6683333,40 C56.6683333,36.3233333 53.6783333,33.3333333 50.0016667,33.3333333 C46.325,33.3333333 43.3333333,36.3233333 43.3333333,40 Z M53.325,25.7433333 C53.3166667,25.7483333 53.3066667,25.7483333 53.2966667,25.7533333 C52.8333333,26.02 52.355,26.2166667 51.8716667,26.365 C51.7833333,26.3916667 51.6983333,26.425 51.6066667,26.4466667 C51.4271432,26.4912345 51.2458825,26.5284875 51.0633333,26.5583333 C50.6631102,26.6261214 50.2575501,26.6573612 49.8516667,26.6516667 C49.5431604,26.6426299 49.2357022,26.6114385 48.9316667,26.5583333 C48.7489703,26.5292906 48.5676753,26.4920306 48.3883333,26.4466667 C48.2983333,26.4233333 48.2133333,26.39 48.1233333,26.365 C47.6270982,26.2146465 47.1491522,26.0094931 46.6983333,25.7533333 C46.69,25.7483333 46.68,25.7483333 46.6716667,25.7433333 C44.6866667,24.59 43.3333333,22.46 43.3333333,20 C43.3333333,16.3233333 46.3233333,13.3333333 50,13.3333333 C53.6766667,13.3333333 56.6666667,16.3233333 56.6666667,20 C56.6666667,22.46 55.3133333,24.5883333 53.325,25.7433333 Z M28.4416667,22.7966667 C29.4833333,12.2266667 38.2916667,3.86833333 48.9283333,3.36 C54.8612669,3.04091582 60.6608441,5.19659633 64.945,9.31333333 C69.2564211,13.389107 71.689399,19.0670609 71.6666667,25 C71.6666667,29.7083333 70.11,34.155 67.4483333,37.78 C65.849479,32.8178642 62.2266334,28.7633526 57.475,26.6183333 C59.1004554,24.7969104 59.9991787,22.4412468 60,20 C60,14.485 55.515,10 50,10 C44.485,10 40,14.485 40,20 C40,22.54 40.96,24.8533333 42.525,26.62 C37.771172,28.7650699 34.1472736,32.8218986 32.55,37.7866667 C29.3788629,33.4676063 27.9157019,28.1289976 28.4416667,22.7966667 Z M83.3333333,87.94 L81.8416667,90.9216667 C81.7264533,91.1531065 81.6665472,91.4081353 81.6666667,91.6666667 L81.6666667,96.6666667 L46.6666667,96.6666667 L46.6666667,95 C46.6673079,94.5578625 46.491539,94.1337375 46.1783333,93.8216667 L29.57,77.2133333 C28.7754125,76.4222298 28.3301386,75.346251 28.3333333,74.225 C28.3370041,71.8931191 30.2264525,70.0036708 32.5583333,70 C33.6883333,70 34.7483333,70.44 35.5466667,71.2366667 L43.8216667,79.5116667 C43.8233293,80.264329 44.3297227,80.9222796 45.0568797,81.1165632 C45.7840366,81.3108468 46.5511077,80.9931437 46.9279468,80.3416104 C47.3047859,79.6900771 47.1976703,78.8667548 46.6666667,78.3333333 L46.6666667,40 C46.6666667,38.1616667 48.1616667,36.6666667 50,36.6666667 C51.8383333,36.6666667 53.3333333,38.1616667 53.3333333,40 L53.3333333,70 L56.6666667,70 L56.6666667,60 C56.6666667,58.1616667 58.1616667,56.6666667 60,56.6666667 C61.8383333,56.6666667 63.3333333,58.1616667 63.3333333,60 L63.3333333,70 L66.6666667,70 L66.6666667,60 C66.6666667,58.1616667 68.1616667,56.6666667 70,56.6666667 C71.8383333,56.6666667 73.3333333,58.1616667 73.3333333,60 L73.3333333,70 L76.6666667,70 L76.6666667,60 C76.6648257,58.1590508 78.1557175,56.6651743 79.9966667,56.6633333 C81.8376158,56.6614924 83.3314924,58.1523842 83.3333333,59.9933333 L83.3333333,87.94 Z" id="Shape"></path>
                <path d="M17.035,31.32 C18.8333333,29.79 20,27.54 20,25 C20,20.405 16.2616667,16.6666667 11.6666667,16.6666667 C7.07166667,16.6666667 3.33333333,20.405 3.33333333,25 C3.33333333,27.54 4.5,29.79 6.29833333,31.32 C2.43323217,33.3240117 0.00505677994,37.3129275 2.66453526e-15,41.6666667 L2.66453526e-15,46.6666667 C2.66453526e-15,47.5871412 0.746192084,48.3333333 1.66666667,48.3333333 L21.6666667,48.3333333 C22.5871412,48.3333333 23.3333333,47.5871412 23.3333333,46.6666667 L23.3333333,41.6666667 C23.3282766,37.3129275 20.9001012,33.3240117 17.035,31.32 Z M6.66666667,25 C6.66666667,22.2433333 8.91,20 11.6666667,20 C14.4233333,20 16.6666667,22.2433333 16.6666667,25 C16.6666667,27.7566667 14.4233333,30 11.6666667,30 C8.91,30 6.66666667,27.7566667 6.66666667,25 Z M20,45 L3.33333333,45 L3.33333333,41.6666667 C3.33333333,37.0716667 7.07166667,33.3333333 11.6666667,33.3333333 C16.2616667,33.3333333 20,37.0716667 20,41.6666667 L20,45 Z" id="Shape"></path>
                <path d="M93.7016667,29.6533333 C95.5,28.1233333 96.6666667,25.8733333 96.6666667,23.3333333 C96.6666667,18.7383333 92.9283333,15 88.3333333,15 C83.7383333,15 80,18.7383333 80,23.3333333 C80,25.8733333 81.1666667,28.1233333 82.965,29.6533333 C79.0998988,31.6573451 76.6717234,35.6462609 76.6666667,40 L76.6666667,45 C76.6666667,45.9204746 77.4128588,46.6666667 78.3333333,46.6666667 L98.3333333,46.6666667 C99.2538079,46.6666667 100,45.9204746 100,45 L100,40 C99.9949432,35.6462609 97.5667678,31.6573451 93.7016667,29.6533333 Z M83.3333333,23.3333333 C83.3333333,20.5766667 85.5766667,18.3333333 88.3333333,18.3333333 C91.09,18.3333333 93.3333333,20.5766667 93.3333333,23.3333333 C93.3333333,26.09 91.09,28.3333333 88.3333333,28.3333333 C85.5766667,28.3333333 83.3333333,26.09 83.3333333,23.3333333 Z M96.6666667,43.3333333 L80,43.3333333 L80,40 C80,35.405 83.7383333,31.6666667 88.3333333,31.6666667 C92.9283333,31.6666667 96.6666667,35.405 96.6666667,40 L96.6666667,43.3333333 Z" id="Shape"></path>
            </g>
        </g>
    </g>
</svg>