<?xml version="1.0" encoding="UTF-8"?>
<svg width="60px" height="60px" viewBox="0 0 60 60" version="1.1" xmlns="http://www.w3.org/2000/svg" xmlns:xlink="http://www.w3.org/1999/xlink">
    <!-- Generator: Sketch 48.2 (47327) - http://www.bohemiancoding.com/sketch -->
    <title>search_small</title>
    <desc>Created with Sketch.</desc>
    <defs>
        <linearGradient x1="50%" y1="0%" x2="50%" y2="100%" id="linearGradient-1">
            <stop stop-color="#ADC2FF" offset="0%"></stop>
            <stop stop-color="#4169E1" offset="77.2773282%"></stop>
            <stop stop-color="#314FA8" offset="100%"></stop>
        </linearGradient>
    </defs>
    <g id="assets" stroke="none" stroke-width="1" fill="none" fill-rule="evenodd">
        <g id="search_small" fill="url(#linearGradient-1)" fill-rule="nonzero">
            <path d="M40,0 C28.972,0 20,8.972 20,20 C20,25.115 21.93,29.932 25.418,33.66 L0.05,58.536 L1.45,59.964 L26.857,35.05 C30.509,38.241 35.119,40 40,40 C51.028,40 60,31.028 60,20 C60,8.972 51.028,0 40,0 Z M40,38 C35.2,38 30.679,36.128 27.271,32.731 C23.872,29.322 22,24.801 22,20 C22,10.075 30.075,2 40,2 C49.925,2 58,10.075 58,20 C58,29.925 49.925,38 40,38 Z" id="Shape"></path>
            <path d="M40,4 C31.178,4 24,11.178 24,20 C24,24.266 25.663,28.285 28.686,31.316 C31.6822087,34.3230218 35.755078,36.0091912 40,36 C48.822,36 56,28.822 56,20 C56,11.178 48.822,4 40,4 Z M42.232,20.476 C41.1858748,20.9931961 39.9928012,21.1317284 38.856,20.868 C36.5949399,20.3396027 34.9967564,18.3219788 35,16 C35,13.243 37.243,11 40,11 C42.757,11 45,13.243 45,16 C45.0030486,17.8968263 43.9303954,19.6313625 42.232,20.476 Z M37.243,22.437 C37.311,22.466 37.382,22.487 37.451,22.514 C37.6798811,22.6057637 37.9143517,22.6829186 38.153,22.745 C38.273,22.778 38.392,22.811 38.514,22.837 C38.632,22.862 38.751,22.88 38.87,22.899 C39.002,22.92 39.133,22.945 39.266,22.959 C39.397,22.973 39.528,22.975 39.66,22.981 C39.773,22.986 39.885,23 40,23 C40.115,23 40.227,22.986 40.341,22.981 C40.472,22.975 40.604,22.972 40.734,22.959 C40.867,22.945 40.998,22.921 41.129,22.9 C41.249,22.881 41.368,22.863 41.487,22.838 C41.607,22.812 41.726,22.779 41.845,22.747 C41.977,22.711 42.109,22.673 42.239,22.63 C42.3425854,22.5945299 42.4452831,22.5565184 42.547,22.516 C42.616,22.489 42.688,22.468 42.756,22.439 C46.1228279,23.5290977 48.5421364,26.4859868 48.944,30.002 L31.056,30.002 C31.4559921,26.4850778 33.8753653,23.5268495 37.243,22.437 Z M32.812,32 L47.174,32 C42.7578728,34.6661488 37.2281272,34.6661488 32.812,32 Z M50.79,28.91 C50.1240533,25.5106871 47.9009875,22.6211457 44.786,21.106 C46.2015671,19.7856762 47.0037153,17.9357353 47,16 C47,12.14 43.859,9 40,9 C36.141,9 33,12.14 33,16 C33,17.974 33.818,19.802 35.214,21.105 C32.0967521,22.6216615 29.8730109,25.5145618 29.209,28.917 C27.128798,26.4117782 25.9932134,23.2562756 26,20 C26,12.28 32.28,6 40,6 C47.72,6 54,12.28 54,20 C54,23.382 52.794,26.487 50.79,28.91 Z" id="Shape"></path>
        </g>
    </g>
</svg>