<?xml version="1.0" encoding="UTF-8"?>
<svg width="52px" height="60px" viewBox="0 0 52 60" version="1.1" xmlns="http://www.w3.org/2000/svg" xmlns:xlink="http://www.w3.org/1999/xlink">
    <!-- Generator: Sketch 48.2 (47327) - http://www.bohemiancoding.com/sketch -->
    <title>tips</title>
    <desc>Created with Sketch.</desc>
    <defs>
        <linearGradient x1="50%" y1="0%" x2="50%" y2="100%" id="linearGradient-1">
            <stop stop-color="#ADC2FF" offset="0%"></stop>
            <stop stop-color="#4169E1" offset="77.2773282%"></stop>
            <stop stop-color="#314FA8" offset="100%"></stop>
        </linearGradient>
    </defs>
    <g id="assets" stroke="none" stroke-width="1" fill="none" fill-rule="evenodd">
        <g id="tips" fill="url(#linearGradient-1)" fill-rule="nonzero">
            <path d="M38,40 C37.9974922,39.2595828 37.7194349,38.5466156 37.22,38 C37.7,37.468 38,36.771 38,36 C38,35.229 37.699,34.532 37.22,34 C37.7,33.468 38,32.771 38,32 C37.9994634,31.1915101 37.6715403,30.4176981 37.091,29.855 C40.813,26.64 43,21.945 43,17 C43,7.626 35.374,0 26,0 C16.626,0 9,7.626 9,17 C9,21.945 11.187,26.64 14.909,29.855 C14.3284597,30.4176981 14.0005366,31.1915101 14,32 C14,32.771 14.301,33.468 14.78,34 C14.3,34.532 14,35.229 14,36 C14,36.771 14.301,37.468 14.78,38 C14.2802331,38.5464092 14.0021237,39.25951 14,40 C14,41.302 14.839,42.402 16,42.816 L16,50 C16,50.269 16.11,50.52 16.295,50.705 L16.293,50.707 L25.293,59.707 C25.4801351,59.8952092 25.7345904,60.0010349 26,60.0010349 C26.2654096,60.0010349 26.5198649,59.8952092 26.707,59.707 L35.707,50.707 L35.705,50.705 C35.8930726,50.5185126 35.9992129,50.2648552 36,50 L36,42.816 C37.1951035,42.3947431 37.9959385,41.2671674 38,40 Z M16,36 C16,35.449 16.449,35 17,35 L35,35 C35.551,35 36,35.449 36,36 C36,36.551 35.551,37 35,37 L17,37 C16.449,37 16,36.551 16,36 Z M16,32 C16,31.449 16.449,31 17,31 L34.996,31 L35.008,31.002 C35.5423374,31.0279623 35.9616034,31.4698622 35.9594615,32.0048257 C35.9573195,32.5397892 35.5345282,32.9783175 35,33 L17,33 C16.449,33 16,32.551 16,32 Z M23.64,21.232 L19.778,18.013 C18.6501727,17.0755789 17.9984571,15.6845436 18,14.218 C18,12.503 19.402,11 21,11 C21.311,11 21.616,11.05 21.908,11.147 C21.888,11.175 21.874,11.207 21.855,11.235 C21.75,11.39 21.655,11.549 21.569,11.714 C21.55,11.751 21.527,11.786 21.508,11.824 C21.4096567,12.0253551 21.3251282,12.2331684 21.255,12.446 C21.237,12.501 21.223,12.558 21.206,12.613 C21.1570856,12.7805115 21.1167004,12.9503964 21.085,13.122 C21.073,13.186 21.061,13.25 21.052,13.315 C21.022,13.541 21,13.769 21,14 C21.0028256,15.5095663 21.6915891,16.9360279 22.872,17.877 C23.2381792,18.1734778 23.7618208,18.1734778 24.128,17.877 C25.3084109,16.9360279 25.9971744,15.5095663 26,14 C26,13.769 25.978,13.541 25.947,13.315 C25.938,13.25 25.926,13.187 25.914,13.122 C25.8832531,12.9501965 25.8428558,12.7802609 25.793,12.613 C25.777,12.557 25.763,12.501 25.745,12.446 C25.6748718,12.2331684 25.5903433,12.0253551 25.492,11.824 C25.474,11.788 25.452,11.754 25.433,11.717 C25.3454936,11.5498235 25.2483292,11.3878829 25.142,11.232 C25.124,11.205 25.111,11.175 25.092,11.148 C25.6824713,10.9539857 26.3195287,10.9539857 26.91,11.148 C26.891,11.175 26.878,11.205 26.86,11.232 C26.754248,11.3882517 26.6571035,11.5501592 26.569,11.717 C26.55,11.753 26.528,11.787 26.51,11.824 C26.411,12.025 26.327,12.234 26.257,12.446 C26.239,12.501 26.225,12.557 26.209,12.613 C26.1600856,12.7805115 26.1197004,12.9503964 26.088,13.122 C26.076,13.186 26.064,13.25 26.055,13.315 C26.0200961,13.5416994 26.0017144,13.7706358 26,14 C26.0028256,15.5095663 26.6915891,16.9360279 27.872,17.877 C28.2381792,18.1734778 28.7618208,18.1734778 29.128,17.877 C30.3084109,16.9360279 30.9971744,15.5095663 31,14 C31,13.769 30.978,13.541 30.947,13.315 C30.938,13.25 30.926,13.187 30.914,13.122 C30.8832531,12.9501965 30.8428558,12.7802609 30.793,12.613 C30.777,12.557 30.763,12.501 30.744,12.446 C30.6738718,12.2331684 30.5893433,12.0253551 30.491,11.824 C30.473,11.786 30.45,11.751 30.43,11.714 C30.3435745,11.5491804 30.2480952,11.3892693 30.144,11.235 C30.125,11.206 30.111,11.175 30.091,11.147 C30.384155,11.0495652 30.691077,10.999931 31,11 C32.598,11 34,12.503 34,14.218 C34,15.688 33.352,17.072 32.222,18.013 L28.36,21.232 C28.1319981,21.4219089 28.0001113,21.7032674 28,22 L28,29 L24,29 L24,22 C23.9998887,21.7032674 23.8680019,21.4219089 23.64,21.232 Z M23.708,12.729 C23.8110954,12.946779 23.8866766,13.176546 23.933,13.413 C23.972,13.606 24,13.801 24,14 C24,14.199 23.972,14.394 23.933,14.586 C23.923,14.632 23.913,14.679 23.901,14.724 C23.854711,14.9118838 23.7900669,15.094763 23.708,15.27 C23.702,15.283 23.693,15.296 23.686,15.309 C23.634,15.412 23.564,15.506 23.5,15.603 C23.436,15.506 23.366,15.412 23.314,15.309 C23.307,15.296 23.298,15.283 23.292,15.27 C23.2099331,15.094763 23.145289,14.9118838 23.099,14.724 C23.087,14.678 23.077,14.632 23.067,14.586 C23.0250799,14.3934064 23.0026336,14.1970854 23,14 C23,13.801 23.028,13.606 23.067,13.414 C23.077,13.368 23.087,13.321 23.099,13.276 C23.147,13.089 23.208,12.905 23.292,12.73 L23.314,12.691 C23.366,12.588 23.436,12.494 23.5,12.397 C23.564,12.494 23.634,12.588 23.686,12.691 C23.692,12.704 23.701,12.716 23.708,12.729 Z M28.708,12.729 C28.8110954,12.946779 28.8866766,13.176546 28.933,13.413 C28.972,13.606 29,13.801 29,14 C29,14.199 28.972,14.394 28.933,14.586 C28.923,14.632 28.913,14.679 28.901,14.724 C28.854711,14.9118838 28.7900669,15.094763 28.708,15.27 C28.702,15.283 28.693,15.296 28.686,15.309 C28.634,15.412 28.564,15.506 28.5,15.603 C28.436,15.506 28.366,15.412 28.314,15.309 C28.307,15.296 28.298,15.283 28.292,15.27 C28.2099331,15.094763 28.145289,14.9118838 28.099,14.724 C28.087,14.678 28.077,14.632 28.067,14.586 C28.0250799,14.3934064 28.0026336,14.1970854 28,14 C28,13.801 28.028,13.606 28.067,13.414 C28.077,13.368 28.087,13.321 28.099,13.276 C28.147,13.089 28.208,12.905 28.292,12.73 L28.314,12.691 C28.366,12.588 28.436,12.494 28.5,12.397 C28.564,12.494 28.634,12.588 28.686,12.691 C28.692,12.704 28.701,12.716 28.708,12.729 Z M11,17 C11,8.729 17.729,2 26,2 C34.271,2 41,8.729 41,17 C41,21.71 38.755,26.168 34.978,29 L30,29 L30,22.468 L33.502,19.549 C35.0869634,18.2326358 36.0027169,16.2783195 36,14.218 C36,11.39 33.71,9 31,9 C30.1180105,9.00187331 29.2530165,9.24274458 28.497,9.697 C26.9521604,8.80508645 25.0488396,8.80508645 23.504,9.697 C22.7475729,9.24284796 21.8822879,9.00199187 21,9 C18.29,9 16,11.39 16,14.218 C16,16.283 16.91,18.227 18.498,19.55 L22,22.468 L22,29 L17.022,29 C13.245,26.168 11,21.71 11,17 Z M18.57,50.155 L20,49.202 L22.445,50.832 C22.7808076,51.055755 23.2181924,51.055755 23.554,50.832 L26,49.202 L28.445,50.832 C28.7808076,51.055755 29.2181924,51.055755 29.554,50.832 L32,49.202 L33.43,50.156 L29.586,54 L22.414,54 L18.57,50.155 Z M32.555,47.168 C32.2191924,46.944245 31.7818076,46.944245 31.446,47.168 L29,48.798 L26.555,47.168 C26.2191924,46.944245 25.7818076,46.944245 25.446,47.168 L23,48.798 L20.555,47.168 C20.2191924,46.944245 19.7818076,46.944245 19.446,47.168 L18,48.131 L18,43 L34,43 L34,48.131 L32.555,47.168 Z M26,57.586 L24.414,56 L27.586,56 L26,57.586 Z M35,41 L17,41 C16.449,41 16,40.551 16,40 C16,39.449 16.449,39 17,39 L35,39 C35.551,39 36,39.449 36,40 C36,40.551 35.551,41 35,41 Z" id="Shape"></path>
            <polygon id="Shape" points="41.293 4.293 45.293 0.293 46.707 1.707 42.707 5.707"></polygon>
            <polygon id="Shape" points="41.293 29.707 42.707 28.293 46.707 32.293 45.293 33.707"></polygon>
            <polygon id="Shape" points="46 16 52 16 52 18 46 18"></polygon>
            <polygon id="Shape" points="5.293 1.707 6.707 0.293 10.707 4.293 9.293 5.707"></polygon>
            <polygon id="Shape" points="5.293 32.293 9.293 28.293 10.707 29.707 6.707 33.707"></polygon>
            <polygon id="Shape" points="0 16 6 16 6 18 0 18"></polygon>
            <polygon id="Shape" points="38 48 40 48 40 50 38 50"></polygon>
            <polygon id="Shape" points="42 48 44 48 44 50 42 50"></polygon>
            <polygon id="Shape" points="46 48 48 48 48 50 46 50"></polygon>
            <polygon id="Shape" points="4 48 6 48 6 50 4 50"></polygon>
            <polygon id="Shape" points="8 48 10 48 10 50 8 50"></polygon>
            <polygon id="Shape" points="12 48 14 48 14 50 12 50"></polygon>
        </g>
    </g>
</svg>